<svg width="1400" height="1010" viewBox="0 0 1400 1010" fill="none" xmlns="http://www.w3.org/2000/svg">
<g clip-path="url(#clip0_15_1685)">
<path d="M1313.99 911.461C1311.16 915.188 1307.22 917.846 1307.22 917.846C1307.22 917.846 1297.95 925.942 1288.71 930.035C1285.44 931.44 1280.45 933.671 1274.32 933.396C1273.68 933.334 1273.04 933.273 1272.38 933.212C1271.75 933.121 1271.14 933.029 1270.54 932.815C1270.07 932.693 1269.62 932.601 1269.18 932.449C1268.94 932.387 1268.71 932.326 1268.47 932.235C1260.86 929.791 1256.15 923.864 1254.42 921.512C1252.78 919.19 1247.12 910.667 1246.51 896.981C1246.13 888.519 1247.52 876.391 1251.62 874.558C1252.42 874.252 1253.19 874.313 1254.08 873.397C1255.85 871.655 1255.71 868.509 1255.83 864.263C1256.05 856.411 1256.14 852.471 1257.57 850.118C1258.2 849.019 1260.2 847.216 1264.16 843.642C1266.91 841.167 1267.12 841.137 1267.48 840.404C1269.23 836.616 1265.24 833.347 1265.14 826.504C1265.11 821.249 1267.36 814.956 1270.99 812.023C1273.16 810.343 1274.13 811.107 1278.41 808.541C1281.43 806.708 1282.97 805.73 1284.14 804.111C1288.7 797.757 1282.71 787.767 1286.77 782.879C1288.78 780.466 1292.38 780.344 1295.82 780.222C1299.33 780.161 1300.11 781.108 1301.54 780.863C1309.76 779.641 1312.79 743.837 1316.6 743.715C1319.49 743.624 1324.77 764.703 1323.64 780.313C1323.43 782.727 1322.93 787.462 1325.16 791.219C1327.71 795.588 1331.31 794.305 1332.45 797.757C1333 799.529 1332.5 801.087 1327.39 815.139C1325.74 819.63 1324.6 822.716 1325.66 824.304C1326.7 825.862 1329.08 824.732 1330.52 826.993C1330.78 827.329 1331.22 828.153 1331.31 829.925C1331.73 835.76 1328.12 843.52 1326.28 847.277C1322.64 854.823 1320.35 858.336 1321.2 859.68C1322.11 860.963 1324.86 858.489 1326.98 860.261C1328.44 861.574 1328.69 864.293 1328.55 866.157C1328.34 868.753 1327.02 870.586 1322.73 875.596C1318.34 880.729 1317.56 881.34 1315.3 884.15C1311.36 888.946 1307.79 893.315 1308.61 895.637C1309.35 897.745 1312.81 896.064 1315.11 899.211C1315.21 899.333 1316.95 901.777 1316.68 905.107C1316.52 907.306 1315.38 909.567 1313.97 911.431L1313.99 911.461Z" fill="#87A8F5"/>
<path d="M1302.11 906.359C1300.34 910.331 1296.51 910.453 1293.68 911.247C1290.99 912.011 1288.32 913.08 1285.67 914.424C1280.67 916.96 1275.88 920.534 1271.48 924.903C1271.48 924.903 1271.49 924.842 1271.5 924.811C1273.67 917.143 1275.37 909.292 1277.16 901.594C1279 893.651 1280.96 885.708 1283.61 878.01C1285.82 871.594 1288.68 865.637 1291.68 859.772C1297.15 856.656 1302.84 856.411 1308.37 853.906C1313.21 851.707 1318.23 846.697 1318.73 839.64C1318.77 839.029 1318.02 839.151 1317.98 839.762C1317.43 847.216 1311.61 851.768 1306.66 853.601C1301.9 855.373 1297.07 855.953 1292.39 858.397C1292.75 857.694 1293.11 857.022 1293.46 856.32C1296.42 850.699 1299.32 844.955 1301.17 838.693C1302.48 834.385 1303.49 829.986 1304.42 825.587C1309.45 822.288 1314.12 817.094 1317.18 810.771C1317.45 810.221 1316.81 809.824 1316.56 810.404C1313.71 816.3 1309.34 821.219 1304.7 824.396C1304.75 824.151 1304.77 823.937 1304.84 823.724C1306.99 813.154 1308.76 802.492 1310.06 791.891C1310.17 790.975 1310.28 790.028 1310.39 789.081C1310.46 788.47 1309.76 788.348 1309.69 788.959C1308.57 799.009 1306.93 809.091 1305.04 819.05C1304.03 824.365 1302.91 829.65 1301.54 834.905C1301.22 836.096 1300.9 837.287 1300.51 838.448C1298.24 836.768 1297.92 833.041 1297.47 829.803C1297.06 826.962 1296.36 824.274 1295.33 821.83C1293.3 817.003 1290.1 813.215 1286.19 811.076C1285.77 810.862 1285.4 811.748 1285.81 811.962C1289.96 814.253 1293.25 818.377 1295.19 823.693C1296.18 826.442 1296.6 829.375 1297.05 832.4C1297.48 835.241 1298.22 837.99 1300.2 839.365C1299.01 843.031 1297.57 846.544 1295.87 850.027C1292.41 857.114 1288.43 863.804 1285.39 871.197C1282.44 878.376 1280.24 885.952 1278.35 893.529C1278.18 894.17 1278.04 894.842 1277.87 895.484C1274.04 889.679 1270.04 883.539 1269.1 875.382C1268.88 873.488 1268.86 871.533 1269.02 869.547C1269.19 867.623 1269.53 865.698 1269.43 863.804C1269.27 860.291 1267.5 857.878 1265.75 855.678C1265.43 855.281 1264.91 856.045 1265.2 856.442C1266.21 857.694 1267.21 858.977 1267.92 860.597C1268.62 862.246 1268.8 864.079 1268.64 866.095C1268.5 868.081 1268.17 870.067 1268.15 872.022C1268.13 873.794 1268.3 875.535 1268.59 877.215C1269.88 884.914 1273.7 890.779 1277.42 896.37C1277.48 896.461 1277.57 896.492 1277.64 896.492C1275.28 906.268 1273.25 916.227 1270.45 925.88C1270.45 925.88 1270.44 925.941 1270.44 925.972C1270.41 926.064 1270.38 926.125 1270.37 926.216C1270.37 926.216 1270.37 926.216 1270.36 926.247C1269.79 928.233 1269.16 930.218 1268.5 932.173C1268.72 932.265 1268.97 932.326 1269.21 932.387C1269.88 930.402 1270.5 928.385 1271.11 926.369C1275.99 921.359 1281.39 917.418 1287.07 914.73C1289.96 913.355 1292.88 912.378 1295.82 911.644C1298.4 911.033 1301.26 910.117 1302.77 906.695C1303.02 906.115 1302.39 905.748 1302.14 906.329L1302.11 906.359Z" fill="#222A74"/>
<path d="M1334.31 925.575H143.901C122.221 926.674 91.869 934.709 90.1941 941.796C88.2942 949.831 120.627 952.855 145.307 953.252C199.371 954.138 253.458 955.024 307.526 955.879C312.483 955.971 317.671 956.063 321.83 956.888C333.36 959.209 328.787 965.502 317.657 968.252C306.524 971.032 291.969 971.582 278.819 973.109C265.669 974.637 252.026 978.028 252.359 982.488C252.802 988.567 276.475 990.706 295.151 991.103C372.903 992.813 451.325 992.508 529.388 990.156C562.301 989.178 599.669 988.262 623.07 995.502C629.821 997.579 634.96 1000.27 642.772 1001.92C703.219 1014.78 807.342 1006.29 874.023 1007.26C944.377 1008.3 1016.19 1009.28 1084.77 1002.99C1103.88 1001.25 1124.81 998.251 1132 992.233C1139.65 985.818 1128.49 979.097 1120.02 973.018C1111.55 966.908 1107.11 958.598 1123.41 954.138C1132.06 951.786 1144.02 951.358 1155.12 951.236C1210.59 950.686 1268.35 955.238 1320.12 948.15C1347.93 944.332 1347.35 934.098 1334.29 925.575H1334.31Z" fill="#4E5488"/>
<path d="M309.093 178.768C304.408 178.707 299.395 188.391 297.877 200.458C296.617 210.508 298.206 219.001 301.492 221.598C301.354 221.995 301.243 222.361 301.104 222.759C297.799 232.595 293.84 242.707 288.255 250.986C287.668 250.1 287.061 249.184 286.451 248.298C282.112 242.096 277.38 236.506 272.431 231.19C275.207 227.097 276.331 221.781 277.432 216.863C278.71 211.211 279.738 205.529 280.517 199.816C281.12 195.417 281.54 191.018 281.844 186.619C281.986 186.588 282.108 186.527 282.249 186.497C286.951 184.633 289.634 173.819 288.282 162.302C286.906 150.785 281.996 142.964 277.317 144.827C272.616 146.691 269.933 157.505 271.285 169.022C272.354 178.035 275.617 184.786 279.224 186.405C278.959 190.468 278.575 194.562 278.03 198.655C277.361 203.818 276.462 208.981 275.382 214.113C274.317 219.123 273.336 224.989 270.504 229.174C264.333 222.698 257.916 216.557 251.613 210.233C251.673 210.111 251.737 209.958 251.778 209.806C254.609 200.091 255.592 190.254 254.847 180.631C254.713 179.012 254.553 177.424 254.346 175.835C257.545 171.864 259.138 162.913 258.023 153.503C256.648 141.986 251.738 134.166 247.059 136.029C242.357 137.893 239.674 148.707 241.026 160.224C242.365 171.466 247.079 179.195 251.678 177.821C252.749 187.596 252.521 197.678 249.532 208.156C246.161 204.704 242.846 201.16 239.642 197.464C234.577 191.568 229.799 185.183 225.674 178.126C228.259 173.299 227.38 164.043 223.314 155.886C218.647 146.569 211.564 142.2 207.472 146.141C203.38 150.082 203.855 160.835 208.519 170.183C212.885 178.92 219.389 183.32 223.55 180.57C230.074 191.721 238.135 201.13 246.589 209.928C242.936 211.272 239.231 211.486 235.577 211.853C231.365 212.28 227.159 212.647 222.981 212.769C220.237 212.83 217.484 212.769 214.768 212.586C213.273 208.034 207.99 204.215 201.104 203.299C192.203 202.107 184.052 206.14 182.848 212.341C181.668 218.543 187.918 224.53 196.796 225.722C205.697 226.913 213.848 222.881 215.052 216.679C215.073 216.496 215.094 216.313 215.115 216.129C217.697 216.282 220.315 216.313 222.922 216.252C227.122 216.129 231.328 215.763 235.564 215.335C239.937 214.907 244.297 214.602 248.626 212.586C248.748 212.525 248.847 212.464 248.95 212.372C250.904 214.358 252.862 216.313 254.843 218.268C259.299 222.667 263.779 227.066 268.149 231.618C257.773 238.369 246.913 242.952 236.005 245.182C234.398 240.599 228.26 237.606 220.694 238.186C211.554 238.858 203.773 244.449 203.302 250.681C202.831 256.913 209.876 261.403 219.02 260.701C227.977 260.029 235.594 254.652 236.343 248.603C247.542 246.251 258.715 241.546 269.353 234.52C269.677 234.306 269.919 234.001 270.074 233.665C272.9 236.659 275.643 239.775 278.302 243.013C281.222 246.587 283.959 250.345 286.537 254.285C286.438 254.347 286.316 254.408 286.21 254.53C279.265 260.854 271.84 265.955 264.116 269.682C262.093 270.66 259.986 271.576 257.862 272.432C255.383 268.827 249.156 267.391 242.016 269.255C232.837 271.637 225.572 278.542 225.808 284.621C226.018 290.731 233.651 293.725 242.83 291.342C252.008 288.959 259.274 282.055 259.037 275.975C259.032 275.823 259.007 275.639 259.002 275.487C260.713 274.815 262.412 274.051 264.065 273.287C272.31 269.438 280.237 263.97 287.619 257.249C287.824 257.065 287.964 256.852 288.081 256.638C291.747 262.503 295.067 268.766 298.072 275.364C298.639 276.617 299.18 277.9 299.748 279.153C299.649 279.214 299.526 279.275 299.424 279.366C295.443 282.941 291.282 286.087 286.994 288.745C284.168 285.751 278.381 284.682 271.788 286.393C262.61 288.776 255.344 295.68 255.58 301.759C255.79 307.869 263.424 310.863 272.602 308.48C281.78 306.097 289.046 299.193 288.81 293.114C288.789 292.503 288.691 291.953 288.548 291.403C292.748 288.714 296.856 285.629 300.787 282.085C300.84 282.024 300.89 281.994 300.92 281.933C305.812 293.663 309.891 306.066 313.702 318.592C314.299 320.577 316.904 319.142 316.307 317.156C312.333 304.05 308.027 291.036 302.869 278.816C305.738 274.906 308.525 270.721 310.991 266.322C311.168 266.383 311.342 266.475 311.545 266.505C316.088 267.391 321.94 258.41 324.589 246.495C327.266 234.551 325.736 224.164 321.189 223.308C316.646 222.423 310.795 231.404 308.145 243.318C306.084 252.544 306.528 260.792 308.924 264.519C306.711 268.521 304.204 272.279 301.6 275.884C298.126 267.972 294.265 260.426 289.834 253.43C289.963 253.308 290.092 253.186 290.206 253.002C296.207 244.113 300.518 233.145 303.935 222.545C303.942 222.484 303.973 222.423 304.003 222.361C308.58 221.964 313.391 212.433 314.85 200.672C316.368 188.605 313.781 178.798 309.1 178.707L309.093 178.768Z" fill="#FFCC98"/>
<path d="M509.049 582.17C510.965 575.786 517.249 572.578 521.848 574.167C526.448 575.755 529.558 580.857 531.785 586.234C535.347 594.971 537.057 604.196 538.49 614.033C540.301 604.196 542.383 594.39 544.663 584.675C546.194 578.23 547.814 571.814 549.522 565.429C539.127 561.855 530.091 553.912 523.966 542.884C521.647 538.699 519.676 533.292 521.32 527.854C523.232 521.5 529.516 518.292 534.115 519.881C538.715 521.469 541.832 526.51 544.013 531.886C547.704 540.898 549.399 550.46 550.861 560.633C556.342 540.99 562.825 521.622 570.476 502.895C561.103 497.06 553.529 487.223 549.019 474.973C547.288 470.269 546.064 464.373 548.298 459.21C550.906 453.192 557.363 451.267 561.596 453.833C565.829 456.399 568.217 462.173 569.671 468.069C572.032 477.631 572.543 487.285 572.715 497.488C580.997 477.875 590.867 458.263 603.694 442.896C603.959 442.591 604.225 442.285 604.517 441.949C595.958 434.251 589.588 422.764 586.57 409.353C585.415 404.252 584.871 398.05 587.613 393.254C590.82 387.633 597.25 386.93 601.065 390.321C604.88 393.712 606.54 400.005 607.311 406.237C608.678 417.235 607.868 427.958 606.778 439.322C621.898 422.031 639.137 407.887 653.861 390.046C645.072 382.348 638.559 370.709 635.454 357.053C634.299 351.951 633.754 345.75 636.497 340.954C639.704 335.333 646.133 334.63 649.948 338.021C653.763 341.412 655.424 347.705 656.195 353.937C657.595 365.24 656.708 376.238 655.555 387.938C659.185 383.417 662.641 378.621 665.86 373.489C672.384 363.071 677.346 351.249 680.835 338.846C670.168 334.844 661.01 326.168 655.05 314.315C652.886 309.977 651.094 304.417 652.892 299.04C655.004 292.747 661.341 289.875 665.839 291.739C670.365 293.572 673.273 298.826 675.298 304.356C678.999 314.467 680.267 325.129 681.473 336.524C686.796 316.453 688.296 295.038 686.32 275.823C677.221 270.599 669.679 261.678 664.871 250.406C662.939 245.854 661.444 240.111 663.507 234.826C665.904 228.655 672.295 226.302 676.679 228.563C681.043 230.793 683.686 236.353 685.391 242.066C688.124 251.2 689.055 260.609 689.652 270.507C689.827 270.782 689.949 271.118 689.988 271.576C691.963 287.828 691.271 305.058 688.381 322.013C687.74 325.74 687.005 329.498 686.157 333.225C692.685 321.585 701.412 311.81 711.128 305.394C715.163 302.737 719.982 300.659 723.429 303.256C727.451 306.25 727.441 314.651 724.489 320.455C721.537 326.259 716.568 329.834 711.687 332.247C702.612 336.707 693.963 337.899 684.754 338.968C682.721 346.758 680.181 354.365 676.882 361.574C671.888 372.48 665.632 381.981 658.712 390.657C668.39 382.989 679.313 378.651 689.853 378.407C694.073 378.315 698.75 379.232 700.682 383.784C702.917 389.099 699.955 397.164 695.493 400.922C691.028 404.71 685.688 405.138 680.867 404.466C671.605 403.213 663.963 398.906 655.789 394.231C644.115 408.192 630.832 420.168 618.574 432.815C614.709 436.787 610.944 440.88 607.341 445.157C617.582 436.206 629.492 431.104 640.936 430.799C645.159 430.677 649.837 431.593 651.765 436.176C654.022 441.491 651.061 449.556 646.595 453.344C642.13 457.132 636.79 457.56 631.965 456.919C622.5 455.635 614.712 451.206 606.322 446.41C602.519 451.023 598.889 455.941 595.58 461.257C589.479 471.002 584.163 481.511 579.306 492.233C578.006 495.105 576.775 497.977 575.541 500.879C584.331 491.745 594.719 485.482 605.182 483.13C609.458 482.152 614.296 482.091 616.775 486.093C619.682 490.767 617.628 499.138 613.556 503.689C609.485 508.241 604.136 509.738 599.171 510.105C590.011 510.746 582.004 508.394 573.534 505.675C566.071 523.974 559.791 542.976 554.479 562.161C561.909 550.277 571.708 540.776 582.31 535.247C586.449 533.078 591.339 531.581 594.526 534.636C598.254 538.18 597.615 546.642 594.285 552.141C590.955 557.639 585.826 560.603 580.856 562.405C571.464 565.827 562.767 565.857 553.485 565.766C552.799 568.301 552.11 570.867 551.447 573.403C547.816 587.425 544.65 601.6 542.076 615.836C549.434 604.38 558.983 595.246 569.318 589.838C573.457 587.669 578.346 586.172 581.533 589.227C585.261 592.771 584.623 601.233 581.292 606.732C577.962 612.231 572.834 615.194 567.863 616.997C558.739 620.296 550.257 620.449 541.248 620.388C538.462 636.64 536.447 652.984 535.458 669.205C535.248 672.596 531.274 672.749 531.484 669.358C532.494 652.953 534.546 636.487 537.377 620.052C526.939 616.447 517.868 608.412 511.685 597.292C509.346 593.077 507.379 587.639 509.026 582.17H509.049Z" fill="#FFCC98"/>
<path d="M171.361 945.584C176.672 943.232 184.653 938.68 196.175 926.033C203.222 918.243 213.024 907.52 221.519 889.649C221.884 888.885 222.549 887.51 223.311 885.708C223.345 885.616 223.401 885.525 223.435 885.433C223.522 885.28 223.589 885.097 223.676 884.944C223.954 884.333 224.212 883.692 224.543 883.02C230.294 869.364 240.849 839.701 233.208 817.186C232.785 815.872 227.134 799.59 219.438 801.484C209.809 803.989 203.794 832.98 199.567 832.338C197.444 832.002 198.378 824.762 197.201 816.483C194.747 797.818 182.646 778.45 169.403 781.566C163.122 782.971 156.378 789.539 153.099 798.154C147.659 812.115 157.419 827.481 156.229 828.611C154.465 830.139 143.76 793.022 125.526 794.549C119.134 795.129 111.286 800.506 108.987 807.624C105.637 818.041 115.867 827.787 113.246 832.125C110.479 836.737 99.6539 825.19 82.8757 829.436C78.6271 830.567 68.6225 833.133 63.5351 843.458C59.0711 852.379 59.3919 864.262 63.623 871.197C67.5501 877.582 73.8114 878.132 75.5294 878.193C86.7111 878.957 91.9528 867.501 110.514 860.78C116.978 858.397 124.256 856.931 124.87 859.558C125.238 861.543 121.496 864.049 118.287 871.075C118.201 871.228 118.11 871.411 117.979 871.747C117.014 873.916 113.635 881.614 114.952 888.885C114.959 889.221 116.534 897.042 121.203 897.836C123.611 898.294 125.85 896.645 126.825 895.972C136.674 889.007 150.018 884.028 150.692 885.952C151.52 888.121 135.587 899.15 136.102 907.581C136.531 914.577 148.043 915.86 149.521 916.013C161.914 917.235 173.395 908.498 173.628 909.659C173.813 910.636 163.842 914.699 157.294 926.308C154.231 931.685 150.232 941.552 152.661 946.379C155.596 952.397 166.615 947.631 171.266 945.615L171.361 945.584Z" fill="#FFCC98"/>
<path d="M160.776 901.502C160.641 898.508 162.722 896.033 164.66 894.598C167.104 892.765 169.775 891.757 172.402 891.115C177.941 889.771 183.629 890.107 189.076 887.174C191.826 885.677 194.416 883.386 196.241 880.148C188.505 876.451 181.241 871.472 174.102 866.401C171.424 864.507 168.773 862.582 166.068 860.719C157.301 861.941 150.531 872.694 142.017 875.688C139.763 876.482 137.468 876.635 135.372 875.871C135.018 875.749 135.291 874.985 135.641 875.138C139.66 876.574 144.148 874.374 148.04 871.564C151.905 868.784 155.456 865.148 159.431 862.613C161.294 861.421 163.237 860.535 165.192 860.138C157.912 855.098 150.424 850.454 142.301 847.521C132.455 843.978 121.535 842.939 110.804 847.002C109.456 847.521 108.123 848.102 106.803 848.774C106.437 848.957 106.242 848.254 106.609 848.071C116.82 842.939 127.478 842.664 137.284 845.169C138.96 845.597 140.601 846.116 142.213 846.696C142.174 846.635 142.162 846.544 142.172 846.452C143.074 839.487 138.843 835.118 135.097 832.124C133.058 830.475 130.912 828.947 129.133 826.839C127.657 825.098 126.306 822.868 126.298 819.966C126.286 819.477 126.905 819.294 126.891 819.813C126.911 823.204 128.881 825.648 130.695 827.45C132.673 829.436 134.917 830.902 136.985 832.705C140.39 835.668 143.564 840.22 142.744 846.483C142.719 846.696 142.593 846.788 142.475 846.819C151.594 850.087 159.955 855.525 168.097 861.268C172.604 864.446 177.077 867.714 181.644 870.769C184.748 862.674 185.42 853.326 183.657 845.536C182.702 841.289 180.915 837.868 178.655 834.752C176.216 831.391 173.443 828.336 171.745 824.151C170.062 820.027 169.544 814.589 171.711 809.793C171.926 809.335 172.449 809.579 172.235 810.037C170.064 814.864 170.723 820.271 172.532 824.304C174.395 828.459 177.241 831.483 179.665 834.966C181.778 837.959 183.381 841.381 184.266 845.444C185.091 849.232 185.328 853.326 185.056 857.45C184.75 862.063 183.789 866.767 182.111 871.105C187.681 874.832 193.379 878.254 199.433 880.789C203.62 882.561 208.018 883.905 212.536 884.608C208.73 873.824 213.942 860.444 213.772 848.652C213.713 845.2 213.203 841.87 211.916 839.09C211.732 838.693 212.229 838.173 212.413 838.57C217.128 848.865 212.034 862.613 211.79 874.405C211.72 877.979 212.077 881.431 213.175 884.455C213.21 884.547 213.2 884.639 213.17 884.7C216.586 885.189 220.068 885.311 223.584 884.944C223.493 885.127 223.43 885.28 223.343 885.433C223.332 885.525 223.252 885.616 223.219 885.708C217.214 886.319 211.28 885.525 205.587 883.844C202.542 882.928 199.595 881.767 196.715 880.423C193.703 885.952 188.745 888.641 184.075 889.832C178.671 891.207 173.206 890.932 167.851 893.467C165.389 894.659 161.085 897.256 161.299 901.349C161.335 901.838 160.715 902.021 160.707 901.502H160.776Z" fill="#C76A0B"/>
<path d="M1204.43 923.559C1206.72 926.216 1210.58 929.852 1218.55 932.54C1223.44 934.159 1230.23 936.481 1239.52 934.923C1239.92 934.862 1240.62 934.74 1241.55 934.526C1241.59 934.526 1241.64 934.526 1241.68 934.526C1241.78 934.526 1241.84 934.526 1241.94 934.495C1242.25 934.434 1242.58 934.342 1242.93 934.312C1249.84 932.601 1264.39 927.591 1271.44 913.019C1271.86 912.194 1276.94 901.532 1274.22 897.011C1270.78 891.421 1257.67 899.272 1256.84 896.125C1256.43 894.506 1259.56 892.154 1262.58 887.938C1269.4 878.498 1274.09 862.154 1269.47 854.334C1267.31 850.607 1262.98 848.682 1258.71 849.996C1251.75 852.043 1248.1 865.118 1247.33 864.751C1246.27 864.171 1258.39 841.412 1253.13 829.497C1251.27 825.343 1247.13 822.166 1243.71 823.51C1238.69 825.526 1237.4 836.585 1235.01 836.585C1232.46 836.585 1234.32 824.365 1228.37 814.559C1226.84 812.084 1223.28 806.28 1217.86 807.044C1213.17 807.655 1208.49 812.817 1206.79 818.591C1205.25 823.937 1206.6 828.489 1207.01 829.711C1209.56 837.715 1215.46 836.585 1222.86 846.574C1225.44 850.057 1227.88 854.426 1226.99 855.953C1226.29 857.022 1224.33 855.495 1220.7 856.197C1220.63 856.197 1220.52 856.197 1220.35 856.259C1219.24 856.503 1215.3 857.358 1212.73 861.269C1212.6 861.421 1209.89 865.729 1210.74 869.272C1211.17 871.105 1212.41 871.961 1212.91 872.389C1218.19 876.268 1223.59 883.417 1222.98 884.669C1222.33 886.136 1213.87 879.751 1210.62 883.6C1207.92 886.808 1210.35 895.239 1210.65 896.339C1213.31 905.382 1219.73 909.659 1219.34 910.3C1219 910.819 1214.84 905.657 1208.52 905.962C1205.59 906.084 1200.65 907.429 1199.33 911.094C1197.68 915.585 1202.38 921.237 1204.36 923.589L1204.43 923.559Z" fill="#FFCC98"/>
<path d="M1219.36 898.019C1220.53 896.675 1222.04 897.103 1223.11 897.836C1224.45 898.752 1225.55 900.188 1226.48 901.716C1228.42 904.954 1229.74 909.017 1232.3 911.553C1233.6 912.836 1235.16 913.66 1236.92 913.569C1236.43 906.726 1236.56 899.638 1236.78 892.643C1236.85 890.015 1236.95 887.388 1237 884.761C1234.29 879.231 1228.26 879.018 1224.91 874.405C1224.02 873.183 1223.39 871.655 1223.16 869.914C1223.12 869.608 1223.48 869.486 1223.52 869.792C1223.95 873.152 1225.98 875.321 1228.1 876.849C1230.2 878.345 1232.55 879.293 1234.57 880.973C1235.51 881.767 1236.36 882.745 1237.03 883.905C1237.19 876.818 1237.16 869.731 1236.25 862.918C1235.16 854.67 1232.8 846.727 1228.45 841.014C1227.91 840.312 1227.32 839.64 1226.73 838.998C1226.56 838.815 1226.8 838.387 1226.96 838.57C1231.61 843.489 1234.43 850.698 1235.92 858.488C1236.18 859.802 1236.39 861.146 1236.55 862.521C1236.56 862.46 1236.58 862.429 1236.64 862.368C1239.66 860.108 1240.33 855.372 1240.56 851.554C1240.69 849.476 1240.77 847.369 1241.16 845.261C1241.47 843.519 1242.01 841.656 1243.19 840.464C1243.39 840.251 1243.61 840.587 1243.4 840.8C1242.04 842.206 1241.58 844.589 1241.33 846.574C1241.05 848.743 1241.03 850.912 1240.82 853.081C1240.5 856.655 1239.5 860.719 1236.78 862.765C1236.7 862.826 1236.61 862.765 1236.57 862.735C1237.57 870.372 1237.54 878.376 1237.32 886.349C1237.2 890.779 1237.03 895.209 1236.98 899.608C1241.01 898.386 1244.9 894.995 1247.58 890.535C1249.03 888.121 1249.96 885.463 1250.61 882.622C1251.34 879.537 1251.85 876.36 1253.11 873.458C1254.34 870.586 1256.36 867.989 1258.84 867.5C1259.07 867.439 1259.11 867.928 1258.87 867.959C1256.38 868.448 1254.41 871.166 1253.24 874.069C1252.07 877.062 1251.58 880.27 1250.8 883.386C1250.14 886.074 1249.18 888.61 1247.79 890.901C1246.48 893.04 1244.91 894.903 1243.19 896.431C1241.27 898.141 1239.14 899.424 1236.97 900.066C1236.9 905.443 1236.99 910.789 1237.51 916.013C1237.87 919.648 1238.44 923.222 1239.31 926.613C1242.64 919.526 1249.31 917.571 1253.99 912.561C1255.36 911.094 1256.55 909.353 1257.34 907.306C1257.44 907.001 1257.79 907.153 1257.67 907.428C1254.75 914.943 1247.96 917.143 1243.18 921.848C1241.73 923.253 1240.45 924.933 1239.52 926.98C1239.52 927.041 1239.47 927.072 1239.42 927.072C1240.09 929.638 1240.93 932.082 1241.98 934.342C1241.89 934.342 1241.79 934.373 1241.72 934.373C1241.68 934.373 1241.63 934.373 1241.59 934.373C1239.83 930.493 1238.62 926.063 1237.84 921.481C1237.44 919.007 1237.15 916.501 1236.94 913.966C1233.97 914.18 1231.62 911.889 1229.98 909.17C1228.07 906.023 1226.77 902.143 1224.41 899.516C1223.31 898.294 1221.18 896.431 1219.59 898.264C1219.4 898.477 1219.19 898.141 1219.37 897.928L1219.36 898.019Z" fill="#C76A0B"/>
<path d="M639.479 88.1282H545.474C542.73 88.1282 540.163 91.0825 539.739 94.7268L530.198 176.813C529.774 180.457 531.655 183.411 534.399 183.411H628.404C631.148 183.411 633.715 180.457 634.139 176.813L643.68 94.7268C644.104 91.0825 642.223 88.1282 639.479 88.1282Z" fill="#C76A0B"/>
<path d="M639.913 88.159C639.999 88.8005 639.99 89.4726 639.908 90.1752L630.367 172.261C629.944 175.896 627.369 178.86 624.632 178.86H530.627C530.466 178.86 530.328 178.86 530.171 178.829C530.506 181.487 532.145 183.412 534.353 183.412H628.358C631.095 183.412 633.671 180.448 634.093 176.813L643.634 94.7271C644.036 91.275 642.384 88.4645 639.89 88.159H639.913Z" fill="#904D08"/>
<path d="M542.2 161.019L565.509 125.918C566.76 124.054 568.869 124.115 569.589 126.04L582.098 159.308C582.869 161.385 585.203 161.294 586.375 159.125L591.064 150.449C592.266 148.218 594.704 148.218 595.411 150.449L597.683 157.811C598.438 160.224 601.157 159.98 602.218 157.383L614.19 128.392C615.375 125.52 618.446 125.612 618.842 128.545L623.478 161.874C623.781 164.012 622.326 166.243 620.601 166.243H543.571C541.524 166.243 540.706 163.188 542.158 160.988L542.2 161.019Z" fill="white"/>
<path d="M585.151 114.248C585.773 108.902 589.516 104.594 593.541 104.594C597.567 104.594 600.309 108.902 599.688 114.248C599.066 119.594 595.299 123.901 591.297 123.901C587.295 123.901 584.53 119.594 585.151 114.248Z" fill="white"/>
<path d="M570.246 110.093C570.108 110.093 569.97 110.093 569.848 110.154C569.862 110.032 569.88 109.879 569.894 109.757C570.143 107.619 569.054 105.908 567.444 105.908C566.087 105.908 564.791 107.161 564.297 108.841C564.04 108.474 563.655 108.23 563.195 108.23C562.574 108.23 561.968 108.688 561.591 109.36C561.333 109.207 561.022 109.116 560.677 109.116C559.365 109.116 558.144 110.521 557.942 112.262C557.739 114.004 558.634 115.409 559.945 115.409C560.497 115.409 561.032 115.164 561.495 114.737C562.178 115.592 563.398 116.173 564.87 116.173C566.251 116.173 567.526 115.684 568.401 114.889C568.703 115.256 569.135 115.5 569.618 115.5C570.745 115.5 571.78 114.309 571.954 112.812C572.128 111.315 571.37 110.124 570.243 110.124L570.246 110.093Z" fill="white"/>
<path d="M620.733 110.093C620.595 110.093 620.457 110.093 620.335 110.154C620.349 110.032 620.367 109.879 620.381 109.757C620.63 107.619 619.541 105.908 617.931 105.908C616.574 105.908 615.278 107.161 614.784 108.841C614.527 108.474 614.142 108.23 613.682 108.23C613.061 108.23 612.455 108.688 612.078 109.36C611.82 109.207 611.508 109.116 611.163 109.116C609.852 109.116 608.631 110.521 608.429 112.262C608.226 114.004 609.121 115.409 610.432 115.409C610.984 115.409 611.518 115.164 611.982 114.737C612.665 115.592 613.885 116.173 615.357 116.173C616.737 116.173 618.013 115.684 618.888 114.889C619.19 115.256 619.622 115.5 620.105 115.5C621.232 115.5 622.267 114.309 622.441 112.812C622.615 111.315 621.857 110.124 620.73 110.124L620.733 110.093Z" fill="white"/>
<path d="M415.808 170.336C415.716 166.579 418.024 162.943 420.932 162.271C423.842 161.568 426.288 164.073 426.358 167.831C426.45 171.589 424.141 175.224 421.234 175.896C418.323 176.599 415.877 174.094 415.808 170.336Z" fill="#8C91BE"/>
<path d="M433.118 159.339C432.552 159.461 431.982 159.216 431.662 158.605C431.529 158.361 428.177 152.373 420.726 154.145C413.202 155.948 409.846 163.249 409.719 163.554C409.223 164.654 408.2 165.143 407.448 164.685C406.677 164.196 406.455 162.943 406.928 161.844C407.112 161.447 411.277 152.129 420.644 149.899C430.062 147.638 434.305 155.459 434.496 155.795C434.964 156.711 434.735 158.086 433.957 158.85C433.698 159.094 433.424 159.278 433.141 159.339H433.118Z" fill="#8C91BE"/>
<path d="M439.154 147.974C438.588 148.096 438.018 147.852 437.698 147.241C437.491 146.844 432.224 137.343 420.486 140.184C408.655 143.025 403.433 154.511 403.215 155C402.719 156.1 401.719 156.589 400.944 156.131C400.173 155.642 399.951 154.389 400.424 153.29C400.675 152.709 406.753 139.206 420.381 135.938C434.102 132.669 440.263 143.972 440.505 144.461C440.974 145.377 440.749 146.721 439.966 147.516C439.708 147.76 439.434 147.943 439.15 148.005L439.154 147.974Z" fill="#8C91BE"/>
<path d="M443.571 137.282C443.005 137.404 442.435 137.16 442.115 136.549C441.853 136.029 435.183 123.962 420.277 127.537C405.279 131.111 398.659 145.713 398.404 146.324C397.908 147.424 396.908 147.913 396.134 147.455C395.359 146.996 395.117 145.713 395.613 144.614C395.924 143.911 403.376 127.292 420.195 123.29C437.087 119.258 444.629 133.127 444.949 133.738C445.417 134.655 445.189 136.029 444.41 136.793C444.151 137.037 443.877 137.221 443.594 137.282H443.571Z" fill="#8C91BE"/>
<path d="M449.281 126.743C448.715 126.865 448.145 126.62 447.825 126.009C447.486 125.368 439.017 109.971 420.018 114.523C400.973 119.075 392.284 138.229 392.217 138.412C391.721 139.512 390.721 140.001 389.946 139.543C389.171 139.084 388.929 137.801 389.425 136.702C389.804 135.816 399.048 115.256 419.94 110.246C440.902 105.236 450.265 122.435 450.64 123.168C451.108 124.085 450.883 125.429 450.101 126.223C449.842 126.468 449.568 126.651 449.285 126.712L449.281 126.743Z" fill="#8C91BE"/>
<path d="M189.416 538.943H186.104L186.931 531.825H191.324L193.904 522.294H188.062L188.893 515.146H195.839L199.238 502.529H204.689L201.29 515.146H206.672L210.025 502.529H215.683L212.262 515.146H215.62L214.789 522.294H210.327L207.747 531.825H213.658L212.831 538.943H205.815L202.417 551.56H196.989L200.341 538.943H194.936L191.537 551.56H186.04L189.439 538.943H189.416ZM199.355 522.294L196.821 531.825H202.226L204.737 522.294H199.355Z" fill="#8C91BE"/>
<path d="M575.579 263.878L501.628 900.097C500.119 913.08 490.962 923.589 481.187 923.589H229.741C219.966 923.589 213.275 913.08 214.784 900.097L288.735 263.878C290.244 250.895 299.381 240.355 309.156 240.355H560.603C570.378 240.355 577.088 250.895 575.579 263.878Z" fill="#171C47"/>
<path d="M321.355 343.184C331.416 343.184 340.831 332.352 342.384 318.989C343.937 305.627 337.041 294.794 326.98 294.794C316.919 294.794 307.504 305.627 305.951 318.989C304.398 332.352 311.294 343.184 321.355 343.184Z" fill="#FFCC98"/>
<path d="M338.453 327.084C335.108 335.088 328.536 340.77 321.636 340.77C314.735 340.77 309.872 335.516 308.199 327.94L314.255 315.812L321.601 335.333L326.286 326.687L328.961 335.333L337.412 314.865L338.476 327.084H338.453Z" fill="white"/>
<path d="M324.564 313.398C324.852 310.924 326.608 308.877 328.494 308.877C330.38 308.877 331.664 310.893 331.373 313.398C331.081 315.904 329.329 317.92 327.443 317.92C325.557 317.92 324.273 315.904 324.564 313.398Z" fill="white"/>
<path d="M372.716 343.184C382.777 343.184 392.192 332.352 393.745 318.989C395.298 305.627 388.402 294.794 378.341 294.794C368.28 294.794 358.865 305.627 357.312 318.989C355.759 332.352 362.655 343.184 372.716 343.184Z" fill="#8C91BE"/>
<path d="M389.814 327.084C386.469 335.088 379.897 340.77 372.997 340.77C366.096 340.77 361.233 335.516 359.56 327.94L365.616 315.812L372.962 335.333L377.647 326.687L380.322 335.333L388.773 314.865L389.837 327.084H389.814Z" fill="white"/>
<path d="M375.925 313.398C376.213 310.924 377.969 308.877 379.855 308.877C381.741 308.877 383.025 310.893 382.734 313.398C382.442 315.904 380.69 317.92 378.804 317.92C376.918 317.92 375.634 315.904 375.925 313.398Z" fill="white"/>
<path d="M425.365 343.184C435.426 343.184 444.841 332.352 446.394 318.989C447.948 305.627 441.051 294.794 430.99 294.794C420.929 294.794 411.514 305.627 409.961 318.989C408.408 332.352 415.305 343.184 425.365 343.184Z" fill="#FAC6D3"/>
<path d="M442.44 327.084C439.095 335.088 432.523 340.77 425.623 340.77C418.722 340.77 413.859 335.516 412.187 327.94L418.242 315.812L425.588 335.333L430.273 326.687L432.948 335.333L441.399 314.865L442.463 327.084H442.44Z" fill="white"/>
<path d="M428.551 313.398C428.839 310.924 430.595 308.877 432.481 308.877C434.367 308.877 435.651 310.893 435.36 313.398C435.068 315.904 433.316 317.92 431.43 317.92C429.544 317.92 428.26 315.904 428.551 313.398Z" fill="white"/>
<path d="M477.992 343.184C488.052 343.184 497.467 332.352 499.021 318.989C500.574 305.627 493.677 294.794 483.616 294.794C473.555 294.794 464.14 305.627 462.587 318.989C461.034 332.352 467.931 343.184 477.992 343.184Z" fill="#8C91BE"/>
<path d="M495.066 327.084C491.721 335.088 485.149 340.77 478.249 340.77C471.349 340.77 466.485 335.516 464.813 327.94L470.869 315.812L478.214 335.333L482.899 326.687L485.574 335.333L494.026 314.865L495.089 327.084H495.066Z" fill="white"/>
<path d="M481.177 313.398C481.465 310.924 483.221 308.877 485.107 308.877C486.993 308.877 488.277 310.893 487.986 313.398C487.695 315.904 485.942 317.92 484.056 317.92C482.17 317.92 480.886 315.904 481.177 313.398Z" fill="white"/>
<path d="M528.042 343.184C538.102 343.184 547.517 332.352 549.071 318.989C550.624 305.627 543.727 294.794 533.666 294.794C523.605 294.794 514.19 305.627 512.637 318.989C511.084 332.352 517.981 343.184 528.042 343.184Z" fill="#FFCC98"/>
<path d="M545.139 327.084C541.794 335.088 535.222 340.77 528.322 340.77C521.422 340.77 516.558 335.516 514.886 327.94L520.942 315.812L528.287 335.333L532.972 326.687L535.647 335.333L544.099 314.865L545.162 327.084H545.139Z" fill="white"/>
<path d="M531.251 313.398C531.538 310.924 533.294 308.877 535.18 308.877C537.066 308.877 538.35 310.893 538.059 313.398C537.768 315.904 536.015 317.92 534.129 317.92C532.243 317.92 530.959 315.904 531.251 313.398Z" fill="white"/>
<path d="M275.631 713.41H260.68C259.69 713.41 258.762 714.477 258.609 715.793L256.301 735.65C256.148 736.966 256.828 738.033 257.818 738.033H272.769C273.76 738.033 274.687 736.966 274.84 735.65L277.148 715.793C277.301 714.477 276.622 713.41 275.631 713.41Z" fill="#8C91BE"/>
<path d="M273.589 722.667C273.11 721.048 271.543 719.887 269.839 720.498C268.016 721.139 267.072 723.522 266.948 723.797C266.938 723.889 266.924 724.011 266.913 724.102L266.948 723.797C266.911 723.522 266.498 721.139 264.825 720.498C263.259 719.917 261.426 721.048 260.571 722.667C259.007 725.63 261.154 729.326 261.38 729.754C262.837 732.259 265.091 732.656 265.908 732.748H265.954C265.954 732.748 266 732.748 266.023 732.748C266.865 732.626 269.127 732.167 271.086 729.754C271.435 729.326 274.437 725.66 273.543 722.667H273.589Z" fill="white"/>
<path d="M311.072 714.235H296.351C295.297 714.235 294.31 715.37 294.147 716.771L291.875 736.322C291.712 737.723 292.435 738.858 293.489 738.858H308.21C309.264 738.858 310.251 737.723 310.413 736.322L312.686 716.771C312.849 715.37 312.126 714.235 311.072 714.235Z" fill="#8C91BE"/>
<path d="M300.696 732.259H299.086C297.499 732.259 296.41 730.549 296.655 728.441C296.9 726.333 298.387 724.622 299.974 724.622H301.584L300.693 732.29L300.696 732.259Z" fill="white"/>
<path d="M301.584 724.622C301.584 724.622 302.825 723.247 303.25 721.964C303.672 720.712 304.138 718.879 304.842 719.154C305.549 719.398 305.459 722.942 304.367 724.622C304.367 724.622 307.34 723.583 307.991 724.714C308.602 725.783 307.963 731.679 307.163 732.626C306.097 733.878 300.693 732.29 300.693 732.29L301.584 724.622Z" fill="white"/>
<path d="M301.638 724.164H300.878L299.937 732.259H300.697L301.638 724.164Z" fill="#BDC4FF"/>
<path d="M365.439 766.535H255.012C253.746 766.535 252.871 765.161 253.067 763.48C253.262 761.8 254.457 760.426 255.722 760.426H366.149C367.414 760.426 368.289 761.8 368.094 763.48C367.899 765.161 366.704 766.535 365.439 766.535Z" fill="#8C91BE"/>
<path d="M443.807 787.278H252.6C251.335 787.278 250.46 785.904 250.655 784.224C250.851 782.543 252.046 781.169 253.311 781.169H444.517C445.782 781.169 446.658 782.543 446.462 784.224C446.267 785.904 445.072 787.278 443.807 787.278Z" fill="#8C91BE"/>
<path d="M414.385 766.535H380.55C379.285 766.535 378.41 765.161 378.605 763.48C378.801 761.8 379.996 760.426 381.261 760.426H415.095C416.36 760.426 417.235 761.8 417.04 763.48C416.845 765.161 415.65 766.535 414.385 766.535Z" fill="#8C91BE"/>
<path d="M440.014 891.94H246.714C241.976 891.94 238.728 886.838 239.459 880.545C240.191 874.252 244.625 869.15 249.363 869.15H442.663C447.401 869.15 450.649 874.252 449.918 880.545C449.186 886.838 444.752 891.94 440.014 891.94Z" fill="#8C91BE"/>
<path d="M487.481 887.449L482.548 883.784L481.336 882.531C481.336 882.531 481.209 882.439 481.147 882.378C481.919 880.881 482.421 879.14 482.542 877.307C482.839 872.572 480.381 868.784 476.871 868.509C472.632 868.173 468.539 872.908 468.155 878.59C467.845 883.234 470.188 887.022 473.638 887.419C475.568 887.633 477.458 886.808 479.012 885.311L484.742 892.215C485.639 893.009 486.996 892.612 487.747 891.299C488.497 889.985 488.401 888.244 487.504 887.449H487.481ZM474.568 884.761C471.762 884.761 469.817 881.706 470.25 877.979C470.683 874.252 473.338 871.197 476.144 871.197C478.951 871.197 480.896 874.252 480.462 877.979C480.029 881.706 477.374 884.761 474.568 884.761Z" fill="#8C91BE"/>
<path d="M255.789 804.172C251.948 804.172 248.363 808.296 247.77 813.398C247.564 815.17 247.741 816.819 248.244 818.225L246.139 823.082L250.676 821.646C251.525 822.257 252.544 822.593 253.648 822.593C257.489 822.593 261.073 818.469 261.666 813.367C262.259 808.266 259.634 804.141 255.793 804.141L255.789 804.172Z" fill="#8C91BE"/>
<path d="M404.953 808.693H274.745C273.963 808.693 273.419 807.838 273.539 806.799C273.66 805.761 274.403 804.905 275.185 804.905H405.394C406.176 804.905 406.72 805.761 406.6 806.799C406.479 807.838 405.735 808.693 404.953 808.693Z" fill="#8C91BE"/>
<path d="M326.18 819.538H273.485C272.703 819.538 272.158 818.683 272.279 817.644C272.4 816.606 273.143 815.75 273.925 815.75H326.62C327.402 815.75 327.947 816.606 327.826 817.644C327.705 818.683 326.962 819.538 326.18 819.538Z" fill="#8C91BE"/>
<path d="M350.883 819.538H335.242C334.46 819.538 333.916 818.683 334.036 817.644C334.157 816.606 334.9 815.75 335.683 815.75H351.323C352.105 815.75 352.65 816.606 352.529 817.644C352.408 818.683 351.665 819.538 350.883 819.538Z" fill="#8C91BE"/>
<path d="M252.291 834.263C248.45 834.263 244.866 838.387 244.273 843.489C244.067 845.261 244.243 846.911 244.747 848.316L242.641 853.173L247.178 851.737C248.027 852.348 249.046 852.684 250.15 852.684C253.991 852.684 257.576 848.56 258.169 843.459C258.762 838.357 256.136 834.233 252.295 834.233L252.291 834.263Z" fill="#8C91BE"/>
<path d="M401.452 838.815H271.244C270.462 838.815 269.917 837.96 270.038 836.921C270.159 835.882 270.902 835.027 271.684 835.027H401.892C402.674 835.027 403.219 835.882 403.098 836.921C402.978 837.96 402.234 838.815 401.452 838.815Z" fill="#8C91BE"/>
<path d="M322.679 849.66H269.984C269.202 849.66 268.657 848.805 268.778 847.766C268.898 846.727 269.642 845.872 270.424 845.872H323.119C323.901 845.872 324.446 846.727 324.325 847.766C324.204 848.805 323.461 849.66 322.679 849.66Z" fill="#8C91BE"/>
<path d="M347.382 849.66H331.741C330.959 849.66 330.414 848.805 330.535 847.766C330.656 846.727 331.399 845.872 332.181 845.872H347.822C348.604 845.872 349.149 846.727 349.028 847.766C348.907 848.805 348.164 849.66 347.382 849.66Z" fill="#8C91BE"/>
<path d="M335.423 352.563H306.142C305.682 352.563 305.394 352.074 305.465 351.463C305.536 350.852 305.957 350.394 306.395 350.394H335.675C336.135 350.394 336.446 350.882 336.378 351.463C336.307 352.074 335.883 352.563 335.423 352.563Z" fill="#FFCC98"/>
<path d="M385.588 352.563H356.307C355.847 352.563 355.559 352.074 355.63 351.463C355.701 350.852 356.123 350.394 356.56 350.394H385.84C386.3 350.394 386.611 350.882 386.543 351.463C386.472 352.074 386.048 352.563 385.588 352.563Z" fill="#8C91BE"/>
<path d="M437.409 352.563H408.129C407.669 352.563 407.357 352.074 407.428 351.463C407.499 350.852 407.921 350.394 408.381 350.394H437.661C438.121 350.394 438.409 350.882 438.342 351.463C438.271 352.074 437.846 352.563 437.409 352.563Z" fill="#FAC6D3"/>
<path d="M491.829 352.563H462.549C462.089 352.563 461.801 352.074 461.872 351.463C461.943 350.852 462.364 350.394 462.801 350.394H492.081C492.541 350.394 492.852 350.882 492.785 351.463C492.714 352.074 492.289 352.563 491.829 352.563Z" fill="#8C91BE"/>
<path d="M542.109 352.563H512.829C512.369 352.563 512.081 352.074 512.152 351.463C512.223 350.852 512.644 350.394 513.081 350.394H542.361C542.821 350.394 543.109 350.882 543.042 351.463C542.971 352.074 542.546 352.563 542.109 352.563Z" fill="#FFCC98"/>
<path d="M574.996 221.201H298.916C288.727 221.201 279.14 232.443 277.524 246.343L199.618 916.593C198.002 930.493 204.949 941.766 215.162 941.766H491.242C501.431 941.766 511.022 930.493 512.637 916.593L590.544 246.343C592.159 232.443 585.209 221.201 574.996 221.201ZM501.628 900.097C500.119 913.08 490.985 923.589 481.21 923.589H229.741C219.966 923.589 213.275 913.08 214.784 900.097L288.734 263.878C290.244 250.895 299.404 240.355 309.179 240.355H408.704C409.992 240.355 410.868 241.73 410.738 243.441C409.339 260.029 418.323 273.562 431.066 273.562C443.808 273.562 455.908 260.09 458.373 243.441C458.618 241.73 459.812 240.355 461.123 240.355H560.648C570.424 240.355 577.134 250.895 575.625 263.878L501.674 900.097H501.628Z" fill="#222A74"/>
<path d="M426.515 246.618C427.169 240.997 431.121 236.475 435.331 236.475C439.54 236.475 442.438 241.027 441.788 246.618C441.138 252.208 437.182 256.76 432.973 256.76C428.764 256.76 425.866 252.208 426.515 246.618Z" fill="white"/>
<path d="M428.493 246.618C428.976 242.463 431.923 239.072 435.052 239.072C438.18 239.072 440.339 242.463 439.856 246.618C439.373 250.772 436.426 254.163 433.297 254.163C430.169 254.163 428.01 250.772 428.493 246.618Z" fill="#8893E3"/>
<path d="M432.936 245.396C433.826 245.396 434.658 244.438 434.795 243.257C434.932 242.076 434.323 241.119 433.434 241.119C432.544 241.119 431.712 242.076 431.575 243.257C431.438 244.438 432.047 245.396 432.936 245.396Z" fill="white"/>
<path d="M527.414 381.432H311.872C303.92 381.432 296.479 389.994 295.251 400.555L263.865 670.58C262.637 681.142 268.088 689.704 276.04 689.704H491.582C499.534 689.704 506.976 681.142 508.204 670.58L539.59 400.555C540.817 389.994 535.366 381.432 527.414 381.432Z" fill="#FFCC98"/>
<path d="M449.145 281.474C450.693 285.965 451.712 290.853 452.319 295.924C452.856 300.995 452.911 306.464 451.535 311.963C450.825 314.712 449.814 317.278 448.609 319.722C447.405 322.166 446.019 324.396 444.682 326.596C443.369 328.795 442.108 330.934 441.132 333.194C440.133 335.455 439.416 337.868 438.944 340.343C438.496 342.817 438.204 345.322 438.117 347.858C438.006 350.394 438.09 352.837 438.388 355.22C438.931 360.047 440.417 364.477 441.916 368.998C443.418 373.489 444.938 378.224 445.217 383.539C445.496 388.855 444.462 394.384 442.51 399.303C443.2 396.737 443.735 394.109 444.014 391.513C444.27 388.916 444.243 386.381 443.952 383.937C443.393 379.049 441.735 374.711 440.057 370.342C438.38 365.974 436.728 361.391 436.001 356.167C435.636 353.571 435.538 350.852 435.62 348.163C435.703 345.475 435.953 342.726 436.506 339.946C437.056 337.196 437.904 334.447 439.054 331.881C440.18 329.315 441.577 326.993 442.976 324.854C445.773 320.577 448.34 316.301 449.782 311.413C451.175 306.555 451.418 301.301 451.175 296.26C450.96 291.189 450.201 286.24 449.152 281.413L449.145 281.474Z" fill="#414C96"/>
<path d="M446.957 504.117C446.248 494.586 444.243 485.513 443.224 476.073C439.069 435.84 453.038 380.759 426.472 354.243L440.695 321.525C468.929 286.79 438.152 246.434 407.358 265.986C383.962 280.863 389.601 298.246 375.8 313.887C351.16 341.84 368.01 348.255 345.614 378.071C337.234 389.222 315.725 383.509 302.419 417.449C283.588 465.473 272.722 441.614 256.508 481.175C236.088 531.001 277.204 551.072 277.863 569.737C279.013 601.997 308.5 606.152 327.077 582.476C336.014 571.081 351.555 573.525 363.128 570.134C376.532 566.224 387.625 578.627 400.748 579.91C429.528 582.232 451.025 537.783 446.961 504.087L446.957 504.117Z" fill="#414C96"/>
<path d="M329.483 673.971C354.239 612.17 361.921 578.138 348.643 523.974C330.892 451.695 367.077 406.94 367.077 406.94L397.756 390.749H422.16C449.352 404.557 484.041 416.594 448.206 522.263C425.103 590.419 440.447 625.428 454.129 673.94H329.487L329.483 673.971Z" fill="#3E3279"/>
<path d="M329.163 676.72C353.991 614.308 361.711 579.94 348.49 525.288C330.821 452.306 367.055 407.123 367.055 407.123L397.752 390.779C403.506 407.368 410.981 411.919 422.156 390.779C455.144 401.624 481.775 420.657 448.053 523.577C425.422 592.618 440.18 627.719 453.805 676.72H329.163Z" fill="white"/>
<path d="M400.214 689.582H323.943C325.663 684.48 327.512 679.256 329.487 673.941C329.703 673.269 329.949 672.535 330.234 671.863H331.062L347.301 672.658L354.963 673.024H399.562C399.569 673.36 399.583 673.635 399.613 673.971C399.644 674.888 399.699 675.804 399.73 676.721C399.923 680.997 400.093 685.274 400.21 689.612L400.214 689.582Z" fill="#FFC7C2"/>
<path d="M460.982 689.582H384.55C385.201 685.366 385.886 681.059 386.6 676.69C386.753 675.774 386.906 674.857 387.058 673.941C387.097 673.605 387.129 673.33 387.214 672.994L387.253 672.658L398.84 672.505L413.559 672.322L452.438 671.863H453.519H453.841C454.108 672.535 454.444 673.207 454.727 673.941C456.91 679.103 458.997 684.297 460.959 689.582H460.982Z" fill="#FFC7C2"/>
<path d="M461.948 689.582H323.506C325.419 683.808 327.484 677.912 329.728 671.863H454.991C457.441 677.698 459.769 683.594 461.971 689.582H461.948Z" fill="white"/>
<path d="M397.27 689.582H323.506C325.419 683.808 327.484 677.912 329.728 671.863L330.083 670.397L351.146 582.782L352.837 575.755L354.783 567.721L355.008 566.774L370.552 502.101L372.298 494.8L395.587 397.928C395.794 399.914 395.977 401.899 396.176 403.946C400.887 453.253 403.354 518.506 402.708 580.063C402.366 612.689 401.136 644.247 398.912 671.894C398.887 672.108 398.881 672.352 398.856 672.566C398.839 672.719 398.821 672.871 398.8 673.055C398.764 673.36 398.748 673.696 398.713 674.002C398.652 674.918 398.568 675.835 398.485 676.751C398.112 681.15 397.703 685.458 397.262 689.643L397.27 689.582Z" fill="#E0DDF5"/>
<path d="M583.209 443.019C583.209 443.019 581.539 448.09 578.655 456.277C566.755 490.187 533.604 578.108 506.638 590.847C486.199 600.47 446.185 523.027 446.902 514.29L451.571 407.429C474.63 449.679 495.094 491.684 505.039 532.375C519.649 499.688 542.983 475.645 558.641 445.616C560.661 441.889 562.466 438.039 564.166 434.098C564.166 434.098 562.58 406.39 568.865 398.814C574.427 392.124 573.794 413.6 576.081 410.942C578.603 408.04 590.268 381.89 594.949 393.468C605.292 419.252 583.209 443.019 583.209 443.019Z" fill="#FFC7C2"/>
<path d="M424.823 371.198L423.991 377.368L422.179 390.78C419.859 415.097 396.755 414.394 397.775 390.78L398.013 389.924L405.157 364.477L408.231 353.662C413.188 358.703 424.82 371.228 424.82 371.228L424.823 371.198Z" fill="#FFC7C2"/>
<path d="M424.891 370.617C424.701 370.862 422.712 373.336 418.348 374.466C413.77 375.658 409.633 373.061 407.469 374.466C405.377 375.841 400.015 382.99 398.103 389.344L405.247 363.896L408.321 353.082C413.279 358.123 424.91 370.648 424.91 370.648L424.891 370.617Z" fill="#F5B2AB"/>
<path d="M385.414 671.863C385.371 672.23 385.325 672.627 385.279 673.024L385.169 673.971C385.062 674.887 384.956 675.804 384.826 676.72C384.309 680.967 383.717 685.274 383.098 689.612H321.455C323.619 679.898 325.405 670.672 326.841 661.873C331.396 634.165 332.768 610.49 333.67 587.883C334.494 567.537 334.93 547.955 336.998 526.999L337.023 526.785C337.174 525.288 337.325 523.791 337.503 522.263C338.838 509.983 340.763 497.183 343.675 483.405C343.693 483.252 343.734 483.099 343.775 482.947C348.462 460.829 355.671 436.206 366.992 407.276C366.992 407.276 367.059 407.093 367.093 407.001L397.768 390.841C397.181 395.301 396.65 399.669 396.169 404.007C388.788 468.894 390.981 522.447 390.583 577.13C390.37 607.649 389.353 638.564 385.426 671.955L385.414 671.863Z" fill="#222A74"/>
<path d="M582.099 454.353C570.199 488.262 533.6 578.138 506.661 590.847C500.726 593.627 493.217 589.167 485.49 581.04C477.296 572.578 468.854 560.114 462.051 548.2C453.02 532.498 446.677 517.803 446.948 514.29L449.191 403.366C476.166 431.319 492.836 471.735 510.26 514.962C523.922 494.189 530.006 483.405 558.154 438.925C559.58 439.322 560.956 439.75 562.322 440.269C570.061 443.141 576.668 447.846 582.122 454.353H582.099Z" fill="#222A74"/>
<path d="M470.251 689.582H413.439C413.437 685.244 413.455 680.936 413.512 676.69C413.526 675.774 413.541 674.857 413.555 673.941C413.55 673.391 413.564 672.871 413.579 672.352C413.577 672.169 413.595 672.016 413.59 671.863C414.193 637.587 416.64 606.244 419.108 574.717C423.439 519.453 427.783 463.67 422.179 390.78C422.179 390.78 432.038 389.863 442.697 397.103C447.303 400.219 452.054 404.863 456.242 411.767C458.543 415.525 460.646 419.985 462.474 425.239C463.249 427.469 463.956 429.699 464.578 431.868C470.382 451.787 470.66 470.177 468.909 490.187C467.395 507.569 464.335 526.174 462.026 548.017C462.012 548.139 462.001 548.231 462.001 548.231C462.001 548.231 462.001 548.231 461.998 548.261C459.678 570.195 458.152 595.399 459.707 625.948C460.715 645.774 464.808 665.967 470.251 689.582Z" fill="#222A74"/>
<path d="M354.12 557.792C353.119 564.024 352.345 570.287 351.706 576.58C351.514 578.627 351.319 580.704 351.146 582.782C350.216 593.749 349.736 604.808 349.39 615.897C349.383 616.355 349.356 616.783 349.352 617.211C348.788 635.326 348.554 653.564 347.37 671.863C347.338 672.138 347.329 672.413 347.324 672.657C347.297 673.085 347.27 673.513 347.244 673.941C347.183 674.857 347.099 675.774 347.039 676.69C346.726 680.967 346.34 685.274 345.908 689.582H321.481C323.646 679.867 325.431 670.641 326.868 661.843C331.422 634.135 332.794 610.459 333.697 587.853C334.521 567.507 334.957 547.925 337.025 526.968L337.05 526.754L337.897 525.991C337.897 525.991 338.08 525.807 338.156 525.746L346.896 517.834L347.23 517.528L372.321 494.8L375.792 491.653C373.919 495.105 372.18 498.588 370.579 502.071C362.314 519.942 357.399 538.088 354.368 556.448C354.292 556.906 354.223 557.304 354.146 557.762L354.12 557.792Z" fill="#171C47"/>
<path d="M310.941 546.367C303.281 552.507 294.63 558.862 283.14 567.079C303.878 591.305 314.174 629.766 326.822 661.843C332.184 671.313 330.805 679.226 324.449 689.582H300.16C301.218 685.03 302.777 680.325 304.914 675.59C291.081 660.438 262.681 622.587 252.511 596.895C247.912 585.409 243.058 572.15 245.826 557.64C253.233 529.931 271.212 509.616 287.687 488.782C309.105 462.234 355.785 416.624 367.073 406.971C367.063 407.062 348.668 510.502 348.657 510.594C336.313 523.791 323.679 536.316 310.914 546.397L310.941 546.367Z" fill="#FFC7C2"/>
<path d="M351.719 512.152C327.131 538.271 323.239 543.862 292.83 565.643C302.74 590.999 317.202 622.709 325.577 645.438C316.252 657.994 306.649 667.983 296.595 673.94C278.28 650.051 242.967 593.321 243.794 565.032C244.885 526.754 306.559 443.569 355.097 406.909C368.109 397.073 389.699 392.979 397.802 390.749L351.746 512.121L351.719 512.152Z" fill="#222A74"/>
<path d="M288.663 555.379C289.578 556.815 291.866 562.649 292.826 565.674C317.891 549.299 330.687 535.186 351.716 512.182L351.847 511.846C334.458 530.451 299.387 556.723 288.66 555.409L288.663 555.379Z" fill="#171C47"/>
<path d="M305.366 664.379C287.051 640.489 251.737 583.759 252.564 555.47C253.338 528.434 284.315 479.006 319.558 439.383C280.854 480.289 244.593 535.797 243.767 565.063C242.96 593.382 278.254 650.081 296.569 673.971C304.423 669.327 311.99 662.21 319.368 653.35C314.778 657.81 310.132 661.568 305.366 664.379Z" fill="#171C47"/>
<path d="M485.467 581.04C477.273 572.578 468.831 560.114 462.028 548.2C462.028 548.2 464.398 501.887 466.741 473.812C472.723 514.168 466.984 548.108 485.467 581.04Z" fill="#171C47"/>
<path d="M437.085 294.397C437.085 294.397 425.784 322.166 408.753 326.412C408.753 326.412 400.998 323.082 399.025 328.184C394.599 339.548 403.051 346.972 403.051 346.972C406.716 364.324 420.653 376.605 431.341 368.753C440.673 361.88 442.698 345.842 442.145 330.414C441.461 311.962 437.085 294.397 437.085 294.397Z" fill="#FFC7C2"/>
<path d="M420.508 261.098C417.61 261.495 414.683 262.534 411.859 263.878C409.034 265.222 406.259 266.933 403.626 269.01C398.343 273.104 393.629 278.633 389.75 284.896C387.82 288.042 386.076 291.372 384.394 294.763C382.712 298.154 381.137 301.606 379.667 305.15C376.711 312.176 374.164 319.447 371.702 326.779C369.24 334.111 366.843 341.473 364.266 348.805C362.958 352.532 361.267 356.198 359.251 359.497C357.231 362.827 354.866 365.76 352.352 368.387C347.306 373.611 341.706 377.46 336.169 380.973C330.631 384.486 324.979 387.602 319.911 391.818C317.366 393.926 315.058 396.37 313.215 399.364C311.3 402.388 309.67 405.718 308.3 409.201C305.489 416.166 303.711 423.742 301.051 431.196C299.698 434.923 298.072 438.62 295.898 441.888C293.727 445.127 291.016 447.876 288.092 449.679C285.241 451.45 282.387 452.856 279.571 454.322C276.755 455.788 273.943 457.224 271.179 458.843C265.674 462.081 260.242 465.87 255.649 471.155C251.02 476.348 247.627 483.374 246.212 490.798C244.751 498.221 245.221 505.859 247.088 512.549C248.975 519.27 252.088 525.135 255.8 530.206C251.869 525.441 248.531 519.728 246.44 512.977C244.343 506.286 243.615 498.496 244.965 490.645C245.672 486.735 246.833 482.886 248.513 479.311C250.171 475.737 252.276 472.468 254.673 469.658C259.447 464.006 265.029 459.913 270.602 456.491C273.4 454.78 276.229 453.192 279.068 451.725C281.887 450.228 284.745 448.793 287.401 447.112C290.028 445.493 292.382 443.049 294.306 440.147C296.234 437.214 297.732 433.823 298.995 430.28C301.502 423.162 303.267 415.494 306.173 408.101C307.615 404.405 309.342 400.83 311.381 397.531C313.481 394.109 316.143 391.391 318.837 389.191C324.277 384.731 329.965 381.706 335.45 378.254C340.95 374.863 346.371 371.167 351.152 366.249C353.529 363.805 355.757 361.055 357.634 357.97C359.53 354.915 361.094 351.554 362.357 348.011C364.97 340.77 367.497 333.469 370.052 326.137C375.111 311.504 380.902 296.902 388.926 284.071C397.089 271.424 408.878 262.412 420.547 261.159L420.508 261.098Z" fill="#414C96"/>
<path d="M436.853 287.89C436.789 291.403 436.752 294.885 436.36 298.46C435.991 302.034 435.262 305.73 433.796 309.244C432.375 312.757 430.15 315.873 427.652 318.164C425.143 320.364 422.637 322.135 419.952 323.663C417.294 325.16 414.482 326.198 411.77 326.779C411.108 326.932 410.446 327.084 409.892 327.298C409.628 327.39 409.404 327.543 409.251 327.665C409.126 327.756 408.989 327.94 408.835 328.276C408.207 329.528 407.82 331.27 407.537 332.919C406.502 339.64 406.894 346.758 409.385 352.44C407.813 349.935 406.776 346.789 406.22 343.459C405.667 340.098 405.554 336.524 405.957 332.858C406.17 331.025 406.475 329.192 407.323 327.237C407.42 326.993 407.564 326.748 407.707 326.504C407.877 326.229 408.093 325.954 408.302 325.74C408.743 325.312 409.162 325.068 409.552 324.885C410.33 324.518 410.996 324.335 411.661 324.152C414.299 323.418 416.812 322.38 419.286 320.883C421.734 319.416 424.22 317.614 426.433 315.598C428.619 313.612 430.458 311.046 431.834 308.113C433.213 305.15 434.129 301.82 434.849 298.399C435.546 294.977 436.073 291.433 436.849 287.92L436.853 287.89Z" fill="#414C96"/>
<path d="M562.299 440.269L513.529 522.263L510.237 514.962C523.899 494.189 529.983 483.405 558.131 438.925C559.557 439.322 560.933 439.75 562.299 440.269Z" fill="#171C47"/>
<path d="M676.855 370.312C670.353 366.493 663.293 364.11 655.759 362.827C654.608 362.644 653.456 362.461 652.301 362.308C639.24 360.689 624.924 362.155 609.93 365.302C609.012 365.485 608.113 365.699 607.217 365.882C606.391 366.065 605.542 366.249 604.715 366.432C604.669 366.432 604.646 366.432 604.6 366.432C603.985 366.585 603.369 366.737 602.73 366.89C602.493 366.951 602.233 367.012 601.996 367.073C601.545 367.196 601.097 367.287 600.623 367.41C600.007 367.562 599.391 367.715 598.775 367.868C598.212 365.79 597.717 363.713 597.276 361.575C594.816 350.088 593.782 337.807 594.293 324.702C594.376 322.41 594.511 320.058 594.692 317.706C595.319 317.462 595.919 317.248 596.545 317.003C597.05 316.82 597.557 316.606 598.062 316.423C598.253 316.362 598.424 316.27 598.593 316.209C599.242 315.965 599.918 315.69 600.59 315.445H600.613C601.481 315.109 602.325 314.773 603.192 314.437C604.082 314.101 604.975 313.735 605.846 313.368C620.081 307.655 633.939 301.026 646.022 290.273C647.098 289.326 648.181 288.318 649.219 287.309C655.757 280.925 661.716 273.196 666.882 263.573L676.862 370.251L676.855 370.312Z" fill="#FFCC98"/>
<path d="M556.491 343.107L553.459 344.122C552.206 344.542 551.296 346.178 551.426 347.777L552.876 365.535C553.006 367.134 554.128 368.09 555.381 367.671L558.413 366.655C559.666 366.236 560.576 364.599 560.446 363L558.996 345.243C558.866 343.644 557.744 342.688 556.491 343.107Z" fill="#C76A0B"/>
<path d="M675.915 360.2L666.898 263.634C666.314 264.703 665.733 265.741 665.153 266.78L675.934 360.23L675.915 360.2Z" fill="#D8DAEB"/>
<path d="M676.855 370.311C657.537 359.008 633.213 360.108 607.003 365.943C606.25 366.096 605.492 366.279 604.712 366.462C604.57 366.493 604.406 366.523 604.264 366.554C603.767 366.676 603.247 366.798 602.727 366.921C602.371 367.012 602.019 367.073 601.663 367.165C601.331 367.257 600.975 367.348 600.623 367.409C600.149 367.531 599.651 367.654 599.154 367.776C599.016 367.776 598.894 367.837 598.752 367.868C598.189 365.79 597.694 363.713 597.253 361.574C597.447 362.277 597.618 362.98 597.839 363.652C597.885 363.652 597.931 363.652 597.981 363.621C598.551 363.468 599.124 363.285 599.694 363.132C600.003 363.041 600.313 362.949 600.6 362.857C601.005 362.735 601.407 362.644 601.789 362.521C602.263 362.399 602.741 362.246 603.192 362.124C603.383 362.063 603.571 362.033 603.762 361.972C604.473 361.788 605.185 361.605 605.896 361.422C632.146 354.64 656.551 352.654 676.184 363.224L676.84 370.25L676.855 370.311Z" fill="#EBA965"/>
<path d="M686.664 370.277C702.402 365.003 713.069 335.05 710.49 303.376C707.911 271.701 693.062 250.298 677.324 255.572C661.586 260.846 650.919 290.799 653.498 322.474C656.077 354.149 670.926 375.551 686.664 370.277Z" fill="#C76A0B"/>
<path d="M562.654 338.422L557.307 340.214C555.542 340.805 554.261 343.11 554.444 345.362L556.203 366.961C556.386 369.213 557.965 370.56 559.73 369.969L565.077 368.177C566.841 367.585 568.123 365.281 567.939 363.029L566.181 341.429C565.997 339.177 564.418 337.831 562.654 338.422Z" fill="#C76A0B"/>
<path d="M565.822 367.41L560.51 369.181C558.741 369.762 557.149 368.418 556.974 366.157L555.226 344.589C555.114 343.184 555.556 341.748 556.341 340.74C555.104 341.687 554.289 343.551 554.444 345.384L556.192 366.951C556.366 369.212 557.958 370.556 559.728 369.976L565.04 368.204C565.709 367.99 566.318 367.501 566.78 366.89C566.475 367.135 566.155 367.318 565.822 367.41Z" fill="#904D08"/>
<path d="M706.32 304.814C708.513 331.85 699.996 357.236 687.263 361.513C682.596 363.071 677.986 361.574 673.952 357.695C671.032 354.915 668.392 350.913 666.211 345.933C665.451 344.161 664.724 342.298 664.081 340.312C664.049 340.19 664.017 340.068 663.982 339.976C662.142 334.233 660.823 327.573 660.219 320.302C659.76 314.559 659.776 308.877 660.221 303.47C660.297 302.614 660.374 301.759 660.473 300.904C660.477 300.873 660.484 300.812 660.487 300.781C661.134 294.824 662.29 289.234 663.903 284.254C667.331 273.562 672.764 265.803 679.322 263.603C692.056 259.326 704.145 277.808 706.362 304.845L706.32 304.814Z" fill="#FFCC98"/>
<path d="M681.61 355.129C678.69 352.349 676.05 348.347 673.869 343.367C673.109 341.595 672.383 339.732 671.739 337.746C671.707 337.624 671.672 337.532 671.64 337.41C669.801 331.667 668.482 325.007 667.878 317.736C667.418 311.993 667.435 306.311 667.879 300.904C667.956 300.048 668.032 299.193 668.132 298.338C668.135 298.307 668.142 298.246 668.146 298.215C668.792 292.258 669.948 286.668 671.562 281.688C674.304 273.135 678.344 266.475 683.185 263.023C681.897 263.023 680.614 263.175 679.296 263.634C672.761 265.833 667.328 273.593 663.877 284.285C662.289 289.234 661.111 294.824 660.461 300.812C660.457 300.843 660.45 300.904 660.446 300.934C660.347 301.79 660.271 302.645 660.194 303.5C659.75 308.908 659.733 314.59 660.193 320.333C660.774 327.604 662.093 334.264 663.955 340.007C663.987 340.129 664.019 340.251 664.054 340.343C664.697 342.329 665.42 344.223 666.184 345.964C668.365 350.943 671.005 354.945 673.925 357.725C677.959 361.605 682.57 363.102 687.236 361.544C688.551 361.116 689.802 360.444 691.005 359.589C687.7 359.528 684.5 357.97 681.58 355.19L681.61 355.129Z" fill="#EBA865"/>
<path d="M569.819 372.603L570.277 378.163L570.356 379.263L573.682 420.107C573.879 422.368 575.467 423.742 577.24 423.131L584.467 420.718C586.622 419.985 587.958 416.808 587.111 414.394C583.594 404.282 582.518 393.162 583.988 380.912L595.739 376.971C596.767 376.635 597.525 375.261 597.425 373.947L596.578 363.621L569.796 372.603H569.819Z" fill="#C76A0B"/>
<path d="M595.737 363.927L596.424 372.267C596.524 373.58 595.766 374.955 594.738 375.291L582.987 379.232C581.494 391.482 582.594 402.602 586.11 412.714C586.957 415.127 585.622 418.304 583.466 419.038L576.239 421.451C575.376 421.757 574.546 421.573 573.917 421.054C574.411 422.734 575.78 423.62 577.286 423.131L584.513 420.718C586.668 419.985 588.004 416.808 587.157 414.394C583.64 404.282 582.564 393.162 584.034 380.912L595.785 376.971C596.813 376.635 597.571 375.261 597.471 373.947L596.624 363.621L595.737 363.927Z" fill="#904D08"/>
<path d="M563.878 332.889C559.561 334.997 556.656 340.801 557.106 346.422L558.659 365.516C559.113 371.106 562.785 374.741 567.205 373.917C578.329 371.809 592.856 369.915 599.342 367.746C595.047 351.86 593.854 335.211 595.259 317.584C584.193 322.349 574.249 327.757 563.855 332.889H563.878Z" fill="#C76A0B"/>
<path d="M569.523 368.815C565.103 369.639 560.217 371.106 559.767 365.485L557.901 346.116C557.666 343.581 558.004 340.282 559.854 336.432C557.905 339.151 556.835 342.817 557.11 346.391L558.663 365.485C559.117 371.075 562.789 374.711 567.209 373.886C578.333 371.778 592.86 369.884 599.345 367.715C598.976 366.34 598.63 364.965 598.306 363.591C590.967 365.393 578.979 367.012 569.5 368.815H569.523Z" fill="#904D08"/>
<path d="M604.205 364.691C604.318 365.302 604.457 365.882 604.593 366.493C603.978 366.646 603.362 366.799 602.723 366.951C602.486 367.012 602.226 367.074 601.989 367.135C601.846 366.585 601.706 366.004 601.563 365.454C601.436 364.966 601.332 364.477 601.204 363.988C598.529 350.394 597.394 336.219 597.748 321.097C597.834 319.569 597.916 318.073 598.025 316.545C598.216 316.484 598.387 316.392 598.555 316.331C599.205 316.087 599.881 315.812 600.553 315.568C599.754 333.133 600.957 349.294 604.198 364.752L604.205 364.691Z" fill="#C76A0B"/>
<path d="M609.494 363.316C609.623 363.988 609.778 364.629 609.93 365.302C609.012 365.485 608.113 365.699 607.217 365.882C607.085 365.24 606.949 364.629 606.817 363.988C603.613 348.408 602.427 332.094 603.188 314.468C604.078 314.131 604.972 313.765 605.843 313.398C605.011 331.239 606.213 347.613 609.52 363.285L609.494 363.316Z" fill="#C76A0B"/>
<path d="M584.365 375.688C584.252 374.283 585.036 372.878 586.137 372.511C587.238 372.145 588.2 372.97 588.313 374.375C588.425 375.78 587.641 377.185 586.54 377.552C585.44 377.919 584.477 377.094 584.365 375.688Z" fill="white"/>
<path d="M590.209 374.283C590.12 373.275 590.697 372.267 591.488 371.992C592.279 371.717 592.967 372.328 593.057 373.336C593.146 374.344 592.569 375.352 591.778 375.627C590.987 375.902 590.299 375.291 590.209 374.283Z" fill="white"/>
<path d="M570.195 326.457L580.335 323.059C581.099 322.803 581.765 323.399 581.842 324.344L582.013 326.442C582.093 327.417 581.53 328.395 580.789 328.643L570.65 332.041C569.886 332.297 569.219 331.701 569.142 330.755L568.972 328.658C568.892 327.682 569.455 326.705 570.195 326.457Z" fill="#FFCC98"/>
<path d="M566.748 327.66L565.429 328.101C564.802 328.311 564.347 329.13 564.412 329.929L564.729 333.83C564.794 334.629 565.355 335.108 565.981 334.898L567.3 334.456C567.927 334.246 568.382 333.428 568.317 332.628L568 328.728C567.935 327.928 567.374 327.45 566.748 327.66Z" fill="#FFCC98"/>
<path d="M688.001 323.296L663.962 339.946C662.123 334.202 660.804 327.543 660.2 320.272C659.74 314.529 659.757 308.847 660.201 303.439C660.278 302.584 660.354 301.729 660.454 300.873C660.457 300.843 660.464 300.782 660.468 300.751L686.224 303.164L687.998 323.327L688.001 323.296Z" fill="white"/>
<path d="M671.498 330.72C668.348 332.889 664.829 331.3 663.964 327.268C663.123 323.418 662.525 319.264 662.159 314.895C661.77 310.129 661.719 305.425 661.972 300.873L660.471 300.72C660.471 300.72 660.461 300.812 660.457 300.842C660.358 301.698 660.281 302.553 660.205 303.409C659.76 308.816 659.744 314.498 660.203 320.241C660.784 327.512 662.103 334.172 663.966 339.915L688.005 323.266L687.663 319.477L671.478 330.689L671.498 330.72Z" fill="white"/>
<path d="M693.256 311.535C693.728 317.37 691.659 322.899 688.667 323.907C685.651 324.916 682.817 321.005 682.341 315.201C681.87 309.366 683.915 303.837 686.931 302.828C689.946 301.82 692.781 305.731 693.256 311.535Z" fill="#C76A0B"/>
<path d="M692.564 311.749C692.987 316.82 691.352 321.586 688.933 322.411C686.514 323.235 684.227 319.753 683.805 314.682C683.382 309.61 685.017 304.845 687.436 304.02C689.855 303.195 692.141 306.678 692.564 311.749Z" fill="#904D08"/>
<path d="M655.76 362.827C654.608 362.644 653.456 362.46 652.301 362.308C643.546 341.656 641.263 315.781 646.015 290.334C647.091 289.387 648.174 288.378 649.212 287.37C643.552 314.101 645.971 341.565 655.76 362.827Z" fill="#C76A0B"/>
<path d="M687.251 313.918C687.133 312.36 687.53 310.924 688.153 310.71C688.776 310.496 689.384 311.596 689.502 313.154C689.62 314.712 689.223 316.148 688.6 316.362C687.978 316.576 687.369 315.476 687.251 313.918Z" fill="white"/>
<path d="M1054.59 633.951C1054.59 633.951 1087.69 661.843 1099.39 656.619C1104.48 654.328 1110.21 646.782 1115.26 637.373C1122.63 623.656 1128.59 605.999 1129.2 595.001C1130.01 580.704 1112.79 588.036 1107.93 601.508C1102.19 617.424 1100.92 618.677 1098.36 626.039C1097.42 628.789 1096.55 630.744 1095.67 631.782C1091.08 637.22 1061.06 620.021 1061.06 620.021C1061.06 620.021 1050.56 610.673 1046.49 616.783C1037.91 629.675 1050.79 636.945 1054.6 633.921L1054.59 633.951Z" fill="#F9C2C2"/>
<path d="M1094.45 630.01L1116.16 645.254C1124.29 630.133 1131.85 611.986 1132.53 599.828C1133.42 584.034 1116.42 576.183 1106.35 601.08C1101.02 614.247 1097.28 621.884 1094.47 630.01H1094.45Z" fill="#7080FF"/>
<path d="M1060.79 936.267L1058.84 919.984C1059.91 917.265 1061.66 913.08 1062.67 910.514C1078.08 871.411 1085.99 848.254 1093.19 812.848C1102.35 767.635 1118.76 775.669 1128.85 723.522L1085.32 692.148C1074.09 723.064 1065.76 766.199 1060.2 807.563C1056.18 837.379 1055.71 871.258 1047.77 910.514C1047.33 912.744 1045.18 917.754 1044.69 919.984L1025.87 936.267H1060.76H1060.79Z" fill="#F9CBCB"/>
<path d="M1046.09 910.514H1065.41C1080.81 871.411 1086.01 848.254 1093.21 812.848C1095.3 802.553 1097.77 795.007 1100.46 788.897C1109.53 768.185 1121.11 763.786 1128.89 723.522L1085.37 692.148C1074.14 723.064 1065.81 766.199 1060.24 807.563C1056.23 837.379 1054.08 871.258 1046.14 910.514H1046.09Z" fill="#171C47"/>
<path d="M1060.08 910.514H1065.44C1080.84 871.411 1086.04 848.254 1093.23 812.848C1095.33 802.553 1097.79 795.007 1100.48 788.897C1101.32 785.262 1089.58 725.355 1089.58 725.355C1077.08 767.391 1084.77 825.74 1060.12 910.544L1060.08 910.514Z" fill="#222A74"/>
<path d="M1137.78 908.314C1138 909.933 1137.85 915.829 1137.86 917.846C1132.2 925.788 1126.49 933.365 1120.8 941.155C1133.6 936.145 1146.39 931.165 1159.16 926.185C1156.9 921.847 1154.68 917.601 1152.41 913.202C1152.51 910.147 1152.26 905.565 1152.23 902.51C1151.76 868.142 1145.42 832.277 1138.3 802.094C1129.03 762.747 1141.85 728.226 1132.63 688.635C1116.44 694.164 1100.2 699.449 1083.77 704.459C1087.39 746.189 1092.8 783.307 1105.59 821.524C1114.85 849.262 1133.09 875.382 1137.71 908.314H1137.78Z" fill="#F9CBCB"/>
<path d="M1104.39 821.768C1113.84 850.057 1131.45 876.085 1136.09 908.742C1142.65 906.359 1149.09 904.007 1155.4 901.135C1154.91 866.767 1145.54 832.186 1138.37 802.095C1129.02 762.839 1141.95 728.165 1132.67 688.635C1116.33 692.301 1099.85 695.6 1083.27 698.93C1086.81 741.821 1091.37 782.787 1104.39 821.768Z" fill="#171C47"/>
<path d="M1152.02 912.408C1157.67 914.668 1158.23 921.481 1158.37 928.843C1146.13 933.609 1133.89 938.405 1121.65 943.171C1121.44 929.943 1130.05 925.147 1137.9 917.907C1142.83 919.862 1147.48 916.226 1152.05 912.377L1152.02 912.408Z" fill="#222A74"/>
<path d="M1058.86 920.015C1063.88 923.1 1062.44 932.295 1061.02 938.619H1024.26C1025.73 925.972 1033.01 925.88 1044.69 920.015C1047.28 923.222 1052.16 922.978 1058.83 920.015H1058.86Z" fill="#222A74"/>
<path d="M1086.4 699.48C1100.62 698.227 1117.6 703.298 1131.85 697.28C1133.88 696.425 1135.41 693.95 1135.54 691.262C1135.67 688.543 1135.86 685.946 1136.06 683.472C1136.29 680.509 1136.57 677.667 1136.86 674.979C1139.43 651.273 1143.97 636.762 1143.54 611.376C1143.28 595.612 1140.84 590.052 1138.21 583.973C1135.56 577.894 1126.03 573.25 1126.03 573.25L1118.58 577.924C1088.64 590.572 1086.41 663.004 1082.22 693.064C1081.7 696.73 1083.66 699.693 1086.43 699.449L1086.4 699.48Z" fill="#222A74"/>
<path d="M1126 573.281C1125.72 573.892 1125.4 574.472 1125.11 575.022C1120.59 582.843 1112.61 584.828 1113.36 580.887L1111.95 570.256L1110.46 558.984L1119.19 553.515L1121.79 561.03L1126.02 573.311L1126 573.281Z" fill="#F9CBCB"/>
<path d="M1126 573.281C1125.72 573.892 1125.4 574.472 1125.11 575.022C1124.17 572.975 1121.91 563.719 1118.01 568.057C1114.84 571.539 1111.95 570.287 1111.95 570.287L1117.26 560.022C1117.26 560.022 1119.37 560.48 1121.79 561.061L1126.02 573.342L1126 573.281Z" fill="#F5BABA"/>
<path d="M1060.71 636.595L1063.99 631.155L1043.73 611.839L1040.45 617.279L1060.71 636.595Z" fill="#3B4487"/>
<path d="M1096.6 542.304C1096.71 543.709 1097.37 543.77 1097.48 545.206C1097.57 546.397 1097.79 549.422 1099.89 549.422C1099.93 549.422 1100.01 549.361 1100.05 549.361C1100.52 549.147 1100.97 548.78 1101.42 548.872C1101.69 548.933 1101.9 549.116 1102.11 549.239C1103.8 550.369 1106.31 549.33 1107.53 547.008C1108.05 548.475 1109.22 549.422 1110.52 549.391C1111.83 549.391 1113.19 548.383 1114 546.886C1114.76 547.681 1115.78 548.2 1116.84 547.803C1117.32 547.619 1117.83 546.459 1118.16 545.176C1118.37 544.381 1118.58 545.481 1118.64 544.778L1118.61 544.259C1119.59 542.396 1121.26 540.257 1123.16 541.907C1126.86 545.114 1121.63 552.538 1121.63 552.538C1121.63 552.538 1121.76 555.562 1119.44 560.481C1119.44 560.481 1120.6 564.697 1123.77 562.619C1125.17 562.619 1126.49 558.159 1125.89 557.181C1126.98 556.906 1128.01 555.807 1128.47 554.401C1128.91 553.027 1128.72 551.438 1128.03 550.522C1127.89 550.338 1127.72 550.155 1127.66 549.88C1127.56 549.361 1127.93 548.78 1128.21 548.322C1129.39 546.336 1129.48 543.526 1128.41 541.876C1128.21 541.571 1127.97 541.265 1127.95 540.838C1127.96 540.563 1128.04 540.288 1128.12 540.013C1128.75 537.722 1127.85 535.186 1126.19 534.636C1125.97 534.575 1125.75 534.514 1125.59 534.3C1125.37 533.995 1125.46 533.445 1125.46 532.986C1125.52 531.52 1124.74 530.329 1123.74 529.809C1122.76 529.29 1121.61 529.351 1120.48 529.534C1120.61 528.435 1120.1 527.488 1119.42 527.029C1118.73 526.571 1117.86 526.602 1117.04 526.663C1115.81 526.785 1114.56 527.09 1113.35 527.579C1113.43 526.51 1112.94 525.593 1112.28 525.135C1111.59 524.677 1110.77 524.646 1109.95 524.799C1108.44 525.074 1106.95 526.021 1105.76 527.396C1105.44 527.762 1105.14 528.16 1104.75 528.343C1104.46 528.496 1104.13 528.496 1103.83 528.526C1101.15 528.832 1098.6 532.559 1098.71 536.011C1097.26 537.569 1096.39 540.104 1096.6 542.304Z" fill="#171C47"/>
<path d="M1100.03 549.361C1100.36 552.843 1100.95 557.487 1102.06 561.55C1103.64 567.385 1106.26 572.12 1110.61 570.776C1114.64 569.523 1117.24 566.132 1118.87 562.588C1121.17 557.67 1121.66 552.477 1121.66 552.477C1121.66 552.477 1126.87 545.053 1123.19 541.845C1121.29 540.196 1119.61 542.365 1118.64 544.198C1118.46 544.534 1118.31 544.839 1118.19 545.114C1118.06 545.603 1117.92 546.061 1117.76 546.458C1117.49 547.13 1117.18 547.65 1116.87 547.772C1116.6 547.864 1116.34 547.925 1116.09 547.925C1115.33 547.925 1114.6 547.467 1114.03 546.856C1113.21 548.352 1111.83 549.33 1110.52 549.361C1109.21 549.361 1108.05 548.444 1107.53 546.978C1106.32 549.299 1103.78 550.338 1102.12 549.208C1101.91 549.055 1101.67 548.872 1101.42 548.841C1100.98 548.75 1100.5 549.116 1100.06 549.33L1100.03 549.361Z" fill="#F9CBCB"/>
<path d="M1060.54 643.33C1060.54 643.33 1093.64 671.222 1105.33 665.998C1110.43 663.707 1116.16 656.161 1121.21 646.752C1128.58 633.035 1134.54 615.378 1135.15 604.38C1135.96 590.083 1118.73 597.415 1113.88 610.887C1108.14 626.803 1106.87 628.056 1104.31 635.418C1103.37 638.167 1102.5 640.123 1101.62 641.161C1097.03 646.599 1067.01 629.4 1067.01 629.4C1067.01 629.4 1056.51 620.052 1052.44 626.162C1043.86 639.053 1056.74 646.324 1060.54 643.3L1060.54 643.33Z" fill="#F9CBCB"/>
<path d="M1100.4 639.359L1122.11 654.603C1130.24 639.481 1137.8 621.335 1138.48 609.176C1139.37 593.382 1122.37 585.531 1112.3 610.429C1106.97 623.595 1103.23 631.233 1100.43 639.359H1100.4Z" fill="#171C47"/>
<path d="M870.615 820.302C870.798 831.391 870.479 841.259 869.808 850.393C868.085 873.732 865.598 892.154 860.234 914.363L851.851 913.66C851.851 913.66 849.892 867.195 849.648 835.454C849.573 827.389 849.626 820.21 849.883 814.834C851.273 784.07 872.659 699.418 874.034 693.92L874.059 693.706L874.116 693.614L901.621 690.681C907.691 753.032 888.88 765.863 870.622 820.241L870.615 820.302Z" fill="#F1CCCD"/>
<path d="M908.609 910.361C908.369 905.504 900.91 869.15 892.307 847.98C890.252 842.908 888.302 838.509 886.608 835.271C874.484 812.145 874.259 689.215 874.262 689.185C874.262 689.185 896.597 686.802 896.571 686.832C912.528 713.196 905.927 752.574 904.369 790.914C903.836 804.202 905.498 816.819 909.009 827.573C909.723 829.742 910.364 831.941 910.953 834.202C915.162 850.026 918.42 872.266 920.26 907.887L908.629 910.392L908.609 910.361Z" fill="#F1CCCD"/>
<path d="M840.337 800.384C840.073 802.461 841.242 804.08 842.815 803.805C869.669 799.345 885.173 811.015 906.622 806.555C907.846 806.31 909.104 805.974 910.389 805.608C912.672 804.966 914.58 802.4 915.066 799.406C922.588 754.285 925.546 713.593 919.195 687.504H870.18C870.18 687.504 845.49 760.609 840.318 800.353L840.337 800.384Z" fill="#222A74"/>
<path d="M911.753 763.205C909.16 785.506 907.485 799.131 906.599 806.555C907.823 806.31 909.081 805.974 910.366 805.608C912.649 804.966 914.557 802.4 915.043 799.406C922.565 754.285 925.524 713.593 919.172 687.504H916.872L913.825 690.956C913.825 690.956 916.182 725.294 911.737 763.144L911.753 763.205Z" fill="#171C47"/>
<path d="M898.485 541.937C898.942 537.813 900.389 533.475 902.993 530.664C906.226 527.182 910.63 526.693 914.167 528.129C917.703 529.565 920.545 532.62 923.325 535.613C927.658 540.287 932.258 545.634 932.805 553.393C933.44 562.375 928.363 572.211 929.694 580.949C930.645 587.211 934.639 591.244 937.691 595.857C940.743 600.469 942.985 607.496 940.146 613.514C936.913 620.357 929.237 621.487 925.664 628.086C923.41 632.241 923.417 637.526 921.502 641.925C919.528 646.446 915.489 649.532 911.837 649.287C908.186 649.043 905.147 645.499 904.587 640.825C904.213 637.709 904.844 634.257 904.447 631.141C903.809 626.345 900.839 623.198 898.719 619.471C893.642 610.52 893.502 596.681 899.503 585.623C896.736 576.183 896.154 565.949 900.012 554.126C898.48 550.094 898.052 546.061 898.508 541.937H898.485Z" fill="#171C47"/>
<path d="M852.331 576.065L837.888 582.567L843.796 621.169L858.239 614.667L852.331 576.065Z" fill="#BDC4FF"/>
<path d="M873.71 646.446C873.71 646.446 869.715 672.505 859.348 673.635C850.632 674.613 845.857 630.805 840.414 619.257C835.174 608.137 832.515 599.156 837.362 595.643C850.199 586.325 848.996 602.211 848.047 614.339L858.52 642.566L882.021 596.315L873.706 646.477L873.71 646.446Z" fill="#F1CCCD"/>
<path d="M945.28 747.045C939.811 748.786 935.677 737.849 935.677 737.849C935.677 737.849 932.714 744.937 931.457 741.699C930.2 738.46 933.865 729.693 933.865 729.693L933.114 723.094L924.781 649.532L925.527 590.083C935.527 596.07 941.498 692.117 941 720.345C940.903 725.538 940.824 728.593 940.824 728.593C940.824 728.593 951.136 745.151 945.261 747.014L945.28 747.045Z" fill="#F1CCCD"/>
<path d="M839.98 620.021C842.108 634.165 850.813 674.246 859.369 674.246C859.875 674.246 860.399 674.093 860.914 673.818C864.683 671.863 869.071 663.401 872.572 655.244C876.006 647.271 878.58 639.573 878.901 638.595L878.911 638.503C878.445 651.029 870.345 689.246 869.282 688.696C880.823 694.286 895.665 695.417 910.675 691.934H910.767C913.961 691.17 917.18 690.193 920.351 689.032C914.16 673.635 914.89 646.568 920.043 637.465C920.02 637.862 920.035 638.32 920.063 638.87C920.544 653.931 931.965 729.418 932.156 729.357C934.422 728.654 942.116 726.577 942.095 726.363C942.535 697.647 935.374 596.987 927.17 587.822C920.147 579.971 911.463 578.108 911.39 578.138L901.517 578.382C901.517 578.382 884.821 585.684 879.016 598.026C873.794 609.115 858.843 641.772 858.843 641.772C858.685 642.139 858.31 642.2 858.188 641.864L848.699 612.292C848.612 612.048 839.932 619.838 839.977 620.052L839.98 620.021Z" fill="#C76A0B"/>
<path d="M911.436 578.138C911.096 578.688 910.756 579.238 910.427 579.696C907.203 584.278 904.238 584.462 901.537 578.413C901.907 577.008 903.047 572.15 903.816 569.095C904.096 567.873 904.34 566.957 904.448 566.621L911.825 565.888L911.413 578.138H911.436Z" fill="#F1CCCD"/>
<path d="M911.436 578.138C911.096 578.688 910.756 579.238 910.427 579.696C910.513 576.977 910.363 571.937 908.116 571.876C905.179 571.814 903.948 569.34 903.819 569.065C904.099 567.843 904.344 566.926 904.452 566.59L911.828 565.857L911.417 578.108L911.436 578.138Z" fill="#F1BABB"/>
<path d="M920.063 638.87L920.043 637.465C920.02 637.862 920.035 638.32 920.063 638.87Z" fill="#DB85B4"/>
<path d="M913.845 690.987L920.374 689.032C914.182 673.635 914.899 646.691 920.052 637.587L918.914 629.369C912.548 641.986 907.351 660.774 913.818 691.018L913.845 690.987Z" fill="#904D08"/>
<path d="M860.937 673.818C864.706 671.863 869.094 663.401 872.595 655.244L878.924 638.595L878.934 638.503C878.216 628.453 879.19 623.443 881.136 615.011C875.204 625.673 872.447 662.851 860.914 673.818H860.937Z" fill="#904D08"/>
<path d="M919.508 895.361L922.941 902.632L927.294 918.212L924.979 920.32L917.718 909.567L917.3 921.084C917.191 924.2 916.391 927.316 914.402 929.393C909.159 934.923 898.346 944.24 896.098 940.238C893.794 936.114 904.295 927.102 905.356 919.556C906.388 912.255 907.422 902.968 907.422 902.968L919.481 895.392L919.508 895.361Z" fill="#C76A0B"/>
<path d="M860.458 913.416L861.458 922.428L858.26 937.672L855.965 937.825L855.47 924.475L850.76 933.334C849.494 935.717 847.772 937.672 845.709 938.008C840.243 938.925 829.73 939.138 829.836 934.464C829.956 929.668 840.144 929.485 843.725 924.2C847.193 919.098 851.941 913.08 851.941 913.08L860.482 913.416H860.458Z" fill="#C76A0B"/>
<path d="M901.127 566.499C909.796 577.802 917.817 557.273 917.817 557.273C917.817 557.273 922.572 554.554 921.449 549.177C920.439 544.412 915.89 550.308 915.89 550.308C910.623 550.308 907.143 544.228 905.404 540.196C904.785 538.791 903.116 539.096 902.511 540.746C901.056 544.748 899.076 551.102 898.842 556.876C898.688 560.572 899.249 564.055 901.127 566.499Z" fill="#F1CCCD"/>
<path d="M966.499 444.18C952.078 444.18 938.566 459.699 936.336 478.884C935.562 485.543 936.264 491.775 938.088 497.06L930.138 515.39L947.255 510.013C950.484 512.304 954.265 513.618 958.405 513.618C972.827 513.618 986.338 498.099 988.568 478.914C990.798 459.729 980.917 444.21 966.473 444.21L966.499 444.18Z" fill="#C76A0B"/>
<path d="M977.949 470.146C976.968 466.114 973.622 463.242 969.883 464.739C965.88 466.328 963.746 472.224 963.507 472.896C963.424 472.224 962.663 466.297 959.026 464.739C955.632 463.273 951.621 466.114 949.703 470.146C946.176 477.539 950.723 486.704 951.223 487.743C954.298 493.944 959.195 494.952 960.987 495.166C961.033 495.166 961.056 495.166 961.102 495.166C961.148 495.166 961.194 495.166 961.24 495.166C963.089 494.891 967.985 493.73 972.338 487.743C973.107 486.673 979.757 477.539 977.949 470.146Z" fill="white"/>
<path d="M1174.73 445.524C1159.07 445.524 1144.41 462.387 1141.99 483.191C1141.15 490.431 1141.91 497.183 1143.89 502.895L1135.28 522.783L1153.85 516.918C1157.36 519.423 1161.45 520.828 1165.98 520.828C1181.64 520.828 1196.3 503.965 1198.72 483.161C1201.14 462.357 1190.4 445.493 1174.74 445.493L1174.73 445.524Z" fill="#ADB6FF"/>
<path d="M1166.93 474.057L1164.43 495.563H1158.77C1156.1 495.563 1154.28 492.692 1154.69 489.148L1155.7 480.472C1156.11 476.928 1158.6 474.057 1161.27 474.057H1166.93Z" fill="white"/>
<path d="M1185 495.075C1182.71 498.007 1166.57 495.563 1166.57 495.563L1169.07 474.057C1169.07 474.057 1171.98 472.132 1173.2 468.558C1174.42 465.014 1176.12 460.462 1178.11 461.195C1180.09 461.929 1179.99 469.322 1176.89 474.057C1176.89 474.057 1185.25 471.185 1187.07 474.332C1188.79 477.325 1187.14 492.356 1185 495.105L1185 495.075Z" fill="white"/>
<path d="M133.69 327.756H219.736C228.499 327.756 234.509 337.196 233.157 348.835L222.277 442.438C220.924 454.078 212.719 463.517 203.956 463.517H117.91C109.146 463.517 103.136 454.078 104.489 442.438L115.369 348.835C116.722 337.196 124.926 327.756 133.69 327.756Z" fill="#C76A0B"/>
<path d="M228.114 331.269C228.865 334.11 229.09 337.318 228.696 340.709L217.816 434.312C216.463 445.951 208.259 455.391 199.495 455.391H113.449C110.206 455.391 107.342 454.108 105.071 451.878C106.867 458.782 111.699 463.517 117.91 463.517H203.956C212.719 463.517 220.924 454.077 222.277 442.438L233.157 348.835C234.009 341.503 231.929 335.057 228.091 331.269H228.114Z" fill="#904D08"/>
<path d="M156.063 423.192C152.849 425.117 149.71 422.245 150.198 417.846L152.58 395.973L154.961 374.1C155.449 369.701 159.221 366.737 162.018 368.601L179.281 379.965L194.516 389.985C197.744 392.093 197.031 398.631 193.348 400.83L175.895 411.278L156.093 423.131L156.063 423.192Z" fill="white"/>
<path d="M162.552 448.304C140.149 448.304 124.744 424.109 128.203 394.354C131.661 364.599 152.69 340.404 175.093 340.404C197.496 340.404 212.901 364.599 209.442 394.354C205.983 424.109 184.954 448.304 162.552 448.304ZM174.646 344.253C153.83 344.253 134.311 366.737 131.101 394.354C127.891 421.97 142.206 444.454 162.999 444.454C183.792 444.454 203.334 421.97 206.544 394.354C209.754 366.737 195.439 344.253 174.646 344.253Z" fill="white"/>
<path d="M537.388 869.487C529.499 880.362 521.519 892.032 512.562 905.168C555.964 946.532 615.641 943.263 657.723 868.937C684.496 821.646 696.458 778.694 724.051 728.105C712.993 722.514 705.76 713.502 696.023 707.637C667.863 758.745 658.557 797.054 631.596 845.964C603.297 897.286 566.555 895.392 537.384 869.517L537.388 869.487Z" fill="#C76A0B"/>
<path d="M611.212 634.471C573.821 672.597 553.66 680.417 518.528 722.453C513.424 728.96 508.864 736.139 504.759 743.746C475.063 797.39 479.815 868.509 512.562 905.168C519.603 895.056 526.644 884.944 533.684 874.832C513.028 839.426 511.32 783.674 545.247 746.067C579.822 707.239 605.231 695.631 641.429 656.1C637.448 646.416 632.278 637.862 627.834 628.606C623.621 633.188 619.442 637.679 615.116 642.047C613.82 639.542 612.528 637.007 611.232 634.502L611.212 634.471Z" fill="#C76A0B"/>
<path d="M611.212 634.471C570.644 677.362 543.94 686.069 508.606 736.964C491.006 765.894 484.311 798.368 484.449 831.605C488.674 730.151 559.002 704.704 615.096 642.017C614.719 638.534 612.269 637.251 611.212 634.471Z" fill="#904D08"/>
<path d="M520.044 841.595C519.213 835.485 518.869 829.345 519.016 822.929C520.344 842.97 524.26 860.138 533.668 874.772C532.401 876.574 531.153 878.407 529.885 880.209C524.241 868.417 521.064 856.167 520.047 841.565L520.044 841.595Z" fill="#C76A0B"/>
<path d="M699.025 717.626C695.689 723.766 692.353 729.907 689.184 736.2C696.554 741.454 704.216 747.167 711.583 752.452C714.849 746.128 718.199 739.469 721.232 733.359C713.862 728.104 706.392 722.911 699.048 717.626H699.025Z" fill="white"/>
<path d="M629.198 615.286C623.228 621.732 617.316 628.269 611.213 634.471C612.508 636.976 613.804 639.481 615.097 642.016C619.4 637.648 623.602 633.157 627.788 628.605C632.415 637.678 637.068 646.721 641.694 655.794C643.459 653.87 645.22 651.976 646.985 650.051C641.066 638.442 635.121 626.864 629.198 615.286Z" fill="#FFEEDC"/>
<path d="M627.811 628.606C623.625 633.157 619.419 637.679 615.12 642.017C619.769 651.09 624.272 660.041 628.952 669.053C633.478 664.745 637.558 660.316 641.717 655.794C637.091 646.721 632.441 637.648 627.811 628.606Z" fill="white"/>
<path d="M519.683 829.07C520.912 847.185 525.464 861.452 533.688 874.802C534.929 873.03 536.17 871.258 537.388 869.486C528.39 858.244 522.638 845.597 519.679 829.1L519.683 829.07Z" fill="#904D08"/>
<path d="M537.388 869.486C537.388 869.486 534.872 873.122 533.688 874.802C549.007 895.973 595.03 917.357 633.738 857.419C658.202 815.353 665.816 782.299 689.187 736.169C687.688 733.634 685.498 732.29 683.048 731.801C660.58 775.7 654.166 805.15 631.54 846.055C603.586 896.584 566.307 895.942 537.388 869.486Z" fill="#904D08"/>
<path d="M696.381 706.934C691.903 715.182 687.386 723.369 683.117 731.801C685.154 733.267 687.195 734.703 689.256 736.169C692.426 729.876 695.758 723.766 699.097 717.595C706.468 722.85 713.838 728.104 721.206 733.389C722.348 731.281 723.486 729.204 724.605 727.096C715.197 720.375 705.789 713.655 696.381 706.934Z" fill="#FFEEDC"/>
<path d="M646.092 574.625C643.88 580.002 643.503 585.225 643.539 590.847C643.551 597.079 643.828 604.197 639.585 609.237C637.662 611.528 639.963 614.889 641.885 612.598C645.169 608.687 646.689 603.524 647.119 598.239C647.687 591.183 646.212 583.881 649.085 576.977C650.296 574.075 647.33 571.692 646.115 574.625H646.092Z" fill="#C76A0B"/>
<path d="M668.471 584.92C662.008 587.883 660.222 596.132 658.044 603.586C655.372 612.72 649.401 618.188 643.319 623.412C641.174 625.245 642.643 629.43 644.814 627.567C649.671 623.381 654.691 618.982 658.244 612.75C660.179 609.359 661.306 605.602 662.328 601.753C663.558 597.109 665.047 591.427 669.032 589.594C671.387 588.525 670.853 583.82 668.475 584.889L668.471 584.92Z" fill="#C76A0B"/>
<path d="M682.215 611.926C682.012 613.667 674.789 616.05 673.581 616.752C671.361 618.036 669.213 619.502 667.089 621.152C662.312 624.848 657.825 629.217 653.361 633.585C651.287 635.601 653.614 638.931 655.662 636.946C661.236 631.538 666.889 626.039 673.071 622.129C676.074 620.235 679.121 619.349 682.158 617.761C684.29 616.63 685.583 614.614 685.913 611.773C686.279 608.626 682.581 608.779 682.192 611.926H682.215Z" fill="#C76A0B"/>
<path d="M708.12 668.075C706.746 677.912 711.501 690.04 705.734 699.083C704.076 701.679 706.868 704.368 708.527 701.771C715.303 691.17 710.224 679.653 711.787 668.381C712.222 665.234 708.577 664.928 708.143 668.075H708.12Z" fill="#C76A0B"/>
<path d="M735.411 663.218C731.037 668.197 726.697 673.482 724.739 680.631C723.612 684.786 722.984 689.001 721.523 693.065C719.967 697.341 717.871 701.129 715.37 704.643C713.61 707.117 716.403 709.805 718.162 707.331C722.124 701.74 725.066 695.233 726.756 688.207C727.752 683.991 728.389 679.898 730.486 676.11C732.435 672.597 735.003 669.694 737.496 666.853C739.434 664.623 737.395 660.988 735.434 663.218H735.411Z" fill="#C76A0B"/>
<path d="M745.016 692.392C742.156 698.594 738.047 702.871 732.882 704.765C728.656 706.292 724.917 707.392 721.577 711.791C719.755 714.205 722.552 716.862 724.37 714.479C728.308 709.286 734.796 709.867 739.435 706.17C743.214 703.146 746.08 698.869 748.354 693.95C749.677 691.079 746.335 689.551 745.039 692.392H745.016Z" fill="#C76A0B"/>
</g>
<defs>
<clipPath id="clip0_15_1685">
<rect width="1589.39" height="1015.96" fill="white" transform="matrix(1 0 -0.115457 0.993312 117.3 0)"/>
</clipPath>
</defs>
</svg>
