<svg width="865" height="559" viewBox="0 0 865 559" fill="none" xmlns="http://www.w3.org/2000/svg">
<path d="M274.192 389.34C272.372 388.419 270.441 387.69 268.423 387.185C268.058 389.043 266.024 390.99 263.087 390.811C261.768 390.722 259.406 390.098 258.201 389.667C254.746 388.419 250.419 389.147 246.867 391.569C249.053 389.593 251.271 387.601 253.708 386.041C256.145 384.48 259.335 382.221 261.953 382.191C264.481 382.162 268.122 382.964 268.464 386.189C269.961 386.546 271.429 387.022 272.839 387.616C270.676 384.763 268.647 381.79 266.765 378.699C266.706 378.699 266.661 378.699 266.606 378.654C264.61 377.584 262.494 376.767 260.272 376.217C259.922 378.075 257.887 380.036 254.936 379.843C253.617 379.754 251.255 379.13 250.051 378.699C246.596 377.45 242.269 378.179 238.716 380.601C240.903 378.625 243.121 376.633 245.558 375.073C247.995 373.512 251.185 371.253 253.802 371.223C256.33 371.194 259.971 371.996 260.313 375.221C262.247 375.682 264.112 376.336 265.881 377.183C264.137 374.196 262.54 371.104 261.087 367.924C259.105 366.854 256.973 366.051 254.753 365.487C254.403 367.344 252.367 369.306 249.417 369.113C248.098 369.024 245.736 368.4 244.531 367.969C241.076 366.72 236.75 367.448 233.197 369.871C235.383 367.894 237.601 365.903 240.038 364.342C242.475 362.782 245.666 360.523 248.283 360.493C250.811 360.463 254.452 361.266 254.794 364.491C256.755 364.966 258.649 365.635 260.446 366.497C259.773 364.966 259.118 363.406 258.509 361.831C258.005 360.508 257.55 359.155 257.078 357.818C255.634 356.361 254.05 355.083 252.324 353.998C251.519 355.782 249.174 357.194 246.528 356.183C245.342 355.722 243.341 354.429 242.341 353.656C239.493 351.427 235.349 350.966 231.49 352.423C233.998 351.026 236.52 349.629 239.15 348.722C241.78 347.816 245.273 346.419 247.672 347.117C249.997 347.801 253.118 349.614 252.621 352.988C253.945 353.805 255.197 354.726 256.377 355.752C255.04 351.576 253.956 347.281 253.075 342.911C251.833 341.128 250.407 339.523 248.825 338.096C247.821 339.79 245.363 340.89 242.928 339.478C241.838 338.839 240.082 337.234 239.22 336.298C236.768 333.622 232.831 332.537 228.915 333.459C231.517 332.404 234.302 330.546 236.963 330.011C239.625 329.476 243.014 329.357 245.235 330.427C247.386 331.453 250.166 333.756 249.223 337.115C250.458 338.185 251.604 339.374 252.636 340.652C251.925 336.743 251.402 332.76 251.065 328.718C251.039 328.688 251.011 328.673 250.986 328.629C249.81 326.667 248.434 324.884 246.854 323.308C245.78 324.973 243.29 325.954 240.962 324.393C239.908 323.695 238.256 321.971 237.444 320.99C235.144 318.166 231.307 316.858 227.384 317.586C230.015 316.665 232.903 314.956 235.563 314.554C238.224 314.153 241.52 314.198 243.684 315.372C245.762 316.516 248.401 318.998 247.312 322.327C248.625 323.62 249.832 325.062 250.891 326.622C250.606 322.387 250.506 318.106 250.634 313.796C250.647 313.678 250.619 311.864 250.248 309.145C248.62 309.784 246.562 309.115 245.759 306.514C245.368 305.251 245.058 302.65 245.011 301.253C244.834 297.255 242.715 293.762 239.468 292.142C241.885 292.811 244.315 293.495 246.462 294.684C248.609 295.873 251.614 297.27 252.547 299.648C253.446 301.937 254.056 305.816 251.495 308.312C251.73 310.021 251.856 311.76 251.845 313.529C251.843 313.544 251.841 313.559 251.84 313.573C251.829 313.663 251.834 313.752 251.838 313.841C251.833 313.886 251.828 313.93 251.823 313.975C251.763 316.546 251.778 319.117 251.856 321.658C252.634 319.845 253.527 318.077 254.534 316.353C254.536 316.338 254.507 316.323 254.494 316.308C252.609 313.633 254.926 309.769 256.869 307.569C258.813 305.37 262.054 303.705 264.715 302.784C267.376 301.862 270.474 302.07 273.18 301.669C269.227 302.903 265.649 306.053 263.8 309.888C263.151 311.225 261.774 313.692 260.844 314.881C258.914 317.348 256.537 317.75 255.169 316.932C253.897 319.132 252.811 321.406 251.941 323.754C252.144 327.915 252.547 332.032 253.138 336.075C254.013 333.816 255.075 331.616 256.308 329.491C254.84 326.83 257.099 323.07 258.966 320.886C260.902 318.627 264.105 316.903 266.728 315.922C269.352 314.941 272.365 315.104 275.016 314.658C271.129 315.966 267.571 319.206 265.696 323.13C265.044 324.497 263.647 327.009 262.714 328.227C260.652 330.932 258.119 331.259 256.867 330.204C255.537 332.523 254.419 334.945 253.533 337.427C253.491 337.531 253.438 337.605 253.371 337.665C253.555 338.78 253.739 339.894 253.953 341.009C254.519 343.981 255.211 346.894 255.996 349.777C256.837 347.682 257.838 345.631 258.979 343.654C257.525 340.994 259.77 337.234 261.65 335.064C263.586 332.805 266.788 331.081 269.412 330.1C272.035 329.119 275.049 329.283 277.7 328.837C273.813 330.145 270.255 333.385 268.38 337.308C267.728 338.675 266.331 341.187 265.397 342.406C263.337 345.096 260.803 345.438 259.566 344.382C258.326 346.567 257.255 348.841 256.402 351.174C257.472 354.949 258.716 358.635 260.137 362.217C261.034 359.898 262.118 357.639 263.371 355.47C261.903 352.809 264.162 349.049 266.029 346.864C267.965 344.605 271.168 342.881 273.791 341.901C276.415 340.92 279.428 341.083 282.079 340.637C278.193 341.945 274.634 345.185 272.759 349.109C272.107 350.476 270.71 352.988 269.777 354.206C267.715 356.911 265.182 357.238 263.93 356.183C262.6 358.501 261.482 360.924 260.596 363.406C261.923 366.646 263.41 369.782 265.028 372.828C265.93 370.465 267.018 368.177 268.289 365.977C266.847 363.346 269.07 359.646 270.918 357.491C272.836 355.261 275.992 353.552 278.567 352.601C281.142 351.65 284.127 351.799 286.734 351.353C282.909 352.646 279.386 355.841 277.532 359.705C276.882 361.058 275.503 363.54 274.588 364.729C272.546 367.389 270.059 367.716 268.835 366.676C267.524 368.964 266.426 371.342 265.543 373.794C265.543 373.794 265.541 373.809 265.54 373.824C267.164 376.811 268.922 379.68 270.811 382.444C271.703 380.17 272.767 377.956 274.002 375.816C272.533 373.155 274.793 369.395 276.66 367.211C278.595 364.952 281.798 363.228 284.422 362.247C287.045 361.266 290.059 361.429 292.709 360.983C288.823 362.291 285.265 365.531 283.39 369.455C282.738 370.822 281.341 373.334 280.407 374.552C278.347 377.242 275.813 377.584 274.576 376.529C273.336 378.714 272.267 380.973 271.413 383.306C271.631 383.618 271.832 383.945 272.05 384.257C281.569 397.589 294.162 408.245 308.796 415.349C309.447 415.661 308.829 416.865 308.165 416.538C299.893 412.525 292.272 407.412 285.468 401.304C281.425 397.663 277.691 393.68 274.275 389.4L274.192 389.34Z" fill="#FFCC98"/>
<path d="M701.114 494.816C701.592 492.497 704.368 490.981 706.672 491.204C708.976 491.427 710.785 492.958 712.186 494.652C714.466 497.402 715.874 500.449 717.214 503.703C717.426 500.211 717.757 496.718 718.206 493.24C718.504 490.937 718.846 488.633 719.248 486.33C714.081 485.809 709.26 483.714 705.603 480.355C704.226 479.092 702.933 477.368 703.342 475.391C703.834 473.088 706.611 471.557 708.9 471.78C711.189 472.003 713 473.519 714.401 475.213C716.762 478.037 718.186 481.202 719.555 484.591C720.857 477.502 722.665 470.427 725.053 463.502C720.223 462.134 715.968 459.296 713.014 455.402C711.874 453.901 710.904 451.969 711.635 450.051C712.478 447.807 715.414 446.707 717.601 447.302C719.787 447.896 721.296 449.695 722.387 451.612C724.148 454.718 725.022 457.988 725.783 461.465C728.422 454.183 731.805 446.797 736.893 440.673C736.999 440.54 737.117 440.421 737.22 440.302C732.649 438.251 728.857 434.758 726.529 430.374C725.647 428.71 724.978 426.629 725.952 424.801C727.097 422.661 730.119 421.977 732.15 422.884C734.195 423.79 735.393 425.826 736.167 427.907C737.532 431.578 737.862 435.293 738.103 439.262C744.153 432.321 751.395 426.302 757.212 419.183C752.534 417.147 748.658 413.61 746.278 409.151C745.396 407.487 744.727 405.406 745.701 403.578C746.846 401.438 749.868 400.754 751.899 401.661C753.945 402.567 755.142 404.603 755.916 406.684C757.331 410.444 757.632 414.279 757.859 418.366C759.278 416.567 760.616 414.695 761.802 412.718C764.21 408.705 765.78 404.321 766.614 399.848C761.281 399.208 756.356 396.86 752.731 393.219C751.408 391.881 750.196 390.098 750.693 388.136C751.273 385.847 754.097 384.421 756.374 384.748C758.637 385.075 760.379 386.665 761.699 388.419C764.119 391.629 765.439 395.181 766.757 399C767.957 391.763 767.252 384.332 765.043 377.896C760.369 376.722 756.197 374.196 753.172 370.659C751.949 369.232 750.865 367.374 751.495 365.427C752.222 363.153 755.114 361.92 757.331 362.38C759.561 362.856 761.17 364.565 762.375 366.408C764.288 369.351 765.341 372.501 766.282 375.845C766.378 375.92 766.469 376.039 766.511 376.187C768.525 381.612 769.327 387.557 769.077 393.561C769.028 394.884 768.918 396.221 768.762 397.559C771.099 393.13 774.589 389.191 778.79 386.338C780.526 385.149 782.677 384.123 784.485 384.763C786.593 385.521 787.14 388.389 786.125 390.574C785.109 392.758 782.969 394.334 780.819 395.478C776.807 397.618 772.777 398.614 768.464 399.61C768.02 402.404 767.307 405.198 766.217 407.888C764.564 411.96 762.225 415.631 759.509 419.079C763.595 415.794 768.5 413.565 773.493 412.763C775.502 412.436 777.788 412.436 778.996 413.862C780.416 415.527 779.535 418.484 777.675 420.09C775.8 421.695 773.292 422.2 770.95 422.304C766.474 422.512 762.552 421.561 758.357 420.506C753.736 426.079 748.21 431.087 743.234 436.245C741.671 437.865 740.148 439.529 738.725 441.238C743.001 437.478 748.317 434.922 753.738 434.03C755.748 433.703 758.018 433.703 759.242 435.13C760.661 436.794 759.795 439.752 757.92 441.357C756.046 442.962 753.537 443.468 751.21 443.572C746.63 443.78 742.636 442.799 738.324 441.729C736.825 443.572 735.422 445.489 734.198 447.54C731.954 451.3 730.105 455.253 728.52 459.251C728.097 460.321 727.689 461.391 727.296 462.461C730.866 458.731 735.393 455.892 740.202 454.361C742.171 453.737 744.468 453.381 745.912 454.584C747.602 455.981 747.178 458.984 745.545 460.826C743.912 462.669 741.464 463.546 739.14 464.007C734.83 464.854 730.872 464.587 726.655 464.245C724.316 471.007 722.598 477.947 721.33 484.873C724.072 480.296 728.097 476.387 732.764 473.756C734.586 472.731 736.804 471.899 738.531 472.716C740.54 473.682 740.797 476.61 739.581 478.72C738.365 480.831 736.115 482.198 733.883 483.149C729.639 484.962 725.522 485.557 721.105 486.166C720.938 487.088 720.786 488.009 720.651 488.916C719.856 493.954 719.282 499.022 719.008 504.075C721.747 499.661 725.683 495.871 730.237 493.315C732.059 492.289 734.279 491.442 736.004 492.274C738.013 493.24 738.27 496.168 737.054 498.279C735.838 500.389 733.588 501.756 731.356 502.708C727.238 504.461 723.222 505.086 718.941 505.68C718.691 511.432 718.817 517.153 719.419 522.771C719.551 523.945 717.661 524.272 717.544 523.098C716.934 517.421 716.814 511.64 717.086 505.829C711.889 505.308 707.042 503.183 703.373 499.795C701.983 498.517 700.692 496.778 701.101 494.801L701.114 494.816Z" fill="#FFCC98"/>
<path d="M798.269 518.818H37.7635C23.9291 519.353 4.69222 523.187 3.76061 526.576C2.68582 530.425 23.4007 531.867 39.1819 532.06C73.7434 532.476 108.303 532.907 142.865 533.323C146.026 533.368 149.352 533.413 152.024 533.814C159.425 534.914 156.639 537.931 149.569 539.253C142.5 540.576 133.222 540.844 124.847 541.572C116.488 542.3 107.828 543.935 108.119 546.06C108.514 548.958 123.689 549.999 135.616 550.192C185.322 551.009 235.41 550.861 285.252 549.731C306.25 549.256 330.11 548.825 345.198 552.287C349.548 553.283 352.88 554.561 357.895 555.364C396.749 561.517 463.124 557.459 505.732 557.92C550.696 558.411 596.605 558.871 640.287 555.869C652.468 555.037 665.781 553.595 670.268 550.712C675.031 547.65 667.772 544.425 662.256 541.512C656.739 538.599 653.736 534.616 664.068 532.476C669.547 531.347 677.174 531.139 684.276 531.079C719.709 530.812 756.694 532.996 789.636 529.608C807.34 527.78 806.773 522.89 798.271 518.803L798.269 518.818Z" fill="#4E5488"/>
<path d="M228.486 22.3373C226.466 21.3415 223.408 21.8171 221.631 24.0018C219.729 26.35 220.509 29.4116 220.587 29.7683C220.664 29.8723 220.727 29.9763 220.804 30.0804C220.727 29.9763 220.649 29.8723 220.587 29.7683C220.297 29.5602 217.739 27.7916 214.958 28.8468C212.364 29.8277 210.903 32.6367 211.158 34.9403C211.593 39.1611 217.604 40.3946 218.289 40.5432C222.358 41.3904 225.722 39.5624 226.881 38.849C226.912 38.8341 226.929 38.8193 226.945 38.8044C226.979 38.7747 226.995 38.7598 227.029 38.7301C228.062 37.8086 230.665 35.2078 231.229 31.1207C231.329 30.3925 232.187 24.1653 228.471 22.3373H228.486Z" fill="white"/>
<path d="M118.184 85.6197C116.502 85.8278 114.723 87.2545 114.446 89.1272C114.138 91.1335 115.811 92.5454 116.001 92.7089L116.26 92.7981C116.174 92.7684 116.087 92.7386 116.001 92.7089C115.732 92.7089 113.419 92.694 112.049 94.3289C110.767 95.8448 110.925 97.9552 111.969 99.1293C113.884 101.284 118.205 99.7089 118.704 99.5306C121.636 98.4605 123.081 96.1866 123.551 95.3544C123.552 95.3395 123.569 95.3246 123.586 95.3098C123.589 95.28 123.591 95.2652 123.609 95.2355C123.922 94.3437 124.577 91.9212 123.355 89.4541C123.136 89.0231 121.275 85.2482 118.198 85.6346L118.184 85.6197Z" fill="white"/>
<path d="M657.966 303.066C658.788 301.52 658.581 299.44 657.099 298.444C655.504 297.389 653.264 298.28 652.998 298.384C652.916 298.444 652.833 298.518 652.766 298.578C652.848 298.518 652.916 298.444 652.998 298.384C653.158 298.162 654.557 296.155 653.933 294.327C653.355 292.618 651.404 291.92 649.741 292.351C646.69 293.153 645.512 297.508 645.365 297.998C644.558 300.956 645.714 303.096 646.165 303.839C646.163 303.854 646.192 303.869 646.19 303.883C646.203 303.898 646.216 303.913 646.244 303.928C646.859 304.552 648.61 306.068 651.516 305.994C652.024 305.994 656.476 305.86 657.968 303.051L657.966 303.066Z" fill="white"/>
<path d="M615.169 182.817C615.136 181.168 613.902 179.577 612.012 179.518C610.002 179.459 608.386 181.287 608.195 181.51C608.227 181.242 608.494 178.938 606.988 177.764C605.575 176.679 603.422 177.081 602.106 178.255C599.69 180.41 600.824 184.527 600.948 185.002C601.716 187.781 603.865 188.955 604.673 189.327C604.688 189.327 604.701 189.342 604.714 189.357C604.744 189.357 604.759 189.357 604.787 189.372C605.676 189.565 608.067 189.936 610.708 188.42C611.173 188.153 615.219 185.849 615.167 182.832L615.169 182.817Z" fill="white"/>
<path d="M200.702 341.157C199.333 340.34 197.176 340.518 195.827 341.975C194.376 343.535 194.744 345.765 194.789 346.017C194.84 346.092 194.875 346.181 194.926 346.255C194.875 346.181 194.839 346.106 194.789 346.017C194.599 345.854 192.908 344.472 190.912 345.066C189.053 345.631 187.875 347.548 187.922 349.198C188.004 352.215 192.137 353.419 192.599 353.552C195.387 354.37 197.832 353.255 198.692 352.794C198.707 352.794 198.724 352.779 198.74 352.765C198.757 352.75 198.774 352.735 198.805 352.72C199.576 352.126 201.539 350.402 202.142 347.533C202.245 347.028 203.188 342.644 200.689 341.143L200.702 341.157Z" fill="#FFDEF8"/>
<path d="M656.652 70.6091C656.619 68.9594 655.385 67.3692 653.495 67.3097C651.485 67.2503 649.869 69.0783 649.678 69.3012C649.71 69.0337 649.977 66.7301 648.471 65.556C647.058 64.4711 644.905 64.8724 643.589 66.0465C641.172 68.2014 642.307 72.3182 642.431 72.7938C643.199 75.573 645.347 76.7471 646.156 77.1187C646.171 77.1187 646.184 77.1335 646.199 77.1335C646.229 77.1335 646.244 77.1335 646.272 77.1484C647.16 77.3416 649.552 77.7131 652.193 76.1972C652.657 75.9297 656.704 73.6261 656.652 70.6091Z" fill="white"/>
<path d="M382.466 55.3606C381.04 54.6472 378.879 54.9891 377.624 56.5347C376.281 58.1993 376.822 60.3543 376.897 60.6069C376.948 60.6812 376.999 60.7555 377.05 60.8298L376.897 60.6069C376.69 60.4583 374.893 59.2099 372.925 59.953C371.096 60.6515 370.06 62.6282 370.228 64.263C370.54 67.2354 374.783 68.1271 375.266 68.2163C378.139 68.8108 380.513 67.5326 381.336 67.0125C381.351 67.0125 381.367 66.9976 381.384 66.9827C381.401 66.9679 381.417 66.953 381.451 66.9233C382.184 66.2694 384.026 64.4265 384.421 61.5432C384.48 61.0379 385.098 56.6239 382.469 55.3309L382.466 55.3606Z" fill="white"/>
<path d="M202.912 208.559C201.486 207.845 199.326 208.187 198.07 209.733C196.727 211.397 197.268 213.552 197.343 213.805C197.136 213.656 195.34 212.408 193.371 213.151C191.542 213.849 190.506 215.826 190.674 217.461C190.986 220.433 195.229 221.325 195.712 221.414C198.585 222.009 200.96 220.73 201.782 220.21C201.797 220.21 201.813 220.195 201.83 220.181C201.847 220.166 201.863 220.151 201.897 220.121C202.63 219.467 204.472 217.624 204.867 214.741C204.926 214.236 205.544 209.822 202.916 208.529L202.912 208.559Z" fill="white"/>
<path d="M167.462 68.6473L171.425 83.6431L165.92 85.6346C163.332 86.5709 160.699 85.3225 160.044 82.8554L158.445 76.8215C157.791 74.3544 159.367 71.59 161.955 70.6537L167.46 68.6622L167.462 68.6473Z" fill="#8C91BE"/>
<path d="M191.239 76.1229C189.892 78.8426 173.498 82.9 173.498 82.9L169.535 67.9042C169.535 67.9042 171.787 65.6154 171.916 62.8362C172.027 60.0867 172.353 56.505 174.485 56.2821C176.632 56.0591 178.723 60.9487 177.129 65.1547C177.129 65.1547 184.382 60.3245 187.082 61.7662C189.644 63.1186 192.507 73.5666 191.256 76.108L191.239 76.1229Z" fill="#8C91BE"/>
<path d="M108.235 289.943L112.198 304.939L106.694 306.93C104.105 307.866 101.472 306.618 100.818 304.151L99.2186 298.117C98.5643 295.65 100.14 292.886 102.729 291.949L108.233 289.958L108.235 289.943Z" fill="#8C91BE"/>
<path d="M132.029 297.404C130.683 300.123 114.288 304.181 114.288 304.181L110.325 289.185C110.325 289.185 112.577 286.896 112.706 284.117C112.817 281.367 113.143 277.786 115.275 277.563C117.422 277.34 119.513 282.229 117.919 286.435C117.919 286.435 125.172 281.605 127.873 283.047C130.434 284.399 133.297 294.847 132.046 297.389L132.029 297.404Z" fill="#8C91BE"/>
<path d="M748.936 6.01717L746.472 17.0597L742.827 16.6732C741.115 16.4949 740.051 14.8601 740.456 13.0469L741.45 8.60317C741.855 6.79 743.579 5.45242 745.291 5.63076L748.936 6.01717Z" fill="#8C91BE"/>
<path d="M759.706 18.2189C758.128 19.5862 747.844 17.2083 747.844 17.2083L750.307 6.16581C750.307 6.16581 752.255 5.3484 753.177 3.57982C754.1 1.81124 755.376 -0.432928 756.617 0.0723804C757.856 0.592551 757.5 4.42695 755.324 6.70084C755.324 6.70084 760.81 5.76454 761.844 7.53312C762.829 9.21253 761.184 16.9408 759.691 18.2189H759.706Z" fill="#8C91BE"/>
<path d="M713.655 154.208L714.934 167.495L719.479 166.558C721.622 166.112 723.184 163.987 722.974 161.802L722.461 156.452C722.252 154.267 720.342 152.841 718.2 153.272L713.655 154.208Z" fill="#8C91BE"/>
<path d="M698.444 170.571C700.183 172.057 713.204 167.851 713.204 167.851L711.926 154.565C711.926 154.565 709.654 153.807 708.803 151.741C707.953 149.675 706.732 147.074 705.117 147.862C703.501 148.65 703.329 153.346 705.651 155.858C705.651 155.858 699.043 155.397 697.49 157.701C696.011 159.885 696.812 169.189 698.442 170.586L698.444 170.571Z" fill="#8C91BE"/>
<path d="M565.395 56.5347L565.852 67.5029L569.579 66.9233C571.328 66.6558 572.705 64.9615 572.616 63.1632L572.427 58.7492C572.354 56.936 570.87 55.6876 569.107 55.9551L565.38 56.5347H565.395Z" fill="#8C91BE"/>
<path d="M549.346 69.3309C550.689 70.6239 561.439 67.7109 561.439 67.7109L560.981 56.7427C560.981 56.7427 559.167 56.0294 558.563 54.2905C557.971 52.5665 557.077 50.3669 555.74 50.9465C554.403 51.5262 554.06 55.3754 555.826 57.5304C555.826 57.5304 550.48 56.8765 549.117 58.7045C547.826 60.4285 548.083 68.1122 549.331 69.3309H549.346Z" fill="#8C91BE"/>
<path d="M540.994 106.397H333.051C324.97 106.397 317.688 112.758 316.779 120.575L272.169 504.372C271.259 512.205 277.064 518.551 285.145 518.551H493.088C501.169 518.551 508.464 512.205 509.374 504.372L553.985 120.575C554.895 112.743 549.075 106.397 540.994 106.397Z" fill="#171C47"/>
<path d="M548.896 94.8342H326.568C318.352 94.8342 310.916 101.626 309.943 109.993L262.945 514.33C261.971 522.712 267.829 529.504 276.044 529.504H498.372C506.587 529.504 514.024 522.712 514.998 514.33L561.996 109.993C562.971 101.611 557.111 94.8342 548.896 94.8342ZM287.355 518.551C279.483 518.551 273.843 512.205 274.753 504.372L319.364 120.575C320.274 112.743 327.39 106.397 335.277 106.397H415.416C416.461 106.397 417.201 107.229 417.125 108.269C416.379 118.286 423.945 126.446 434.192 126.446C444.439 126.446 453.885 118.301 455.484 108.269C455.65 107.229 456.568 106.397 457.614 106.397H537.768C542.443 106.397 546.337 108.626 548.533 112.089C548.775 112.446 548.984 112.832 549.179 113.218C549.373 113.605 549.55 114.006 549.696 114.422C549.842 114.838 549.986 115.269 550.085 115.7C550.199 116.131 550.282 116.577 550.348 117.038C550.515 118.168 550.526 119.357 550.385 120.575L505.774 504.372C505.631 505.606 505.345 506.78 504.913 507.924C504.742 508.37 504.556 508.816 504.34 509.262C504.125 509.693 503.896 510.124 503.655 510.525C503.412 510.941 503.142 511.343 502.858 511.729C502.148 512.695 501.341 513.602 500.426 514.404C499.708 515.058 498.938 515.638 498.119 516.128C497.507 516.514 496.87 516.856 496.223 517.154C495.576 517.451 494.887 517.718 494.206 517.926C492.813 518.343 491.368 518.565 489.889 518.565H287.384L287.355 518.551Z" fill="#222A74"/>
<path d="M425.433 110.172C426.112 104.331 431.428 99.59 437.313 99.59C443.199 99.59 447.413 104.331 446.734 110.172C446.055 116.013 440.737 120.768 434.852 120.768C428.966 120.768 424.752 116.027 425.433 110.172Z" fill="white"/>
<path d="M428.167 110.172C428.671 105.832 432.621 102.31 436.982 102.31C441.344 102.31 444.475 105.832 443.97 110.172C443.466 114.511 439.516 118.034 435.155 118.034C430.793 118.034 427.662 114.511 428.167 110.172Z" fill="#203794"/>
<path d="M346.143 374.151H317.927C314.388 374.151 311.187 377.006 310.778 380.527L308.05 403.994C307.641 407.515 310.178 410.37 313.717 410.37H341.934C345.473 410.37 348.674 407.515 349.083 403.994L351.811 380.527C352.22 377.006 349.683 374.151 346.143 374.151Z" fill="#FFCC98"/>
<path d="M395.392 374.151H367.175C363.636 374.151 360.435 377.006 360.026 380.527L357.298 403.994C356.889 407.515 359.426 410.37 362.965 410.37H391.182C394.721 410.37 397.922 407.515 398.331 403.994L401.059 380.527C401.468 377.006 398.931 374.151 395.392 374.151Z" fill="#8C91BE"/>
<path d="M450.655 374.151H422.439C418.9 374.151 415.699 377.006 415.289 380.527L412.562 403.994C412.152 407.515 414.69 410.37 418.229 410.37H446.445C449.985 410.37 453.185 407.515 453.595 403.994L456.322 380.527C456.732 377.006 454.194 374.151 450.655 374.151Z" fill="#FFCC98"/>
<path d="M499.919 374.151H471.702C468.163 374.151 464.962 377.006 464.553 380.527L461.825 403.994C461.416 407.515 463.953 410.37 467.492 410.37H495.709C499.248 410.37 502.449 407.515 502.858 403.994L505.586 380.527C505.995 377.006 503.458 374.151 499.919 374.151Z" fill="#FFCC98"/>
<path d="M341.149 417.117H312.933C309.394 417.117 306.193 419.972 305.783 423.493L303.056 446.96C302.646 450.481 305.184 453.336 308.723 453.336H336.939C340.479 453.336 343.679 450.481 344.089 446.96L346.816 423.493C347.226 419.972 344.688 417.117 341.149 417.117Z" fill="#8C91BE"/>
<path d="M390.398 417.117H362.181C358.642 417.117 355.441 419.972 355.032 423.493L352.304 446.96C351.895 450.481 354.432 453.336 357.971 453.336H386.188C389.727 453.336 392.928 450.481 393.337 446.96L396.065 423.493C396.474 419.972 393.937 417.117 390.398 417.117Z" fill="#FFCC98"/>
<path d="M445.661 417.117H417.444C413.905 417.117 410.705 419.972 410.295 423.493L407.568 446.96C407.158 450.481 409.695 453.336 413.235 453.336H441.451C444.99 453.336 448.191 450.481 448.6 446.96L451.328 423.493C451.737 419.972 449.2 417.117 445.661 417.117Z" fill="#8C91BE"/>
<path d="M494.924 417.117H466.708C463.169 417.117 459.968 419.972 459.559 423.493L456.831 446.96C456.422 450.481 458.959 453.336 462.498 453.336H490.715C494.254 453.336 497.455 450.481 497.864 446.96L500.592 423.493C501.001 419.972 498.464 417.117 494.924 417.117Z" fill="#FFCC98"/>
<path d="M432.011 106.397C432.12 105.461 432.972 104.688 433.928 104.688C434.884 104.688 435.557 105.446 435.447 106.397C435.336 107.348 434.486 108.106 433.53 108.106C432.574 108.106 431.901 107.348 432.011 106.397Z" fill="white"/>
<path d="M505.214 231.357H338.632C332.824 231.357 327.572 236.041 326.9 241.82L313.612 356.138C312.941 361.917 317.104 366.601 322.912 366.601H489.494C495.301 366.601 500.554 361.917 501.226 356.138L514.513 241.82C515.185 236.041 511.021 231.357 505.214 231.357Z" fill="#FFCC98"/>
<path d="M340.613 335.242L379.637 289.17C381.715 286.718 385.424 286.807 386.801 289.348L410.407 332.998C411.884 335.718 415.946 335.599 417.889 332.76L425.678 321.391C427.693 318.448 431.95 318.448 433.281 321.391L437.64 331.051C439.078 334.232 443.821 333.905 445.561 330.501L465.069 292.469C467 288.709 472.376 288.843 473.247 292.663L483.07 336.402C483.698 339.225 481.253 342.138 478.266 342.138H343.322C339.752 342.138 338.159 338.111 340.598 335.242H340.613Z" fill="white"/>
<path d="M432.698 285.567C439.503 282.891 443.447 275.484 441.508 269.023C439.57 262.562 432.482 259.494 425.677 262.17C418.872 264.846 414.927 272.253 416.866 278.714C418.805 285.175 425.893 288.243 432.698 285.567Z" fill="white"/>
<path d="M387.111 268.438C386.872 268.438 386.644 268.467 386.415 268.512C386.451 268.334 386.485 268.17 386.505 267.992C386.83 265.198 384.822 262.939 382.014 262.939C379.624 262.939 377.431 264.588 376.636 266.803C376.155 266.312 375.474 266 374.682 266C373.577 266 372.552 266.595 371.927 267.472C371.445 267.249 370.906 267.13 370.324 267.13C368.024 267.13 365.957 268.973 365.691 271.261C365.425 273.55 367.063 275.393 369.363 275.393C370.334 275.393 371.269 275.066 372.036 274.501C373.264 275.631 375.448 276.374 378.018 276.374C380.423 276.374 382.635 275.72 384.141 274.709C384.697 275.2 385.439 275.497 386.29 275.497C388.247 275.497 390.028 273.922 390.257 271.96C390.485 269.998 389.084 268.423 387.113 268.423L387.111 268.438Z" fill="white"/>
<path d="M481.54 268.438C481.301 268.438 481.073 268.467 480.844 268.512C480.88 268.334 480.914 268.17 480.934 267.992C481.259 265.198 479.251 262.939 476.443 262.939C474.053 262.939 471.86 264.588 471.065 266.803C470.584 266.312 469.903 266 469.112 266C468.006 266 466.981 266.595 466.356 267.472C465.874 267.249 465.336 267.13 464.753 267.13C462.468 267.13 460.386 268.973 460.12 271.261C459.854 273.55 461.492 275.393 463.792 275.393C464.763 275.393 465.698 275.066 466.465 274.501C467.693 275.631 469.877 276.374 472.447 276.374C474.852 276.374 477.064 275.72 478.57 274.709C479.126 275.2 479.868 275.497 480.719 275.497C482.676 275.497 484.458 273.922 484.686 271.96C484.914 269.998 483.513 268.423 481.542 268.423L481.54 268.438Z" fill="white"/>
<path d="M305.485 467.722C301.451 467.722 297.802 470.977 297.335 474.99C297.173 476.387 297.424 477.695 297.969 478.795L295.895 482.629L300.642 481.499C301.557 481.975 302.63 482.257 303.795 482.257C307.828 482.257 311.478 479.003 311.944 474.99C312.411 470.977 309.518 467.722 305.485 467.722Z" fill="#8C91BE"/>
<path d="M465.642 471.304H328.577C327.756 471.304 327.161 470.635 327.256 469.818C327.351 469.001 328.101 468.332 328.923 468.332H465.988C466.809 468.332 467.404 469.001 467.309 469.818C467.214 470.635 466.464 471.304 465.642 471.304Z" fill="#8C91BE"/>
<path d="M383.046 479.85H327.584C326.762 479.85 326.168 479.181 326.263 478.364C326.358 477.546 327.108 476.877 327.929 476.877H383.392C384.213 476.877 384.808 477.546 384.713 478.364C384.618 479.181 383.868 479.85 383.046 479.85Z" fill="#8C91BE"/>
<path d="M412.037 479.85H395.576C394.755 479.85 394.16 479.181 394.255 478.364C394.35 477.546 395.1 476.877 395.922 476.877H412.383C413.204 476.877 413.799 477.546 413.704 478.364C413.609 479.181 412.859 479.85 412.037 479.85Z" fill="#8C91BE"/>
<path d="M302.726 491.457C298.693 491.457 295.043 494.712 294.577 498.725C294.414 500.122 294.666 501.43 295.21 502.529L293.136 506.364L297.883 505.234C298.799 505.71 299.871 505.992 301.036 505.992C305.069 505.992 308.719 502.737 309.185 498.725C309.652 494.712 306.759 491.457 302.726 491.457Z" fill="#8C91BE"/>
<path d="M462.884 495.039H325.818C324.997 495.039 324.402 494.37 324.497 493.553C324.592 492.735 325.342 492.066 326.164 492.066H463.229C464.051 492.066 464.645 492.735 464.55 493.553C464.455 494.37 463.705 495.039 462.884 495.039Z" fill="#8C91BE"/>
<path d="M380.288 503.584H324.825C324.004 503.584 323.409 502.916 323.504 502.098C323.599 501.281 324.349 500.612 325.171 500.612H380.633C381.455 500.612 382.049 501.281 381.954 502.098C381.859 502.916 381.109 503.584 380.288 503.584Z" fill="#8C91BE"/>
<path d="M409.279 503.584H392.818C391.996 503.584 391.402 502.916 391.497 502.098C391.592 501.281 392.341 500.612 393.163 500.612H409.624C410.446 500.612 411.04 501.281 410.945 502.098C410.85 502.916 410.1 503.584 409.279 503.584Z" fill="#8C91BE"/>
<path d="M499.811 198.65C517.216 198.361 532.718 184.115 534.436 166.831C536.154 149.547 523.437 135.771 506.032 136.06C488.627 136.35 473.125 150.596 471.407 167.88C469.689 185.163 482.406 198.94 499.811 198.65Z" fill="#FFCC98"/>
<path d="M502.06 170.675C508.8 170.675 514.896 165.239 515.675 158.533C516.454 151.827 511.622 146.391 504.883 146.391C498.143 146.391 492.047 151.827 491.267 158.533C490.488 165.239 495.32 170.675 502.06 170.675Z" fill="white"/>
<path d="M513.251 170.779C512.353 170.021 510.977 170.036 509.929 170.824C507.625 172.533 504.817 173.558 501.889 173.558C498.961 173.558 496.564 172.592 494.674 170.987C493.778 170.214 492.387 170.229 491.336 171.047C488.628 173.142 486.782 176.174 486.324 180.112L486.283 180.469C486.046 182.505 487.512 184.155 489.559 184.155H512.383C514.429 184.155 516.279 182.505 516.516 180.469L516.557 180.112C517.034 176.011 515.724 172.89 513.251 170.779Z" fill="white"/>
<path d="M456.204 143.819C449.714 142.214 448.781 148.308 448.781 148.308C448.781 148.308 449.201 142.259 442.342 143.819C435.407 145.395 435.991 156.824 444.432 161.178C446.11 162.04 448.186 162.04 450.064 161.178C459.546 156.839 462.884 145.469 456.191 143.805L456.204 143.819Z" fill="white"/>
<path d="M395.879 146.093L394.345 159.291H389.7C387.519 159.291 385.947 157.522 386.199 155.352L386.817 150.032C387.07 147.862 389.053 146.093 391.234 146.093H395.879Z" fill="#8C91BE"/>
<path d="M411.183 159.008C409.375 160.807 396.106 159.306 396.106 159.306L397.64 146.108C397.64 146.108 400.381 143.73 401.294 141.531C402.204 139.361 403.152 136.21 404.788 136.656C406.425 137.102 406.465 143.18 404.05 146.093C404.05 146.093 410.828 144.325 412.396 146.257C413.871 148.085 412.888 157.314 411.199 158.993L411.183 159.008Z" fill="#8C91BE"/>
<path d="M518.174 210.58H332.13C331.487 210.58 331.025 210.059 331.099 209.42C331.174 208.781 331.757 208.261 332.399 208.261H518.444C519.086 208.261 519.549 208.781 519.474 209.42C519.4 210.059 518.817 210.58 518.174 210.58Z" fill="#8C91BE"/>
<path d="M517.268 218.382H331.223C330.58 218.382 330.118 217.862 330.192 217.223C330.267 216.584 330.85 216.064 331.492 216.064H517.537C518.179 216.064 518.642 216.584 518.567 217.223C518.493 217.862 517.91 218.382 517.268 218.382Z" fill="#8C91BE"/>
<path d="M400.037 167.509H384.293C383.83 167.509 383.485 167.138 383.54 166.662C383.594 166.202 384.012 165.815 384.49 165.815H400.234C400.697 165.815 401.042 166.187 400.987 166.662C400.933 167.123 400.515 167.509 400.037 167.509Z" fill="#8C91BE"/>
<path d="M410.03 167.509H404.683C404.22 167.509 403.874 167.138 403.93 166.662C403.983 166.202 404.401 165.815 404.879 165.815H410.227C410.69 165.815 411.035 166.187 410.98 166.662C410.926 167.123 410.508 167.509 410.03 167.509Z" fill="#8C91BE"/>
<path d="M448.88 167.509H433.136C432.673 167.509 432.328 167.138 432.383 166.662C432.436 166.202 432.855 165.815 433.333 165.815H449.077C449.54 165.815 449.885 166.187 449.83 166.662C449.776 167.123 449.358 167.509 448.88 167.509Z" fill="white"/>
<path d="M461.873 167.509H456.525C456.062 167.509 455.717 167.138 455.772 166.662C455.826 166.202 456.244 165.815 456.722 165.815H462.07C462.533 165.815 462.878 166.187 462.823 166.662C462.769 167.123 462.351 167.509 461.873 167.509Z" fill="white"/>
<path d="M460.523 176.189H457.341C457.162 176.189 457.002 176.278 456.897 176.412H456.165C454.612 176.412 453.195 177.675 453.016 179.221L453 179.354L431.696 181.182L431.354 191.452H451.728C452.097 192.136 452.043 192.983 451.583 193.726C451.09 194.499 450.275 194.96 449.409 194.96H433.65L432.256 197.308C432.256 197.308 432.139 197.293 432.079 197.293C431.541 197.293 431.058 197.724 430.996 198.259C430.934 198.794 431.317 199.225 431.854 199.225C432.392 199.225 432.875 198.794 432.938 198.259C432.969 197.991 432.892 197.754 432.731 197.59L433.252 196.713H450.28L450.767 197.664C450.567 197.843 450.435 198.081 450.404 198.348C450.342 198.883 450.725 199.314 451.263 199.314C451.8 199.314 452.284 198.883 452.346 198.348C452.408 197.813 452.025 197.382 451.487 197.382C451.427 197.382 451.383 197.382 451.338 197.382L450.301 195.376C451.016 195.138 451.656 194.647 452.077 193.979C452.664 193.042 452.719 191.928 452.221 191.066L453.517 179.919L453.598 179.221C453.741 177.987 454.875 176.977 456.114 176.977H456.846C456.92 177.11 457.074 177.199 457.239 177.199H460.42C460.704 177.199 460.954 176.977 460.987 176.694C461.02 176.412 460.822 176.189 460.538 176.189H460.523ZM433.553 196.178L433.942 195.524H449.343C449.462 195.524 449.567 195.524 449.673 195.509L450.014 196.178H433.538H433.553ZM447.524 190.873L447.681 189L449.736 188.926L449.57 190.873H447.524ZM445.178 190.873L445.326 189.089L447.381 189.015L447.225 190.873H445.178ZM442.833 190.873L442.972 189.163L445.027 189.089L444.88 190.873H442.833ZM440.488 190.873L440.617 189.253L442.672 189.178L442.534 190.873H440.488ZM438.143 190.873L438.263 189.327L440.318 189.253L440.189 190.873H438.143ZM435.798 190.873L435.922 189.416L437.977 189.342L437.859 190.873H435.813H435.798ZM433.453 190.873L433.568 189.49L435.623 189.416L435.499 190.873H433.453ZM432.158 185.047L432.226 183.174L433.787 183.115L433.629 184.987L432.16 185.032L432.158 185.047ZM433.613 185.255L433.455 187.127L432.09 187.172L432.158 185.299L433.613 185.255ZM432.076 187.425L433.44 187.38L433.282 189.253L432.022 189.297L432.091 187.425H432.076ZM436.278 181.346L436.155 182.788L434.1 182.862L434.21 181.524L436.278 181.346ZM438.647 181.138L438.525 182.698L436.47 182.773L436.595 181.316L438.662 181.138H438.647ZM441.016 180.93L440.881 182.609L438.826 182.684L438.949 181.108L441.016 180.93ZM443.386 180.722L443.236 182.52L441.181 182.594L441.319 180.9L443.386 180.722ZM445.755 180.514L445.592 182.431L443.537 182.505L443.688 180.692L445.755 180.514ZM448.124 180.306L447.962 182.342L445.907 182.416L446.072 180.484L448.139 180.306H448.124ZM450.494 180.098L450.318 182.253L448.263 182.327L448.427 180.276L450.494 180.098ZM450.115 184.645L449.957 186.518L447.902 186.592L448.059 184.72L450.115 184.645ZM448.089 184.467L448.247 182.594L450.302 182.52L450.144 184.393L448.089 184.467ZM449.942 186.771L449.784 188.643L447.729 188.718L447.887 186.845L449.942 186.771ZM447.759 184.735L447.601 186.607L445.546 186.681L445.704 184.809L447.759 184.735ZM445.733 184.556L445.891 182.684L447.946 182.609L447.788 184.482L445.733 184.556ZM447.587 186.86L447.429 188.732L445.374 188.807L445.532 186.934L447.587 186.86ZM445.405 184.809L445.247 186.681L443.192 186.756L443.35 184.883L445.405 184.809ZM443.379 184.63L443.537 182.758L445.592 182.684L445.435 184.556L443.379 184.63ZM445.233 186.934L445.075 188.807L443.02 188.881L443.178 187.008L445.233 186.934ZM443.05 184.898L442.892 186.771L440.837 186.845L440.995 184.972L443.05 184.898ZM441.024 184.72L441.182 182.847L443.237 182.773L443.079 184.645L441.024 184.72ZM442.877 187.023L442.719 188.896L440.664 188.97L440.822 187.098L442.877 187.023ZM440.694 184.987L440.536 186.86L438.481 186.934L438.639 185.061L440.694 184.987ZM438.668 184.809L438.826 182.936L440.881 182.862L440.723 184.735L438.668 184.809ZM438.467 187.187L440.522 187.112L440.364 188.985L438.309 189.059L438.467 187.187ZM436.284 185.151L438.339 185.076L438.181 186.949L436.126 187.023L436.284 185.151ZM436.313 184.898L436.471 183.025L438.526 182.951L438.368 184.824L436.313 184.898ZM438.166 187.202L438.008 189.074L435.953 189.149L436.111 187.276L438.166 187.202ZM435.983 185.166L435.825 187.038L433.77 187.112L433.928 185.24L435.983 185.166ZM433.957 184.987L434.115 183.115L436.17 183.04L436.012 184.913L433.957 184.987ZM433.756 187.365L435.811 187.291L435.653 189.163L433.598 189.238L433.756 187.365ZM452.202 186.473L450.252 186.548L450.41 184.675L452.42 184.601L452.202 186.473ZM452.449 184.348L450.424 184.422L450.582 182.55L452.667 182.475L452.449 184.348ZM450.237 186.8L452.173 186.726L451.955 188.599L450.081 188.658L450.239 186.785L450.237 186.8ZM452.696 182.223L450.612 182.297L450.791 180.112L452.964 179.919L452.698 182.208L452.696 182.223ZM433.938 181.554L433.829 182.877L432.254 182.936L432.293 181.703L433.936 181.569L433.938 181.554ZM432.038 189.55L433.298 189.505L433.184 190.873H432.004L432.053 189.55H432.038ZM449.914 190.873L450.082 188.911L451.941 188.851L451.706 190.873H449.914Z" fill="#8C91BE"/>
<path d="M419.536 183.783H368.345C367.838 183.783 367.481 183.382 367.54 182.877C367.598 182.371 368.048 181.97 368.556 181.97H419.747C420.254 181.97 420.611 182.371 420.552 182.877C420.494 183.382 420.044 183.783 419.536 183.783Z" fill="#8C91BE"/>
<path d="M417.99 197.085H366.799C366.291 197.085 365.935 196.684 365.994 196.178C366.052 195.673 366.502 195.272 367.01 195.272H418.2C418.708 195.272 419.065 195.673 419.006 196.178C418.947 196.684 418.497 197.085 417.99 197.085Z" fill="#8C91BE"/>
<path d="M387.734 190.338H378.07C377.562 190.338 377.205 189.936 377.264 189.431C377.323 188.926 377.773 188.524 378.28 188.524H387.945C388.453 188.524 388.809 188.926 388.751 189.431C388.692 189.936 388.242 190.338 387.734 190.338Z" fill="#8C91BE"/>
<path d="M418.565 190.338H391.11C390.602 190.338 390.245 189.936 390.304 189.431C390.363 188.926 390.813 188.524 391.321 188.524H418.776C419.283 188.524 419.64 188.926 419.581 189.431C419.523 189.936 419.073 190.338 418.565 190.338Z" fill="#8C91BE"/>
<path d="M246.062 435.501H219.937C219.937 435.501 204.77 479.24 206.434 487.415C208.968 499.928 215.856 512.502 215.957 520.631C216.007 523.931 213.901 527.78 213.901 527.78C216.139 528.315 219.699 525.58 223.159 523.054L221.365 519.472C220.22 513.126 218.97 491.62 218.65 487.563C218.284 483.001 230.837 455.58 230.837 455.58C227.973 476.372 226.205 510.599 224.994 522.816C224.994 522.816 223.484 531.183 226.384 531.287C229.345 531.391 229.959 522.638 229.959 522.638C236.412 490.253 252.723 453.886 246.047 435.501H246.062Z" fill="#F1CCCD"/>
<path d="M230.413 395.879C230.413 395.879 220.741 409.047 214.214 409.047C208.612 409.047 198.847 390.767 198.847 390.767C198.847 390.767 193.197 391.436 192.157 382.652C191.522 377.317 198.748 386.472 199.677 385.164C200.426 384.124 198.184 379.249 201.048 379.799C203.298 380.23 204.419 387.423 204.419 387.423C204.419 387.423 212.949 397.826 214.19 397.559C215.138 397.366 228.493 382.578 228.493 382.578L230.399 395.865L230.413 395.879Z" fill="#F1CCCD"/>
<path d="M233.988 368.459C233.144 366.081 231.132 365.784 231.674 361.637C232.177 357.699 236.515 355.841 239.154 355.886C240.809 355.915 242.207 356.867 243.82 357.119C245.492 357.387 247.299 356.881 249.008 356.956C252.989 357.149 255.957 361.043 255.167 365.011C254.732 367.211 253.324 369.559 254.143 371.506C254.972 373.497 257.575 373.854 259.624 374.597C261.288 375.191 262.793 376.247 263.57 377.792C264.344 379.353 264.233 381.463 262.998 382.964C262.127 384.034 260.728 384.763 260.266 386.041C259.696 387.601 260.83 389.028 261.799 390.202C262.782 391.376 263.676 393.07 262.72 394.482C261.945 395.627 260.364 395.865 259.045 395.775C257.741 395.686 256.353 395.419 255.117 396.028C253.773 396.667 253.006 398.124 251.876 399.104C250.581 400.219 248.823 400.695 247.226 400.561C245.626 400.442 244.165 399.773 242.91 398.882C240.079 396.89 238.177 393.724 237.705 390.202C237.006 385.164 239.07 379.487 237.122 374.909L234.005 368.444L233.988 368.459Z" fill="#171C47"/>
<path d="M247.889 419.911H221.764C221.764 419.911 209.735 449.115 207.607 464.988C207.512 465.805 208.138 466.459 208.971 466.355C224.038 464.468 232.62 469.803 245.02 467.083C246.231 466.816 247.2 465.805 247.43 464.601C250.735 446.574 251.682 430.33 247.904 419.911H247.889Z" fill="#222A74"/>
<path d="M247.889 419.911H242.945L246.348 420.194C249.201 430.983 246.877 447.257 242.096 465.122C241.779 466.311 240.729 467.247 239.515 467.41C237.451 467.693 235.502 467.752 233.629 467.678C237.252 467.99 240.93 467.96 245.007 467.068C246.218 466.801 247.187 465.79 247.417 464.586C250.722 446.559 251.669 430.315 247.876 419.896L247.889 419.911Z" fill="#171C47"/>
<path d="M221.474 421.115C229.534 422.973 238.137 421.308 247.182 420.729C248.145 420.669 249.075 419.733 248.85 418.841C244.182 400.531 248.555 395.032 251.22 383.157L241.398 377.317L235.766 377.45C235.766 377.45 226.256 381.775 223.561 389.414C218.934 402.493 230.353 399.476 221.017 420.164C220.835 420.58 221.053 421.011 221.474 421.115Z" fill="#C76A0B"/>
<path d="M247.197 420.729C246.76 420.758 246.323 420.788 245.902 420.818C246.378 420.446 246.683 419.882 246.537 419.332C244.806 412.51 242.935 397.633 243.874 391.867C245.452 382.147 251.201 383.321 251.201 383.321C248.535 395.077 244.218 400.605 248.865 418.841C249.09 419.733 248.174 420.669 247.212 420.729H247.197Z" fill="#904D08"/>
<path d="M247.057 398.926L252.688 403.682L233.342 403.964C233.342 403.964 226.779 397.707 224.141 403.697C221.307 410.087 228.766 410.563 231.085 409.761C231.085 409.761 258.923 416.226 262.878 409.062C266.851 401.869 251.849 383.915 251.849 383.915C248.68 378.669 239.192 390.901 247.085 398.941L247.057 398.926Z" fill="#F1CCCD"/>
<path d="M241.396 377.332C241.183 377.495 240.955 377.659 240.727 377.822C237.317 380.304 234.444 381.24 235.764 377.465L236.128 375.236L236.594 372.383L239.124 372.338L241.144 372.308C241.242 372.873 241.301 376.351 241.381 377.332H241.396Z" fill="#F1CCCD"/>
<path d="M240.727 377.822C240.886 376.707 240.973 374.939 239.788 375.236C238.11 375.667 236.113 375.236 236.113 375.236L237.834 372.769L239.124 372.338L241.144 372.308C241.243 372.873 241.301 376.351 241.382 377.332C241.168 377.495 240.94 377.659 240.712 377.822H240.727Z" fill="#F1BABB"/>
<path d="M235.765 361.652C235.582 361.429 235.18 361.548 235.099 361.86C234.47 364.312 231.799 372.516 235.087 374.166C237.98 375.622 241.623 373.453 243.745 368.563C245.627 367.538 246.779 366.111 246.018 364.818C245.018 363.138 242.924 365.992 242.924 365.992C242.924 365.992 239.108 365.665 235.763 361.667L235.765 361.652Z" fill="#F1CCCD"/>
<path d="M221.365 519.472C221.365 519.472 224.473 520.23 223.159 523.054C221.847 525.863 216.218 531.748 213.008 531.733C211.47 531.733 213.903 527.765 213.903 527.765C216.542 527.81 219.617 524.614 221.366 519.457L221.365 519.472Z" fill="#222A74"/>
<path d="M225.009 522.816C225.009 522.816 222.53 531.287 226.399 531.287C231.388 531.287 229.974 522.638 229.974 522.638C229.132 526.799 225.378 527.869 224.994 522.816H225.009Z" fill="#222A74"/>
<path d="M712.833 467.797H550.718C550.476 467.693 550.236 467.574 549.996 467.455C549.756 467.336 549.501 467.217 549.263 467.083C549.066 466.979 548.87 466.86 548.675 466.741C548.465 466.623 548.271 466.489 548.063 466.355C547.895 466.251 547.73 466.132 547.565 466.013C547.384 465.894 547.221 465.761 547.055 465.642C546.905 465.523 546.752 465.419 546.617 465.3C546.466 465.181 546.318 465.047 546.167 464.928C546.031 464.809 545.909 464.705 545.789 464.586C545.653 464.468 545.519 464.334 545.384 464.215C545.276 464.111 545.156 463.992 545.05 463.873C544.929 463.754 544.81 463.62 544.677 463.487C544.624 463.427 544.571 463.368 544.516 463.323C544.463 463.264 544.424 463.219 544.371 463.16C544.265 463.041 544.161 462.907 544.056 462.788C543.963 462.684 543.873 462.565 543.782 462.446C543.691 462.327 543.587 462.194 543.496 462.075C543.404 461.971 543.328 461.852 543.252 461.733C543.162 461.614 543.073 461.48 542.983 461.347C542.906 461.243 542.83 461.124 542.769 461.005C542.693 460.886 542.604 460.752 542.544 460.633C542.468 460.514 542.405 460.41 542.344 460.291C542.269 460.172 542.209 460.039 542.134 459.92C542.073 459.801 542.01 459.697 541.964 459.578C541.903 459.459 541.844 459.325 541.77 459.192C541.709 459.073 541.662 458.969 541.616 458.85H541.586L543.968 438.355H543.983C544.056 438.236 544.143 438.132 544.217 438.013C544.307 437.879 544.396 437.761 544.501 437.627C544.589 437.508 544.661 437.404 544.75 437.285C544.838 437.166 544.943 437.032 545.047 436.913C545.135 436.794 545.222 436.69 545.325 436.572C545.431 436.438 545.534 436.319 545.637 436.2C545.741 436.081 545.828 435.977 545.931 435.858C546.051 435.724 546.17 435.606 546.275 435.472C546.378 435.353 546.495 435.249 546.598 435.13C546.718 434.996 546.852 434.877 546.97 434.758C547.089 434.639 547.207 434.521 547.324 434.417C547.459 434.283 547.592 434.164 547.725 434.045C547.844 433.926 547.975 433.822 548.109 433.703C548.257 433.584 548.407 433.451 548.555 433.332C548.688 433.213 548.82 433.109 548.968 432.99C549.133 432.856 549.296 432.737 549.461 432.603C549.61 432.484 549.756 432.38 549.919 432.262C550.099 432.128 550.277 432.009 550.455 431.89C550.619 431.771 550.795 431.667 550.973 431.548C551.168 431.414 551.376 431.296 551.569 431.177C551.762 431.058 551.953 430.954 552.146 430.835C552.371 430.701 552.609 430.582 552.849 430.448C553.072 430.329 553.294 430.211 553.516 430.107C553.785 429.973 554.038 429.854 554.321 429.735C554.588 429.616 554.856 429.497 555.122 429.393H716.983C716.941 429.497 716.883 429.616 716.824 429.735C716.766 429.854 716.722 429.973 716.662 430.107C716.62 430.211 716.561 430.329 716.517 430.448C716.474 430.567 716.413 430.701 716.353 430.835C716.311 430.939 716.267 431.058 716.223 431.177C716.18 431.296 716.119 431.429 716.076 431.548C716.034 431.652 715.99 431.771 715.946 431.89C715.903 432.009 715.857 432.143 715.814 432.262C715.772 432.366 715.743 432.484 715.699 432.603C715.655 432.722 715.61 432.856 715.565 432.99C715.523 433.094 715.494 433.213 715.45 433.332C715.406 433.451 715.376 433.584 715.332 433.703C715.289 433.822 715.262 433.926 715.218 434.045C715.174 434.164 715.144 434.298 715.1 434.417C715.058 434.521 715.029 434.639 714.986 434.758C714.957 434.877 714.911 435.011 714.868 435.13C714.841 435.234 714.812 435.353 714.768 435.472C714.739 435.591 714.694 435.724 714.664 435.858C714.637 435.962 714.608 436.081 714.579 436.2C714.55 436.319 714.505 436.453 714.476 436.572C714.447 436.69 714.42 436.794 714.392 436.913C714.363 437.032 714.332 437.166 714.304 437.285C714.291 437.389 714.248 437.508 714.219 437.627C714.19 437.746 714.16 437.879 714.129 438.013C714.117 438.117 714.073 438.236 714.06 438.355C714.031 438.474 714 438.608 713.972 438.727C713.96 438.831 713.931 438.949 713.902 439.068C713.873 439.187 713.843 439.321 713.829 439.44C713.817 439.544 713.788 439.663 713.759 439.782C713.746 439.901 713.715 440.034 713.685 440.168C713.671 440.287 713.644 440.391 713.615 440.51C713.601 440.629 713.571 440.763 713.542 440.882C713.528 441 713.501 441.104 713.487 441.223C713.473 441.342 713.443 441.476 713.414 441.595C713.4 441.714 713.373 441.818 713.36 441.937C713.346 442.056 713.315 442.189 713.3 442.323C713.286 442.442 713.259 442.546 713.245 442.665C713.231 442.784 713.201 442.918 713.187 443.037C713.173 443.155 713.146 443.259 713.132 443.378C713.118 443.497 713.103 443.631 713.072 443.765C713.06 443.869 713.046 443.988 713.033 444.107C713.019 444.225 713.003 444.359 712.989 444.478C712.976 444.597 712.964 444.701 712.95 444.82C712.936 444.939 712.92 445.073 712.907 445.192C712.893 445.31 712.881 445.414 712.867 445.533C712.853 445.652 712.837 445.786 712.822 445.92L712.782 446.262C712.768 446.38 712.753 446.514 712.739 446.633C712.725 446.752 712.713 446.856 712.699 446.975C712.685 447.094 712.67 447.228 712.656 447.346C712.644 447.451 712.63 447.569 712.616 447.688C712.601 447.822 712.587 447.941 712.571 448.075C712.559 448.179 712.545 448.298 712.532 448.417C712.518 448.535 712.502 448.669 712.503 448.788C712.49 448.907 712.477 449.011 712.464 449.13C712.45 449.249 712.434 449.383 712.42 449.502C712.407 449.62 712.41 449.724 712.396 449.843C712.382 449.962 712.366 450.096 712.367 450.215C712.354 450.334 712.342 450.438 712.343 450.557C712.327 450.69 712.328 450.809 712.313 450.943C712.301 451.047 712.302 451.166 712.303 451.285C712.289 451.404 712.273 451.538 712.275 451.657C712.261 451.775 712.264 451.879 712.265 451.998C712.251 452.117 712.25 452.251 712.251 452.37C712.239 452.474 712.24 452.593 712.242 452.712C712.226 452.845 712.227 452.964 712.226 453.098C712.213 453.217 712.216 453.321 712.217 453.44C712.203 453.559 712.202 453.693 712.203 453.811C712.189 453.93 712.192 454.034 712.193 454.153C712.18 454.272 712.179 454.406 712.18 454.525C712.166 454.644 712.169 454.748 712.17 454.867C712.156 454.986 712.171 455.119 712.17 455.253C712.156 455.372 712.159 455.476 712.16 455.595C712.147 455.714 712.161 455.848 712.162 455.967C712.148 456.085 712.166 456.189 712.152 456.308C712.151 456.442 712.153 456.561 712.154 456.68C712.14 456.799 712.158 456.903 712.159 457.022C712.16 457.141 712.159 457.274 712.16 457.393C712.147 457.512 712.164 457.616 712.165 457.735C712.165 457.869 712.166 457.988 712.165 458.121C712.168 458.226 712.169 458.344 712.17 458.463C712.172 458.582 712.171 458.716 712.172 458.835C712.173 458.954 712.176 459.058 712.177 459.177C712.178 459.296 712.178 459.429 712.192 459.563C712.193 459.682 712.196 459.786 712.197 459.905C712.198 460.024 712.198 460.158 712.214 460.276C712.215 460.395 712.218 460.499 712.219 460.618C712.22 460.737 712.219 460.871 712.235 460.99C712.236 461.109 712.239 461.213 712.255 461.332C712.255 461.465 712.256 461.584 712.27 461.718C712.273 461.822 712.274 461.941 712.275 462.06C712.276 462.179 712.291 462.313 712.307 462.431C712.308 462.55 712.311 462.654 712.327 462.773C712.328 462.892 712.327 463.026 712.358 463.145C712.359 463.264 712.362 463.368 712.378 463.487C712.378 463.62 712.394 463.739 712.408 463.873C712.409 463.992 712.412 464.096 712.428 464.215C712.429 464.334 712.444 464.468 712.46 464.586C712.461 464.705 712.478 464.809 712.48 464.928C712.496 465.047 712.495 465.181 712.511 465.3C712.527 465.419 712.53 465.523 712.546 465.642C712.562 465.761 712.576 465.894 712.578 466.013C712.594 466.132 712.596 466.236 712.612 466.355C712.627 466.489 712.628 466.608 712.642 466.741C712.643 466.86 712.661 466.964 712.677 467.083C712.693 467.202 712.693 467.336 712.709 467.455C712.725 467.574 712.728 467.678 712.744 467.797H712.833Z" fill="#222A74"/>
<path d="M715.805 463.561C716.307 464.126 716.561 464.899 716.461 465.761C716.262 467.47 714.711 468.867 712.978 468.867H555.777C552.894 468.867 550.228 468.287 547.854 467.247C547.613 467.143 547.358 467.024 547.132 466.905C546.892 466.786 546.637 466.667 546.399 466.533C546.202 466.429 546.006 466.311 545.811 466.192C545.601 466.073 545.407 465.939 545.199 465.805C545.032 465.701 544.866 465.582 544.701 465.463C544.52 465.344 544.357 465.211 544.191 465.092C544.041 464.973 543.889 464.869 543.753 464.75C543.603 464.631 543.454 464.497 543.303 464.378C543.168 464.26 543.045 464.155 542.925 464.037C542.789 463.918 542.655 463.784 542.52 463.665C542.412 463.561 542.292 463.442 542.186 463.323C542.066 463.204 541.947 463.071 541.813 462.937C541.76 462.877 541.707 462.818 541.667 462.773C541.615 462.714 541.575 462.669 541.522 462.61C541.417 462.491 541.313 462.357 541.207 462.238C541.114 462.134 541.024 462.015 540.933 461.896C540.842 461.778 540.738 461.644 540.647 461.525C540.555 461.421 540.479 461.302 540.403 461.183C540.313 461.064 540.224 460.93 540.135 460.797C540.057 460.693 539.996 460.574 539.92 460.455C539.845 460.336 539.756 460.202 539.695 460.083C539.619 459.964 539.556 459.86 539.495 459.741C539.42 459.623 539.346 459.489 539.285 459.37C539.224 459.251 539.161 459.147 539.115 459.028C539.054 458.909 538.995 458.775 538.921 458.642C538.86 458.523 538.813 458.419 538.767 458.3C538.769 458.285 538.755 458.27 538.742 458.255C537.39 455.238 536.808 451.761 537.24 448.045C537.672 444.33 539.047 440.852 541.116 437.835C541.116 437.835 541.117 437.82 541.134 437.805C541.208 437.686 541.294 437.582 541.368 437.463C541.458 437.33 541.547 437.211 541.652 437.077C541.74 436.958 541.812 436.854 541.901 436.735C541.989 436.616 542.094 436.482 542.198 436.364C542.286 436.245 542.373 436.141 542.477 436.022C542.582 435.888 542.685 435.769 542.789 435.65C542.892 435.531 542.979 435.427 543.082 435.308C543.202 435.175 543.321 435.056 543.426 434.922C543.529 434.803 543.646 434.699 543.75 434.58C543.87 434.446 544.003 434.327 544.121 434.208C544.24 434.09 544.358 433.971 544.475 433.867C544.61 433.733 544.743 433.614 544.876 433.495C544.995 433.376 545.126 433.272 545.26 433.153C545.408 433.034 545.558 432.901 545.706 432.782C545.84 432.663 545.971 432.559 546.119 432.44C546.284 432.306 546.448 432.187 546.612 432.054C546.761 431.935 546.907 431.831 547.07 431.712C547.25 431.578 547.428 431.459 547.607 431.34C547.77 431.221 547.946 431.117 548.124 430.998C548.319 430.865 548.527 430.746 548.72 430.627C548.913 430.508 549.105 430.404 549.298 430.285C549.522 430.151 549.76 430.032 550 429.899C550.223 429.78 550.446 429.661 550.667 429.557C550.936 429.423 551.189 429.304 551.472 429.185C551.74 429.066 552.007 428.947 552.273 428.843C554.905 427.788 557.736 427.208 560.634 427.208H717.835C718.701 427.208 719.438 427.55 719.94 428.115C720.442 428.68 720.696 429.453 720.596 430.315C720.395 432.039 718.846 433.421 717.113 433.421H560.465C559.942 433.421 559.416 433.451 558.903 433.495C558.132 433.569 557.385 433.703 556.634 433.867C556.233 433.971 555.818 434.075 555.414 434.208C555.057 434.327 554.699 434.446 554.34 434.58C554.074 434.684 553.806 434.803 553.554 434.922C553.286 435.041 553.018 435.16 552.747 435.308C552.541 435.412 552.334 435.516 552.125 435.65C551.902 435.769 551.694 435.888 551.484 436.022C551.307 436.126 551.129 436.245 550.951 436.364C550.758 436.482 550.593 436.616 550.415 436.735C550.269 436.839 550.12 436.958 549.957 437.077C549.794 437.196 549.629 437.33 549.479 437.463C549.347 437.567 549.214 437.686 549.081 437.805C548.933 437.924 548.797 438.058 548.664 438.177C548.546 438.296 548.429 438.4 548.311 438.518C548.177 438.637 548.057 438.771 547.939 438.89C547.822 438.994 547.719 439.113 547.63 439.232C547.512 439.351 547.407 439.485 547.287 439.618C547.183 439.737 547.096 439.841 546.993 439.96C546.89 440.079 546.799 440.213 546.711 440.332C546.622 440.451 546.535 440.555 546.462 440.673C546.358 440.792 546.283 440.926 546.193 441.06C546.104 441.179 546.033 441.283 545.974 441.402C545.885 441.521 545.81 441.654 545.737 441.773C545.663 441.892 545.591 441.996 545.533 442.115C545.459 442.234 545.384 442.368 545.325 442.487C545.266 442.606 545.21 442.71 545.151 442.829C545.076 442.962 545.017 443.081 544.957 443.215C544.9 443.319 544.841 443.438 544.797 443.557C544.739 443.676 544.678 443.809 544.635 443.928C544.576 444.047 544.534 444.151 544.49 444.27C544.447 444.389 544.386 444.523 544.343 444.642C544.301 444.746 544.257 444.865 544.228 444.983C544.185 445.102 544.139 445.236 544.109 445.37C544.067 445.474 544.038 445.593 544.009 445.712C543.965 445.831 543.935 445.964 543.906 446.083C543.877 446.202 543.85 446.306 543.822 446.425C543.793 446.544 543.762 446.678 543.749 446.797C543.72 446.916 543.708 447.02 543.679 447.138C543.665 447.257 543.635 447.391 543.621 447.51C543.609 447.614 543.58 447.733 543.581 447.852C543.574 447.911 543.567 447.971 543.56 448.03C543.552 448.105 543.545 448.164 543.536 448.238C543.522 448.357 543.51 448.461 543.496 448.58C543.481 448.714 543.467 448.833 543.468 448.952C543.454 449.071 543.457 449.175 543.458 449.293C543.443 449.427 543.444 449.546 543.445 449.665C543.431 449.784 543.449 449.888 543.45 450.007C543.435 450.141 543.451 450.26 543.465 450.393C543.466 450.512 543.469 450.616 543.485 450.735C543.486 450.854 543.5 450.988 543.517 451.107C543.518 451.226 543.535 451.33 543.551 451.448C543.566 451.582 543.582 451.701 543.611 451.835C543.627 451.954 543.66 452.058 543.676 452.177C543.69 452.31 543.721 452.429 543.752 452.548C543.768 452.667 543.801 452.771 543.832 452.89C543.861 453.024 543.892 453.143 543.936 453.277C543.967 453.395 544 453.499 544.031 453.618C544.06 453.752 544.106 453.871 544.167 453.99C544.198 454.109 544.246 454.213 544.292 454.332C544.336 454.465 544.382 454.584 544.443 454.703C544.489 454.822 544.536 454.926 544.582 455.045C544.641 455.179 544.702 455.298 544.761 455.431C544.822 455.55 544.87 455.654 544.931 455.773C544.99 455.907 545.066 456.026 545.142 456.145C545.202 456.264 545.28 456.368 545.356 456.487C545.43 456.62 545.521 456.739 545.596 456.858C545.672 456.977 545.75 457.081 545.826 457.2C545.915 457.334 546.005 457.453 546.109 457.586C546.2 457.705 546.292 457.809 546.383 457.928C546.489 458.047 546.593 458.181 546.713 458.3C546.819 458.419 546.925 458.538 547.032 458.642C547.151 458.775 547.287 458.894 547.42 459.028C547.541 459.147 547.663 459.251 547.799 459.37C547.948 459.504 548.098 459.623 548.264 459.741C548.414 459.86 548.565 459.979 548.717 460.083C548.896 460.217 549.076 460.336 549.271 460.455C549.452 460.574 549.632 460.693 549.829 460.797C550.052 460.93 550.291 461.064 550.546 461.183C550.771 461.302 551.011 461.421 551.268 461.525C551.596 461.659 551.924 461.792 552.27 461.896C552.643 462.03 553.033 462.149 553.441 462.238C554.195 462.432 554.988 462.55 555.802 462.61C556.215 462.654 556.632 462.669 557.065 462.669H713.713C714.579 462.669 715.316 463.011 715.818 463.576L715.805 463.561Z" fill="#87A8F5"/>
<path d="M710.489 427.179H552.945C543.34 427.179 536.473 419.436 537.582 409.894C538.693 400.338 547.373 392.61 556.963 392.61H714.507C724.112 392.61 730.979 400.353 729.87 409.894C728.76 419.451 720.079 427.179 710.489 427.179Z" fill="#171C47"/>
<path d="M566.975 392.595H555.608L551.588 427.179H562.955L566.975 392.595Z" fill="white"/>
<path d="M584.87 392.595H573.503L569.483 427.179H580.85L584.87 392.595Z" fill="white"/>
<path d="M655.117 460.054L650.402 455.253L644.586 460.054L646.965 439.589H657.496L655.117 460.054Z" fill="#A4BDF5"/>
<path d="M710.226 504.342L707.626 526.71H642.29C636.091 526.71 631.625 521.701 632.342 515.534C633.059 509.366 638.691 504.342 644.89 504.342H710.226Z" fill="#222A74"/>
<path d="M638.89 504.342C629.076 504.342 620.701 516.901 630.943 526.71H701.626L701.113 531.124H516.338C513.694 531.124 511.805 528.998 512.111 526.368L514.631 504.684C514.937 502.054 517.32 499.928 519.964 499.928H704.739L704.226 504.342H638.89Z" fill="#171C47"/>
<path d="M632.342 515.533C631.625 521.701 636.091 526.71 642.29 526.71H707.626L707.113 531.124H641.777C633.129 531.124 626.907 524.124 627.905 515.533C628.904 506.943 636.755 499.928 645.403 499.928H710.739L710.226 504.342H644.89C638.691 504.342 633.059 509.366 632.342 515.533Z" fill="#87A8F5"/>
<path d="M585.614 499.928H581.401L577.776 531.124H581.988L585.614 499.928Z" fill="white"/>
<path d="M575.098 499.928H570.886L567.26 531.124H571.472L575.098 499.928Z" fill="white"/>
<path d="M648.218 512.338L647.088 522.058L652.447 518.625L657.007 522.058L658.136 512.338H648.218Z" fill="#A4BDF5"/>
<path d="M592.718 517.198C593.3 512.189 597.85 508.132 602.884 508.132C607.918 508.132 611.524 512.189 610.942 517.198C610.36 522.207 605.81 526.264 600.776 526.264C595.742 526.264 592.136 522.207 592.718 517.198Z" fill="white"/>
<path d="M536.237 473.147L533.637 495.514H598.973C605.172 495.514 610.803 490.506 611.52 484.338C612.237 478.17 607.772 473.147 601.573 473.147H536.237Z" fill="#222A74"/>
<path d="M604.558 473.147C614.372 473.147 619.828 485.705 607.306 495.514H536.622L536.109 499.928H722.169C724.096 499.928 725.845 498.368 726.068 496.451L728.888 472.196C729.11 470.279 727.723 468.718 725.796 468.718H539.737L539.224 473.132H604.56L604.558 473.147Z" fill="#171C47"/>
<path d="M611.507 484.323C610.79 490.491 605.159 495.5 598.96 495.5H533.624L533.111 499.914H598.447C607.095 499.914 614.945 492.914 615.943 484.323C616.942 475.733 610.721 468.718 602.073 468.718H536.737L536.224 473.132H601.56C607.759 473.132 612.224 478.156 611.507 484.323Z" fill="#87A8F5"/>
<path d="M658.235 499.928H662.447L666.073 468.733H661.861L658.235 499.928Z" fill="white"/>
<path d="M668.765 499.928H672.978L676.604 468.733H672.391L668.765 499.928Z" fill="white"/>
<path d="M596.386 481.143L595.258 490.848L590.683 487.415L585.325 490.848L586.453 481.143H596.386Z" fill="#A4BDF5"/>
<path d="M629.668 484.323C630.217 479.597 634.517 475.763 639.267 475.763C644.017 475.763 647.425 479.597 646.876 484.323C646.326 489.049 642.027 492.884 637.277 492.884C632.527 492.884 629.119 489.049 629.668 484.323Z" fill="white"/>
<path d="M595.632 409.879C596.209 404.915 600.726 400.888 605.715 400.888C610.704 400.888 614.284 404.915 613.707 409.879C613.13 414.843 608.614 418.871 603.624 418.871C598.635 418.871 595.056 414.843 595.632 409.879Z" fill="white"/>
<path d="M591.133 333.621L593.575 334.622L603.285 315.648L600.843 314.646L591.133 333.621Z" fill="#222A74"/>
<path d="M564.756 327.128L565.301 329.506L566.451 346.344C566.451 346.344 565.876 347.563 566.537 349.198C568.003 352.913 573.855 356.926 576.893 356.361C586.343 354.608 596.626 336.565 596.626 336.565C599.036 334.975 601.855 329.104 600.982 325.686C599.122 318.433 597.855 328.941 594.248 330.16C593.454 330.442 592.009 327.321 591.562 328.599C591.1 329.877 592.118 333.964 592.118 333.964C592.118 333.964 577.466 344.873 577.149 344.903C577.06 344.903 576.562 343.402 575.72 341.261C573.998 336.803 570.776 329.565 566.536 327.618C565.972 327.336 565.363 327.172 564.743 327.113L564.756 327.128Z" fill="#F1CCCD"/>
<path d="M565.301 329.506L562.989 346.567C562.989 346.567 566.329 352.408 566.975 354.043L577.817 342.881C574.892 338.75 568.564 326.622 564.324 324.675L565.299 329.52L565.301 329.506Z" fill="#222A74"/>
<path d="M572.083 314.465C572.083 314.465 576.053 310.378 573.803 305.325C571.789 300.807 563.5 300.406 560.452 302.858C554.721 307.435 555.196 315.431 560.793 318.686L572.083 314.465Z" fill="#171C47"/>
<path d="M546.296 334.425C550.097 343.624 547.386 348.44 547.736 356.094C547.762 362.039 549.908 371.208 553.264 377.673C558.637 375.786 569.446 371.981 574.818 370.094L579.085 373.869C576.878 372.427 559.026 358.813 562.034 350.669C567.479 335.317 564.34 324.661 564.34 324.661C564.746 323.739 566.204 320.321 566.617 319.34L561.703 317.408C560.664 318.894 558.359 322.149 557.286 323.665C556.393 325.181 547.097 333.964 546.296 334.425Z" fill="#F1CCCD"/>
<path d="M551.977 374.864C552.107 375.162 552.235 375.474 552.378 375.786C552.651 376.395 552.93 377.465 553.244 378.104C555.42 378.149 557.631 377.629 559.853 377.406C561.394 377.257 562.925 377.064 564.481 376.782C573.615 375.177 576.238 376.514 583.422 370.614C577.548 363.317 568.173 362.752 569.731 349.867C572.186 329.639 564.311 324.661 564.311 324.661C564.09 329.639 561.348 328.302 557.273 323.65C556.855 323.903 549.456 326.771 547.117 331.735C541.999 342.614 544.005 356.45 551.979 374.85L551.977 374.864Z" fill="#171C47"/>
<path d="M559.862 320.009C561.446 321.807 563.572 322.788 564.919 323.278L566.6 319.355L561.686 317.423L559.86 320.024L559.862 320.009Z" fill="#E3BABB"/>
<path d="M560.105 313.038C560.105 313.038 558.091 310.958 559.393 309.397C560.872 307.599 563.18 311.002 563.18 311.002C566.145 311.448 568.462 310.408 571.598 308.104C572.317 307.569 573.263 308.045 573.148 308.907C572.678 312.429 571.431 319.176 568.754 320.871C567.271 321.807 565.705 321.792 564.276 321.361C561.162 320.395 560.095 313.38 560.101 313.068L560.105 313.038Z" fill="#F1CCCD"/>
<path d="M561.954 302.011C561.954 302.011 560.472 297.032 556.369 299.811C552.204 302.62 554.695 306.767 557.615 306.573C560.548 306.395 561.954 302.011 561.954 302.011Z" fill="#171C47"/>
<path d="M572.083 314.465C572.083 314.465 571.95 309.828 572.157 307.792C572.157 307.792 571.436 311.166 566.436 312.801C562.616 314.049 562.585 317.913 562.585 317.913C561.791 314.852 562.39 313.425 563.181 310.988L564.769 307.866C564.769 307.866 567.408 306.752 567.429 306.573C567.449 306.395 572.617 305.503 572.617 305.503L573.918 308.06L572.085 314.45L572.083 314.465Z" fill="#222A74"/>
<path d="M566.471 363.644C570.743 363.005 586.447 347.667 589.905 344.264C590.275 343.907 590.777 343.699 591.265 343.743C592.302 343.818 592.988 343.312 595.7 340.934C598.531 338.423 605.909 340.875 601.647 336.669C598.444 333.518 593.419 335.881 588.504 338.839L567.572 352.631L563.188 345.883L559.45 340.132L548.815 331.779C545.84 336.55 547.331 344.546 553.066 352.007C558.205 358.68 564.217 364.015 566.483 363.673L566.471 363.644Z" fill="#F1CCCD"/>
<path d="M553.095 354.325L565.667 345.631C565.667 345.631 558.723 322.743 549.402 330.843C542.971 336.431 547.377 346.85 553.095 354.325Z" fill="#222A74"/>
<path d="M572.51 388.538C605.16 388.82 635.444 387.869 662.765 390.306C668.132 390.782 673.692 390.247 678.756 390.499C678.756 390.499 679.51 384.525 679.705 383.871C674.736 382.801 669.583 381.389 664.484 380.408C640.651 375.845 615.381 372.338 589.059 369.663L572.509 388.552L572.51 388.538Z" fill="#F1CCCD"/>
<path d="M567.054 388.062C580.291 400.888 618.82 384.138 662.948 391.436L665.097 379.501C641.264 374.939 615.383 372.323 589.061 369.648L567.056 388.047L567.054 388.062Z" fill="#222A74"/>
<path d="M683.645 390.544L688.783 392.996L697.707 393.07L698.221 391.346L691.038 388.76L696.752 386.635C698.298 386.056 699.682 385.075 700.261 383.559C701.803 379.546 703.909 371.58 701.344 370.896C698.707 370.198 696.66 377.911 693.113 379.769C689.663 381.567 685.219 383.692 685.219 383.692L683.649 390.514L683.645 390.544Z" fill="#333D87"/>
<path d="M552.893 377.272C582.433 419.986 608.435 362.187 618.552 364.208C628.669 366.23 641.403 379.784 643.569 381.196C646.213 381.968 651.477 382.949 651.043 379.739C649.404 377.777 648.752 376.187 648.205 373.185C648.205 373.185 648.325 376.009 648.091 372.234C647.843 368.459 632.597 350.55 626.523 349.733C609.729 347.459 594.843 363.465 581.918 368.905C568.977 374.344 563.535 372.843 552.894 377.257L552.893 377.272Z" fill="#F1CCCD"/>
<path d="M552.882 377.109C557.257 391.257 570.348 394.036 578.343 393.487C597.152 392.179 612.619 365.264 620.439 366.869C622.102 367.21 635.794 375.221 639.175 379.16C642.22 377.644 648.925 373.289 649.059 372.903C646.054 366.631 634.496 349.123 627.589 347.89C610.612 344.873 570.219 371.238 552.897 377.109H552.882Z" fill="#222A74"/>
<path d="M649.35 381.151C649.135 383.009 648.667 383.559 648.536 385.714C648.419 387.883 648.667 391.658 648.634 394.126C649.223 394.2 649.809 394.17 650.386 394.215C651.193 391.644 651.972 389.058 652.79 386.516C653.415 388.077 654.498 390.068 655.059 391.54C655.605 393.011 657.102 394.007 658.215 394.2C661.172 394.72 669.696 395.537 670.678 392.104C671.657 388.686 663.399 388.537 661.918 386.249C660.434 383.975 658.826 381.745 657.29 379.546C654.63 380.066 651.997 380.616 649.35 381.151Z" fill="#414C96"/>
<path d="M332.586 173.796C337.786 178.403 343.417 183.04 349.731 188.212C375.446 154.609 378.532 113.278 342.03 89.9742C318.809 75.1419 296.714 70.282 271.794 55.1525C267.903 63.3117 262.466 69.093 258.531 76.3457C283.678 91.8319 303.495 95.2205 327.567 110.053C352.825 125.613 348.829 151.384 332.584 173.811L332.586 173.796Z" fill="#C76A0B"/>
<path d="M325.35 182.951C325.886 182.579 326.408 182.208 326.932 181.807C326.409 182.193 325.886 182.579 325.35 182.951Z" fill="#6571DB"/>
<path d="M212.418 141.382C229.868 164.359 232.433 177.764 252.132 198.868C255.2 201.9 258.694 204.486 262.449 206.745C288.854 223.108 327.419 214.013 349.73 188.227C344.872 184.14 340.015 180.053 335.157 175.966C314.478 193.236 284.403 198.943 266.96 178.344C248.917 157.388 244.741 140.624 226.449 118.598C220.927 122.15 215.915 126.46 210.598 130.31C212.704 132.881 214.784 135.422 216.775 138.083C215.318 139.182 213.861 140.282 212.417 141.397L212.418 141.382Z" fill="#C76A0B"/>
<path d="M212.405 141.367C232.154 166.157 234.656 184.081 259.116 204.575C273.215 214.488 290.112 216.524 307.97 213.76C253.836 219.036 245.879 172.087 216.779 138.053C214.879 138.588 213.98 140.416 212.42 141.367H212.405Z" fill="#914D08"/>
<path d="M319.221 188.138C315.87 189.208 312.542 189.951 309.118 190.367C319.974 187.826 329.521 183.694 338.144 175.951C339.015 176.679 339.885 177.422 340.756 178.151C333.959 183.04 327.133 186.25 319.206 188.138H319.221Z" fill="#C76A0B"/>
<path d="M264.171 73.4477C267.2 75.2757 270.229 77.1037 273.331 78.8128C276.756 73.2544 280.448 67.4434 283.858 61.885C280.732 60.1164 277.429 58.333 274.391 56.713C270.967 62.2714 267.58 67.8893 264.154 73.4625L264.171 73.4477Z" fill="white"/>
<path d="M197.569 130.384C200.552 134.025 203.586 137.607 206.42 141.367C207.864 140.252 209.321 139.153 210.779 138.053C208.786 135.407 206.71 132.836 204.6 130.295C209.841 126.327 215.082 122.359 220.324 118.39C219.447 117.32 218.556 116.25 217.681 115.165C210.983 120.233 204.268 125.316 197.569 130.384Z" fill="#FFEEDC"/>
<path d="M207.6 130.295C209.708 132.851 211.786 135.408 213.779 138.053C219.02 134.085 224.189 130.221 229.421 126.208C227.477 123.399 225.435 120.917 223.325 118.376C218.084 122.344 212.843 126.312 207.602 130.28L207.6 130.295Z" fill="white"/>
<path d="M312.47 189.416C322.301 187.083 330.317 182.758 338.159 175.951C337.301 175.238 336.459 174.51 335.601 173.796C328.836 180.975 321.574 186.013 312.485 189.416H312.47Z" fill="#904D08"/>
<path d="M332.586 173.796C332.586 173.796 334.329 175.253 335.144 175.951C347.743 163.556 362.965 129.745 333.913 107.63C313.317 93.9871 296.176 91.3565 273.316 78.813C271.842 80.0614 270.933 81.7111 270.479 83.4351C292.224 95.5476 307.517 97.6283 327.639 110.083C352.497 125.48 349.129 151.503 332.584 173.811L332.586 173.796Z" fill="#904D08"/>
<path d="M258.21 76.1526C262.272 78.6048 266.298 81.1017 270.485 83.3756C271.427 81.8299 272.383 80.2842 273.323 78.7535C270.206 77.0443 267.192 75.2163 264.163 73.3883C267.587 67.8299 270.998 62.2566 274.423 56.6982C273.39 56.074 272.357 55.4498 271.323 54.8405C266.957 61.9445 262.591 69.0486 258.225 76.1526H258.21Z" fill="#FFEEDC"/>
<path d="M177.104 121.913C179.812 123.027 182.582 122.849 185.608 122.388C188.954 121.868 192.792 121.11 195.155 123.652C196.232 124.796 198.212 122.923 197.15 121.779C195.319 119.802 192.675 119.163 189.866 119.297C186.127 119.461 182.085 121.08 178.606 119.654C177.137 119.059 175.634 121.318 177.104 121.913Z" fill="#C76A0B"/>
<path d="M184.45 105.49C185.523 109.756 189.802 110.335 193.625 111.242C198.32 112.356 200.77 116.087 203.074 119.906C203.89 121.244 206.243 119.892 205.429 118.539C203.587 115.492 201.621 112.356 198.565 110.38C196.897 109.31 194.98 108.834 192.997 108.418C190.605 107.928 187.683 107.363 187.018 104.732C186.63 103.187 184.064 103.93 184.45 105.49Z" fill="#C76A0B"/>
<path d="M200.055 93.7047C200.981 93.7047 201.673 98.5497 201.955 99.3374C202.459 100.779 203.075 102.161 203.786 103.499C205.376 106.531 207.37 109.295 209.347 112.074C210.259 113.352 212.241 111.465 211.342 110.202C208.89 106.754 206.398 103.261 204.801 99.2631C204.027 97.3162 203.802 95.2652 203.197 93.2737C202.76 91.8915 201.786 91.1484 200.294 91.1335C198.621 91.1335 198.412 93.7047 200.085 93.7047H200.055Z" fill="#C76A0B"/>
<path d="M238.302 71.1144C243.466 71.2778 250.358 66.9827 254.757 70.2672C256.02 71.2184 257.677 69.0485 256.426 68.1122C251.274 64.2481 244.689 68.7216 238.765 68.5432C237.114 68.4838 236.649 71.0698 238.302 71.1144Z" fill="#C76A0B"/>
<path d="M237.899 52.4775C240.22 55.1229 242.696 57.7238 246.384 58.5114C248.526 58.9722 250.728 59.0465 252.798 59.745C254.967 60.4881 256.836 61.6325 258.519 63.0889C259.714 64.1144 261.369 61.9594 260.188 60.934C257.5 58.6155 254.256 57.0995 250.622 56.4902C248.438 56.1335 246.299 56.0295 244.432 54.8702C242.704 53.8002 241.362 52.2397 240.043 50.7386C239.014 49.5645 236.887 51.2885 237.915 52.4626L237.899 52.4775Z" fill="#C76A0B"/>
<path d="M254.351 43.4264C257.45 44.9126 259.413 47.4243 260.012 50.8872C260.492 53.6961 260.779 56.2375 262.881 58.1993C264.026 59.2693 265.683 57.0995 264.551 56.0443C262.086 53.7258 262.917 49.1483 261.316 46.2205C259.996 43.8277 257.932 42.178 255.471 40.989C254.027 40.3054 252.952 42.7428 254.366 43.4264H254.351Z" fill="#C76A0B"/>
<path d="M157.819 382.028C157.819 382.028 151.254 404.321 145.265 405.852C142.555 406.55 139.247 405.971 136.148 404.871C130.91 403.028 126.27 399.773 126.209 398.882L122.624 382.177C125.646 383.544 142.6 393.828 143.963 394.824C146.784 391.242 153.067 381.909 153.326 381.225C153.326 381.225 152.79 376.202 153.94 374.79C154.966 373.542 154.818 377.644 155.248 377.153C155.716 376.603 158.796 370.792 160.197 372.487C163.312 376.276 157.832 382.043 157.832 382.043L157.819 382.028Z" fill="#F9CBCB"/>
<path d="M141.161 392.461C140.236 396.816 137.011 402.716 136.424 405.451C131.186 403.608 124.685 402.998 124.609 402.107L122.592 382.192C125.615 383.559 135.246 388.731 141.146 392.461H141.161Z" fill="#171C47"/>
<path d="M110.099 477.204C108.455 481.455 107.311 485.26 106.526 488.797C104.503 497.848 103.167 511.788 103.802 520.587L108.516 520.126C108.516 520.126 117.871 496.317 122.408 484.145C123.574 481.054 124.507 478.289 125.078 476.209C128.34 464.334 125.277 430.671 125.083 428.487L125.093 428.398L125.067 428.368L106.61 425.752C93.8883 449.353 105.028 455.298 110.105 477.16L110.099 477.204Z" fill="#F1CCCD"/>
<path d="M103.511 457.809C105.524 463.234 108.229 469.134 110.099 477.204C108.606 481.054 106.962 485.052 105.062 489.703L121.036 491.962C122.202 488.871 124.506 478.304 125.076 476.224C128.338 464.349 125.275 430.686 125.081 428.502L125.092 428.412L125.065 428.383L106.608 425.767C98.5884 440.659 100.05 448.521 103.514 457.78L103.511 457.809Z" fill="#171C47"/>
<path d="M103.511 457.81C105.524 463.234 108.229 469.134 110.1 477.205C108.606 481.054 106.962 485.052 105.062 489.703L108.016 490.12C109.059 485.512 114.033 477.933 115.395 478.171C114.204 477.873 105.588 456.13 105.611 448.61L103.526 457.81H103.511Z" fill="#293278"/>
<path d="M84.7821 526.026L74.8723 512.844C74.8723 512.844 84.7839 499.795 92.5892 491.115C94.4443 489.035 96.1787 487.222 97.6337 485.884C108.054 476.298 118.525 427.981 118.525 427.981H103.139C89.8029 439.009 91.0696 454.198 88.9681 469.194C88.244 474.396 85.9739 479.404 82.6411 483.788C81.9716 484.665 81.3302 485.557 80.7152 486.478C76.4472 492.869 73.5003 500.36 70.143 512.665L66.8403 520.646L84.7671 526.026H84.7821Z" fill="#F1CCCD"/>
<path d="M79.9845 486.211L84.2009 488.232L92.7595 492.349C94.6146 490.268 96.1936 487.221 97.6486 485.884C108.069 476.298 119.712 427.788 119.712 427.788L103.813 427.967H103.156C90.2643 438.638 91.0228 453.187 89.1874 467.693C88.4401 473.608 85.8412 479.389 81.6656 484.086C81.0483 484.769 80.4874 485.483 79.9978 486.226L79.9845 486.211Z" fill="#171C47"/>
<path d="M79.9845 486.211L84.2009 488.232C85.9107 485.988 88.5724 481.722 90.0428 478.839C93.9446 471.23 93.2947 460.886 95.7178 446.336C97.5011 435.62 107.203 430.419 107.203 430.419L103.813 427.967H103.156C90.2643 438.637 91.0228 453.187 89.1874 467.693C88.4401 473.608 85.8412 479.389 81.6655 484.086C81.0483 484.769 80.4874 485.483 79.9977 486.226L79.9845 486.211Z" fill="#222A74"/>
<path d="M98.9678 396.786C97.9811 406.431 98.4259 423.166 98.6225 429.185C98.655 430.062 99.0467 430.805 99.6785 431.281C100.021 431.548 100.448 431.727 100.904 431.786C105.177 432.425 109.393 432.782 113.532 432.767C117.266 432.767 120.929 432.484 124.54 431.875C125.942 431.637 127.13 430.538 127.442 429.141C128.463 424.593 128.19 414.606 129.544 404.886C130.409 398.733 130.296 382.994 119.051 380.527L112.292 380.467C104.49 382.429 100.638 388.196 99.6475 392.223C99.345 393.412 99.1171 394.988 98.9379 396.786H98.9678Z" fill="#222A74"/>
<path d="M109.221 518.818C116.088 521.553 124.082 521.27 123.825 527.721L101.332 526.933C101.381 524.198 102.158 521.493 103.649 518.818H109.221Z" fill="#171C47"/>
<path d="M71.8872 512.844C77.0473 517.926 85.22 521.508 82.6755 527.721L62.6297 520.78C63.6542 518.135 65.1209 513.869 67.4109 511.774L71.8872 512.844Z" fill="#171C47"/>
<path d="M117.649 374.597C115.374 375.281 114.352 376.366 111.69 375.102C107.628 373.17 104.87 365.799 110.948 362.47C111.473 361.296 111.928 360.85 113.46 360.523C114.991 360.196 116.454 360.85 118.519 360.82C120.584 360.79 123.758 358.665 125.204 361.652C126.664 364.639 121.928 366.958 119.516 368.429C117.105 369.901 117.541 372.442 117.634 374.597H117.649Z" fill="#171C47"/>
<path d="M112.23 380.482C114.41 382.935 116.671 383.395 119.081 380.527L119.048 375.801L119.04 373.809H113.603L113.355 375.043L112.245 380.482H112.23Z" fill="#F9CBCB"/>
<path d="M113.162 375.935C114.32 377.54 117.969 378.015 119.051 377.317L119.024 373.824L113.823 371.536L113.162 375.935Z" fill="#F0B4B4"/>
<path d="M122.917 364.357C123.592 367.166 123.856 373.378 121.183 375.682C119.49 377.138 114.059 376.574 113.405 372.561C112.186 371.61 111.486 369.276 112.834 368.221C113.788 367.463 114.677 369.455 116.239 369.128C116.835 369.009 115.505 365.16 117.388 364.506C119.273 363.837 121.003 365.279 122.932 364.357H122.917Z" fill="#F9CBCB"/>
<path d="M107.259 404.618C107.259 404.618 112.467 411.856 117.486 415.839C118.69 416.79 119.872 417.548 120.972 417.979C128.613 420.996 147.352 418.618 147.352 418.618C152.818 421.576 160.371 419.822 162.074 417.637C165.096 413.744 155.139 417.415 154.499 415.081C154.499 415.081 159.153 412.703 158.128 410.979C157.105 409.24 148.933 413.877 148.933 413.877C141.579 410.712 134.013 408.973 126.721 408.482C126.234 407.665 125.733 406.833 125.214 406.03C121.484 400.204 116.991 394.913 110.454 391.391C106.584 395.775 106.16 400.189 107.259 404.618Z" fill="#F9CBCB"/>
<path d="M115.746 416.032L126.524 405.421C122.795 399.595 115.852 386.843 109.375 391.941C100.76 398.718 110.727 412.049 115.746 416.032Z" fill="#171C47"/>
<path d="M445.38 22.7384L441.63 55.0039H430.292C424.945 55.0039 421.114 50.6939 421.732 45.3733L423.242 32.3839C423.86 27.0633 428.695 22.7384 434.043 22.7384H445.38Z" fill="#8C91BE"/>
<path d="M443.572 22.7384L439.984 53.6068H428.647C426.825 53.6068 425.166 53.1015 423.819 52.2246C425.368 53.9338 427.635 54.989 430.294 54.989H441.631L445.382 22.7235H443.589L443.572 22.7384Z" fill="#606487"/>
<path d="M485.747 54.2756C481.354 58.6599 448.887 55.0039 448.887 55.0039L452.637 22.7384C452.637 22.7384 458.351 19.8403 460.588 14.4751C462.79 9.1545 465.971 2.34769 469.968 3.43262C473.979 4.51755 474.214 15.6046 468.278 22.7235C468.278 22.7235 484.839 18.3987 488.651 23.1248C492.269 27.5983 489.855 50.1588 485.734 54.2608L485.747 54.2756Z" fill="#8C91BE"/>
<path d="M491.664 23.1396C491.326 22.7086 490.873 22.3668 490.34 22.0696C493.194 27.9698 490.823 48.4943 486.92 52.3881C483.187 56.1036 459.244 54.0378 452.082 53.3244L451.887 55.0038C451.887 55.0038 484.339 58.6599 488.747 54.2756C492.869 50.1737 495.282 27.6131 491.664 23.1396Z" fill="#606487"/>
<path d="M656.384 108.255H618.876C615.056 108.255 611.602 111.335 611.16 115.136L607.607 145.707C607.165 149.507 609.903 152.588 613.723 152.588H651.231C655.05 152.588 658.505 149.507 658.946 145.707L662.5 115.136C662.942 111.335 660.203 108.255 656.384 108.255Z" fill="#C76A0B"/>
<path d="M660.09 109.399C660.446 110.32 660.592 111.376 660.462 112.49L656.91 143.047C656.468 146.851 653.019 149.928 649.195 149.928H611.687C610.268 149.928 609.002 149.512 607.996 148.783C608.869 151.042 611.034 152.588 613.738 152.588H651.246C655.07 152.588 658.519 149.512 658.961 145.707L662.513 115.151C662.791 112.758 661.812 110.647 660.088 109.414L660.09 109.399Z" fill="#904D08"/>
<path d="M629.849 139.405C628.477 140.03 627.077 139.093 627.228 137.667L627.982 130.533L628.737 123.399C628.904 121.957 630.495 120.991 631.739 121.601L639.403 125.316L646.163 128.586C647.591 129.284 647.373 131.41 645.782 132.123L638.304 135.541L629.832 139.42L629.849 139.405Z" fill="white"/>
<path d="M633.003 147.609C623.249 147.609 616.221 139.703 617.349 129.998C618.477 120.293 627.343 112.386 637.097 112.386C646.851 112.386 653.879 120.293 652.751 129.998C651.623 139.703 642.757 147.609 633.003 147.609ZM636.952 113.635C627.885 113.635 619.653 120.976 618.604 129.998C617.555 139.019 624.081 146.361 633.148 146.361C642.215 146.361 650.448 139.019 651.496 129.998C652.545 120.976 646.019 113.635 636.952 113.635Z" fill="white"/>
<path d="M830.631 195.683H793.123C789.303 195.683 785.849 198.763 785.407 202.564L781.854 233.135C781.412 236.935 784.15 240.016 787.97 240.016H825.478C829.297 240.016 832.752 236.935 833.193 233.135L836.747 202.564C837.189 198.763 834.45 195.683 830.631 195.683Z" fill="#C76A0B"/>
<path d="M834.337 196.827C834.693 197.748 834.839 198.804 834.709 199.918L831.158 230.475C830.715 234.279 827.266 237.356 823.442 237.356H785.934C784.515 237.356 783.249 236.94 782.243 236.211C783.116 238.47 785.281 240.016 787.985 240.016H825.493C829.317 240.016 832.766 236.94 833.208 233.135L836.76 202.579C837.038 200.186 836.059 198.075 834.335 196.842L834.337 196.827Z" fill="#904D08"/>
<path d="M804.096 226.833C802.724 227.458 801.324 226.521 801.475 225.095L802.229 217.961L802.984 210.827C803.151 209.385 804.742 208.419 805.986 209.029L813.65 212.744L820.41 216.014C821.838 216.712 821.621 218.838 820.029 219.551L812.551 222.969L804.079 226.848L804.096 226.833Z" fill="white"/>
<path d="M807.25 235.037C797.496 235.037 790.468 227.131 791.596 217.426C792.724 207.721 801.59 199.814 811.344 199.814C821.098 199.814 828.126 207.721 826.998 217.426C825.87 227.131 817.004 235.037 807.25 235.037ZM811.199 201.063C802.132 201.063 793.9 208.404 792.851 217.426C791.803 226.447 798.328 233.789 807.395 233.789C816.462 233.789 824.695 226.447 825.743 217.426C826.792 208.404 820.266 201.063 811.199 201.063Z" fill="white"/>
<path d="M650.81 186.533C628.658 186.533 608.627 204.397 606.065 226.437C605.175 234.091 606.509 241.255 609.568 247.319L598.201 268.393L624.225 262.196C629.28 264.841 635.142 266.327 641.52 266.327C663.673 266.327 683.704 248.463 686.266 226.423C688.827 204.382 672.949 186.518 650.797 186.518L650.81 186.533Z" fill="#C76A0B"/>
<path d="M676.287 196.609C680.95 202.762 683.578 210.609 683.322 219.363C682.668 241.314 664.065 260.635 641.784 262.522C635.356 263.072 629.331 262.091 624.027 259.922L598.383 268.244L598.728 267.457L598.233 268.378L624.257 262.181C629.312 264.826 635.174 266.312 641.552 266.312C663.704 266.312 683.735 248.448 686.297 226.408C687.676 214.548 683.714 203.907 676.304 196.594L676.287 196.609Z" fill="#904D08"/>
<path d="M668.146 216.406C666.519 211.769 661.433 208.484 655.949 210.178C650.077 211.992 647.106 218.783 646.776 219.571C646.741 219.868 646.707 220.166 646.672 220.463C646.707 220.166 646.741 219.868 646.761 219.571C646.613 218.783 645.237 211.992 639.772 210.178C634.681 208.484 628.832 211.769 626.127 216.406C621.18 224.907 628.276 235.444 629.079 236.633C633.882 243.752 641.198 244.941 643.874 245.178C643.934 245.178 643.979 245.178 644.038 245.178C644.113 245.178 644.189 245.164 644.266 245.149C646.991 244.837 654.257 243.499 660.494 236.618C661.591 235.399 671.133 224.892 668.147 216.391L668.146 216.406Z" fill="white"/>
<path d="M256.668 249.563H173.497C171.072 249.563 168.878 251.519 168.598 253.932L162.273 308.342C161.993 310.755 163.732 312.712 166.157 312.712H249.328C251.754 312.712 253.947 310.755 254.228 308.342L260.552 253.932C260.832 251.519 259.094 249.563 256.668 249.563Z" fill="#C76A0B"/>
<path d="M257.07 249.578C257.154 250.009 257.177 250.455 257.124 250.915L250.801 305.31C250.521 307.718 248.321 309.68 245.901 309.68H162.745C162.611 309.68 162.476 309.68 162.344 309.665C162.707 311.419 164.217 312.697 166.174 312.697H249.33C251.75 312.697 253.95 310.735 254.229 308.327L260.552 253.932C260.816 251.658 259.286 249.786 257.07 249.578Z" fill="#904D08"/>
<path d="M172.498 297.865L192.217 274.591C193.273 273.342 195.134 273.402 195.837 274.68L207.762 296.735C208.513 298.117 210.568 298.043 211.54 296.616L215.48 290.864C216.504 289.378 218.655 289.378 219.319 290.864L221.531 295.739C222.255 297.344 224.649 297.181 225.535 295.472L235.387 276.255C236.355 274.353 239.08 274.427 239.512 276.359L244.474 298.444C244.786 299.871 243.554 301.342 242.046 301.342H173.887C172.079 301.342 171.285 299.306 172.515 297.85L172.498 297.865Z" fill="white"/>
<path d="M209.293 266.862C209.704 263.325 212.92 260.457 216.475 260.457C220.03 260.457 222.58 263.325 222.169 266.862C221.757 270.399 218.541 273.268 214.986 273.268C211.431 273.268 208.881 270.399 209.293 266.862Z" fill="white"/>
<path d="M192.989 264.113C192.87 264.113 192.75 264.113 192.642 264.143C192.653 264.053 192.663 263.964 192.673 263.875C192.838 262.463 191.82 261.319 190.401 261.319C189.191 261.319 188.079 262.151 187.68 263.266C187.441 263.013 187.1 262.864 186.696 262.864C186.144 262.864 185.616 263.162 185.311 263.608C185.069 263.504 184.792 263.444 184.508 263.444C183.343 263.444 182.308 264.38 182.175 265.525C182.042 266.669 182.874 267.605 184.024 267.605C184.517 267.605 184.984 267.442 185.376 267.16C185.995 267.739 187.102 268.111 188.387 268.111C189.597 268.111 190.725 267.784 191.473 267.264C191.757 267.516 192.128 267.665 192.562 267.665C193.547 267.665 194.447 266.862 194.561 265.881C194.675 264.901 193.962 264.098 192.976 264.098L192.989 264.113Z" fill="white"/>
<path d="M243.652 264.113C243.533 264.113 243.413 264.113 243.305 264.143C243.315 264.053 243.326 263.964 243.336 263.875C243.5 262.463 242.483 261.319 241.064 261.319C239.854 261.319 238.742 262.151 238.343 263.266C238.104 263.013 237.762 262.864 237.359 262.864C236.806 262.864 236.279 263.162 235.973 263.608C235.731 263.504 235.454 263.444 235.156 263.444C233.991 263.444 232.956 264.38 232.823 265.525C232.69 266.669 233.522 267.605 234.672 267.605C235.165 267.605 235.632 267.442 236.023 267.16C236.643 267.739 237.75 268.111 239.035 268.111C240.245 268.111 241.373 267.784 242.121 267.264C242.405 267.516 242.776 267.665 243.209 267.665C244.195 267.665 245.095 266.862 245.209 265.881C245.323 264.901 244.61 264.098 243.624 264.098L243.652 264.113Z" fill="white"/>
<path d="M180.467 199.045C187.693 182.838 180.848 165.391 165.177 160.075C149.506 154.759 130.944 163.587 123.717 179.794C116.49 196.001 123.336 213.449 139.007 218.765C154.678 224.081 173.24 215.252 180.467 199.045Z" fill="#C76A0B"/>
<path d="M168.352 161.357C177.484 167.346 182.259 178.567 179.633 190.754C175.972 207.726 159.34 220.121 142.477 218.442C138.977 218.1 135.754 217.164 132.855 215.767C136.45 218.115 140.722 219.66 145.477 220.136C162.34 221.815 178.972 209.42 182.633 192.448C185.54 178.998 179.411 166.707 168.352 161.357Z" fill="#904D08"/>
<path d="M160.185 189.156C165.437 184.472 166.319 176.878 162.156 172.194C157.993 167.51 150.361 167.51 145.109 172.194C139.857 176.878 138.974 184.472 143.137 189.156C147.3 193.84 154.933 193.84 160.185 189.156Z" fill="white"/>
<path d="M162.297 192.76C161.414 192.002 160.051 192.032 159.02 192.805C156.749 194.484 153.985 195.509 151.088 195.509C148.19 195.509 145.821 194.558 143.974 192.968C143.091 192.21 141.715 192.225 140.681 193.027C138.004 195.108 136.178 198.095 135.727 201.974L135.686 202.331C135.453 204.337 136.906 205.972 138.922 205.972H161.433C163.45 205.972 165.283 204.337 165.516 202.331L165.557 201.974C166.029 197.917 164.728 194.841 162.297 192.76Z" fill="white"/>
</svg>
